%TF.GenerationSoftware,KiCad,Pcbnew,9.0.6*%
%TF.CreationDate,2026-07-31T13:26:48+05:30*%
%TF.ProjectId,HACK_GVS,4841434b-5f47-4565-932e-6b696361645f,rev?*%
%TF.SameCoordinates,Original*%
%TF.FileFunction,Legend,Top*%
%TF.FilePolarity,Positive*%
%FSLAX46Y46*%
G04 Gerber Fmt 4.6, Leading zero omitted, Abs format (unit mm)*
G04 Created by KiCad (PCBNEW 9.0.6) date 2026-07-31 13:26:48*
%MOMM*%
%LPD*%
G01*
G04 APERTURE LIST*
%ADD10C,0.200000*%
%ADD11C,0.150000*%
%ADD12C,0.120000*%
G04 APERTURE END LIST*
D10*
X167843482Y-80882338D02*
X167748244Y-80834719D01*
X167748244Y-80834719D02*
X167605387Y-80834719D01*
X167605387Y-80834719D02*
X167462530Y-80882338D01*
X167462530Y-80882338D02*
X167367292Y-80977576D01*
X167367292Y-80977576D02*
X167319673Y-81072814D01*
X167319673Y-81072814D02*
X167272054Y-81263290D01*
X167272054Y-81263290D02*
X167272054Y-81406147D01*
X167272054Y-81406147D02*
X167319673Y-81596623D01*
X167319673Y-81596623D02*
X167367292Y-81691861D01*
X167367292Y-81691861D02*
X167462530Y-81787100D01*
X167462530Y-81787100D02*
X167605387Y-81834719D01*
X167605387Y-81834719D02*
X167700625Y-81834719D01*
X167700625Y-81834719D02*
X167843482Y-81787100D01*
X167843482Y-81787100D02*
X167891101Y-81739480D01*
X167891101Y-81739480D02*
X167891101Y-81406147D01*
X167891101Y-81406147D02*
X167700625Y-81406147D01*
X168319673Y-81834719D02*
X168319673Y-80834719D01*
X168319673Y-80834719D02*
X168891101Y-81834719D01*
X168891101Y-81834719D02*
X168891101Y-80834719D01*
X169367292Y-81834719D02*
X169367292Y-80834719D01*
X169367292Y-80834719D02*
X169605387Y-80834719D01*
X169605387Y-80834719D02*
X169748244Y-80882338D01*
X169748244Y-80882338D02*
X169843482Y-80977576D01*
X169843482Y-80977576D02*
X169891101Y-81072814D01*
X169891101Y-81072814D02*
X169938720Y-81263290D01*
X169938720Y-81263290D02*
X169938720Y-81406147D01*
X169938720Y-81406147D02*
X169891101Y-81596623D01*
X169891101Y-81596623D02*
X169843482Y-81691861D01*
X169843482Y-81691861D02*
X169748244Y-81787100D01*
X169748244Y-81787100D02*
X169605387Y-81834719D01*
X169605387Y-81834719D02*
X169367292Y-81834719D01*
X174843482Y-80882338D02*
X174748244Y-80834719D01*
X174748244Y-80834719D02*
X174605387Y-80834719D01*
X174605387Y-80834719D02*
X174462530Y-80882338D01*
X174462530Y-80882338D02*
X174367292Y-80977576D01*
X174367292Y-80977576D02*
X174319673Y-81072814D01*
X174319673Y-81072814D02*
X174272054Y-81263290D01*
X174272054Y-81263290D02*
X174272054Y-81406147D01*
X174272054Y-81406147D02*
X174319673Y-81596623D01*
X174319673Y-81596623D02*
X174367292Y-81691861D01*
X174367292Y-81691861D02*
X174462530Y-81787100D01*
X174462530Y-81787100D02*
X174605387Y-81834719D01*
X174605387Y-81834719D02*
X174700625Y-81834719D01*
X174700625Y-81834719D02*
X174843482Y-81787100D01*
X174843482Y-81787100D02*
X174891101Y-81739480D01*
X174891101Y-81739480D02*
X174891101Y-81406147D01*
X174891101Y-81406147D02*
X174700625Y-81406147D01*
X175319673Y-81834719D02*
X175319673Y-80834719D01*
X175319673Y-80834719D02*
X175891101Y-81834719D01*
X175891101Y-81834719D02*
X175891101Y-80834719D01*
X176367292Y-81834719D02*
X176367292Y-80834719D01*
X176367292Y-80834719D02*
X176605387Y-80834719D01*
X176605387Y-80834719D02*
X176748244Y-80882338D01*
X176748244Y-80882338D02*
X176843482Y-80977576D01*
X176843482Y-80977576D02*
X176891101Y-81072814D01*
X176891101Y-81072814D02*
X176938720Y-81263290D01*
X176938720Y-81263290D02*
X176938720Y-81406147D01*
X176938720Y-81406147D02*
X176891101Y-81596623D01*
X176891101Y-81596623D02*
X176843482Y-81691861D01*
X176843482Y-81691861D02*
X176748244Y-81787100D01*
X176748244Y-81787100D02*
X176605387Y-81834719D01*
X176605387Y-81834719D02*
X176367292Y-81834719D01*
X175293482Y-69914838D02*
X175198244Y-69867219D01*
X175198244Y-69867219D02*
X175055387Y-69867219D01*
X175055387Y-69867219D02*
X174912530Y-69914838D01*
X174912530Y-69914838D02*
X174817292Y-70010076D01*
X174817292Y-70010076D02*
X174769673Y-70105314D01*
X174769673Y-70105314D02*
X174722054Y-70295790D01*
X174722054Y-70295790D02*
X174722054Y-70438647D01*
X174722054Y-70438647D02*
X174769673Y-70629123D01*
X174769673Y-70629123D02*
X174817292Y-70724361D01*
X174817292Y-70724361D02*
X174912530Y-70819600D01*
X174912530Y-70819600D02*
X175055387Y-70867219D01*
X175055387Y-70867219D02*
X175150625Y-70867219D01*
X175150625Y-70867219D02*
X175293482Y-70819600D01*
X175293482Y-70819600D02*
X175341101Y-70771980D01*
X175341101Y-70771980D02*
X175341101Y-70438647D01*
X175341101Y-70438647D02*
X175150625Y-70438647D01*
X175769673Y-70867219D02*
X175769673Y-69867219D01*
X175769673Y-69867219D02*
X176341101Y-70867219D01*
X176341101Y-70867219D02*
X176341101Y-69867219D01*
X176817292Y-70867219D02*
X176817292Y-69867219D01*
X176817292Y-69867219D02*
X177055387Y-69867219D01*
X177055387Y-69867219D02*
X177198244Y-69914838D01*
X177198244Y-69914838D02*
X177293482Y-70010076D01*
X177293482Y-70010076D02*
X177341101Y-70105314D01*
X177341101Y-70105314D02*
X177388720Y-70295790D01*
X177388720Y-70295790D02*
X177388720Y-70438647D01*
X177388720Y-70438647D02*
X177341101Y-70629123D01*
X177341101Y-70629123D02*
X177293482Y-70724361D01*
X177293482Y-70724361D02*
X177198244Y-70819600D01*
X177198244Y-70819600D02*
X177055387Y-70867219D01*
X177055387Y-70867219D02*
X176817292Y-70867219D01*
X168067219Y-103230326D02*
X167067219Y-103230326D01*
X167067219Y-103230326D02*
X167781504Y-102896993D01*
X167781504Y-102896993D02*
X167067219Y-102563660D01*
X167067219Y-102563660D02*
X168067219Y-102563660D01*
X167781504Y-102135088D02*
X167781504Y-101658898D01*
X168067219Y-102230326D02*
X167067219Y-101896993D01*
X167067219Y-101896993D02*
X168067219Y-101563660D01*
X168019600Y-101277945D02*
X168067219Y-101135088D01*
X168067219Y-101135088D02*
X168067219Y-100896993D01*
X168067219Y-100896993D02*
X168019600Y-100801755D01*
X168019600Y-100801755D02*
X167971980Y-100754136D01*
X167971980Y-100754136D02*
X167876742Y-100706517D01*
X167876742Y-100706517D02*
X167781504Y-100706517D01*
X167781504Y-100706517D02*
X167686266Y-100754136D01*
X167686266Y-100754136D02*
X167638647Y-100801755D01*
X167638647Y-100801755D02*
X167591028Y-100896993D01*
X167591028Y-100896993D02*
X167543409Y-101087469D01*
X167543409Y-101087469D02*
X167495790Y-101182707D01*
X167495790Y-101182707D02*
X167448171Y-101230326D01*
X167448171Y-101230326D02*
X167352933Y-101277945D01*
X167352933Y-101277945D02*
X167257695Y-101277945D01*
X167257695Y-101277945D02*
X167162457Y-101230326D01*
X167162457Y-101230326D02*
X167114838Y-101182707D01*
X167114838Y-101182707D02*
X167067219Y-101087469D01*
X167067219Y-101087469D02*
X167067219Y-100849374D01*
X167067219Y-100849374D02*
X167114838Y-100706517D01*
X167067219Y-100420802D02*
X167067219Y-99849374D01*
X168067219Y-100135088D02*
X167067219Y-100135088D01*
X168162457Y-99754136D02*
X168162457Y-98992231D01*
X167781504Y-98801754D02*
X167781504Y-98325564D01*
X168067219Y-98896992D02*
X167067219Y-98563659D01*
X167067219Y-98563659D02*
X168067219Y-98230326D01*
X195286266Y-84630326D02*
X195286266Y-83868422D01*
X195667219Y-84249374D02*
X194905314Y-84249374D01*
X194667219Y-83487469D02*
X194667219Y-82868422D01*
X194667219Y-82868422D02*
X195048171Y-83201755D01*
X195048171Y-83201755D02*
X195048171Y-83058898D01*
X195048171Y-83058898D02*
X195095790Y-82963660D01*
X195095790Y-82963660D02*
X195143409Y-82916041D01*
X195143409Y-82916041D02*
X195238647Y-82868422D01*
X195238647Y-82868422D02*
X195476742Y-82868422D01*
X195476742Y-82868422D02*
X195571980Y-82916041D01*
X195571980Y-82916041D02*
X195619600Y-82963660D01*
X195619600Y-82963660D02*
X195667219Y-83058898D01*
X195667219Y-83058898D02*
X195667219Y-83344612D01*
X195667219Y-83344612D02*
X195619600Y-83439850D01*
X195619600Y-83439850D02*
X195571980Y-83487469D01*
X194667219Y-82582707D02*
X195667219Y-82249374D01*
X195667219Y-82249374D02*
X194667219Y-81916041D01*
X194667219Y-81677945D02*
X194667219Y-81058898D01*
X194667219Y-81058898D02*
X195048171Y-81392231D01*
X195048171Y-81392231D02*
X195048171Y-81249374D01*
X195048171Y-81249374D02*
X195095790Y-81154136D01*
X195095790Y-81154136D02*
X195143409Y-81106517D01*
X195143409Y-81106517D02*
X195238647Y-81058898D01*
X195238647Y-81058898D02*
X195476742Y-81058898D01*
X195476742Y-81058898D02*
X195571980Y-81106517D01*
X195571980Y-81106517D02*
X195619600Y-81154136D01*
X195619600Y-81154136D02*
X195667219Y-81249374D01*
X195667219Y-81249374D02*
X195667219Y-81535088D01*
X195667219Y-81535088D02*
X195619600Y-81630326D01*
X195619600Y-81630326D02*
X195571980Y-81677945D01*
X180932780Y-98569673D02*
X181932780Y-98569673D01*
X181932780Y-98569673D02*
X181218495Y-98903006D01*
X181218495Y-98903006D02*
X181932780Y-99236339D01*
X181932780Y-99236339D02*
X180932780Y-99236339D01*
X181218495Y-99664911D02*
X181218495Y-100141101D01*
X180932780Y-99569673D02*
X181932780Y-99903006D01*
X181932780Y-99903006D02*
X180932780Y-100236339D01*
X180980400Y-100522054D02*
X180932780Y-100664911D01*
X180932780Y-100664911D02*
X180932780Y-100903006D01*
X180932780Y-100903006D02*
X180980400Y-100998244D01*
X180980400Y-100998244D02*
X181028019Y-101045863D01*
X181028019Y-101045863D02*
X181123257Y-101093482D01*
X181123257Y-101093482D02*
X181218495Y-101093482D01*
X181218495Y-101093482D02*
X181313733Y-101045863D01*
X181313733Y-101045863D02*
X181361352Y-100998244D01*
X181361352Y-100998244D02*
X181408971Y-100903006D01*
X181408971Y-100903006D02*
X181456590Y-100712530D01*
X181456590Y-100712530D02*
X181504209Y-100617292D01*
X181504209Y-100617292D02*
X181551828Y-100569673D01*
X181551828Y-100569673D02*
X181647066Y-100522054D01*
X181647066Y-100522054D02*
X181742304Y-100522054D01*
X181742304Y-100522054D02*
X181837542Y-100569673D01*
X181837542Y-100569673D02*
X181885161Y-100617292D01*
X181885161Y-100617292D02*
X181932780Y-100712530D01*
X181932780Y-100712530D02*
X181932780Y-100950625D01*
X181932780Y-100950625D02*
X181885161Y-101093482D01*
X181932780Y-101379197D02*
X181932780Y-101950625D01*
X180932780Y-101664911D02*
X181932780Y-101664911D01*
X180837542Y-102045864D02*
X180837542Y-102807768D01*
X181456590Y-103379197D02*
X181408971Y-103522054D01*
X181408971Y-103522054D02*
X181361352Y-103569673D01*
X181361352Y-103569673D02*
X181266114Y-103617292D01*
X181266114Y-103617292D02*
X181123257Y-103617292D01*
X181123257Y-103617292D02*
X181028019Y-103569673D01*
X181028019Y-103569673D02*
X180980400Y-103522054D01*
X180980400Y-103522054D02*
X180932780Y-103426816D01*
X180932780Y-103426816D02*
X180932780Y-103045864D01*
X180932780Y-103045864D02*
X181932780Y-103045864D01*
X181932780Y-103045864D02*
X181932780Y-103379197D01*
X181932780Y-103379197D02*
X181885161Y-103474435D01*
X181885161Y-103474435D02*
X181837542Y-103522054D01*
X181837542Y-103522054D02*
X181742304Y-103569673D01*
X181742304Y-103569673D02*
X181647066Y-103569673D01*
X181647066Y-103569673D02*
X181551828Y-103522054D01*
X181551828Y-103522054D02*
X181504209Y-103474435D01*
X181504209Y-103474435D02*
X181456590Y-103379197D01*
X181456590Y-103379197D02*
X181456590Y-103045864D01*
X184122173Y-101007275D02*
X184122173Y-100007275D01*
X184122173Y-100007275D02*
X184455506Y-100721560D01*
X184455506Y-100721560D02*
X184788839Y-100007275D01*
X184788839Y-100007275D02*
X184788839Y-101007275D01*
X185836458Y-100912036D02*
X185788839Y-100959656D01*
X185788839Y-100959656D02*
X185645982Y-101007275D01*
X185645982Y-101007275D02*
X185550744Y-101007275D01*
X185550744Y-101007275D02*
X185407887Y-100959656D01*
X185407887Y-100959656D02*
X185312649Y-100864417D01*
X185312649Y-100864417D02*
X185265030Y-100769179D01*
X185265030Y-100769179D02*
X185217411Y-100578703D01*
X185217411Y-100578703D02*
X185217411Y-100435846D01*
X185217411Y-100435846D02*
X185265030Y-100245370D01*
X185265030Y-100245370D02*
X185312649Y-100150132D01*
X185312649Y-100150132D02*
X185407887Y-100054894D01*
X185407887Y-100054894D02*
X185550744Y-100007275D01*
X185550744Y-100007275D02*
X185645982Y-100007275D01*
X185645982Y-100007275D02*
X185788839Y-100054894D01*
X185788839Y-100054894D02*
X185836458Y-100102513D01*
X186265030Y-100007275D02*
X186265030Y-100816798D01*
X186265030Y-100816798D02*
X186312649Y-100912036D01*
X186312649Y-100912036D02*
X186360268Y-100959656D01*
X186360268Y-100959656D02*
X186455506Y-101007275D01*
X186455506Y-101007275D02*
X186645982Y-101007275D01*
X186645982Y-101007275D02*
X186741220Y-100959656D01*
X186741220Y-100959656D02*
X186788839Y-100912036D01*
X186788839Y-100912036D02*
X186836458Y-100816798D01*
X186836458Y-100816798D02*
X186836458Y-100007275D01*
X187074554Y-101102513D02*
X187836458Y-101102513D01*
X188074554Y-101007275D02*
X188074554Y-100007275D01*
X188074554Y-100007275D02*
X188312649Y-100007275D01*
X188312649Y-100007275D02*
X188455506Y-100054894D01*
X188455506Y-100054894D02*
X188550744Y-100150132D01*
X188550744Y-100150132D02*
X188598363Y-100245370D01*
X188598363Y-100245370D02*
X188645982Y-100435846D01*
X188645982Y-100435846D02*
X188645982Y-100578703D01*
X188645982Y-100578703D02*
X188598363Y-100769179D01*
X188598363Y-100769179D02*
X188550744Y-100864417D01*
X188550744Y-100864417D02*
X188455506Y-100959656D01*
X188455506Y-100959656D02*
X188312649Y-101007275D01*
X188312649Y-101007275D02*
X188074554Y-101007275D01*
X189026935Y-100721560D02*
X189503125Y-100721560D01*
X188931697Y-101007275D02*
X189265030Y-100007275D01*
X189265030Y-100007275D02*
X189598363Y-101007275D01*
X190503125Y-100912036D02*
X190455506Y-100959656D01*
X190455506Y-100959656D02*
X190312649Y-101007275D01*
X190312649Y-101007275D02*
X190217411Y-101007275D01*
X190217411Y-101007275D02*
X190074554Y-100959656D01*
X190074554Y-100959656D02*
X189979316Y-100864417D01*
X189979316Y-100864417D02*
X189931697Y-100769179D01*
X189931697Y-100769179D02*
X189884078Y-100578703D01*
X189884078Y-100578703D02*
X189884078Y-100435846D01*
X189884078Y-100435846D02*
X189931697Y-100245370D01*
X189931697Y-100245370D02*
X189979316Y-100150132D01*
X189979316Y-100150132D02*
X190074554Y-100054894D01*
X190074554Y-100054894D02*
X190217411Y-100007275D01*
X190217411Y-100007275D02*
X190312649Y-100007275D01*
X190312649Y-100007275D02*
X190455506Y-100054894D01*
X190455506Y-100054894D02*
X190503125Y-100102513D01*
X184407887Y-102998171D02*
X184360268Y-102950552D01*
X184360268Y-102950552D02*
X184265030Y-102807695D01*
X184265030Y-102807695D02*
X184217411Y-102712457D01*
X184217411Y-102712457D02*
X184169792Y-102569600D01*
X184169792Y-102569600D02*
X184122173Y-102331504D01*
X184122173Y-102331504D02*
X184122173Y-102141028D01*
X184122173Y-102141028D02*
X184169792Y-101902933D01*
X184169792Y-101902933D02*
X184217411Y-101760076D01*
X184217411Y-101760076D02*
X184265030Y-101664838D01*
X184265030Y-101664838D02*
X184360268Y-101521980D01*
X184360268Y-101521980D02*
X184407887Y-101474361D01*
X184979316Y-101617219D02*
X185074554Y-101617219D01*
X185074554Y-101617219D02*
X185169792Y-101664838D01*
X185169792Y-101664838D02*
X185217411Y-101712457D01*
X185217411Y-101712457D02*
X185265030Y-101807695D01*
X185265030Y-101807695D02*
X185312649Y-101998171D01*
X185312649Y-101998171D02*
X185312649Y-102236266D01*
X185312649Y-102236266D02*
X185265030Y-102426742D01*
X185265030Y-102426742D02*
X185217411Y-102521980D01*
X185217411Y-102521980D02*
X185169792Y-102569600D01*
X185169792Y-102569600D02*
X185074554Y-102617219D01*
X185074554Y-102617219D02*
X184979316Y-102617219D01*
X184979316Y-102617219D02*
X184884078Y-102569600D01*
X184884078Y-102569600D02*
X184836459Y-102521980D01*
X184836459Y-102521980D02*
X184788840Y-102426742D01*
X184788840Y-102426742D02*
X184741221Y-102236266D01*
X184741221Y-102236266D02*
X184741221Y-101998171D01*
X184741221Y-101998171D02*
X184788840Y-101807695D01*
X184788840Y-101807695D02*
X184836459Y-101712457D01*
X184836459Y-101712457D02*
X184884078Y-101664838D01*
X184884078Y-101664838D02*
X184979316Y-101617219D01*
X185741221Y-102521980D02*
X185788840Y-102569600D01*
X185788840Y-102569600D02*
X185741221Y-102617219D01*
X185741221Y-102617219D02*
X185693602Y-102569600D01*
X185693602Y-102569600D02*
X185741221Y-102521980D01*
X185741221Y-102521980D02*
X185741221Y-102617219D01*
X186407887Y-101617219D02*
X186503125Y-101617219D01*
X186503125Y-101617219D02*
X186598363Y-101664838D01*
X186598363Y-101664838D02*
X186645982Y-101712457D01*
X186645982Y-101712457D02*
X186693601Y-101807695D01*
X186693601Y-101807695D02*
X186741220Y-101998171D01*
X186741220Y-101998171D02*
X186741220Y-102236266D01*
X186741220Y-102236266D02*
X186693601Y-102426742D01*
X186693601Y-102426742D02*
X186645982Y-102521980D01*
X186645982Y-102521980D02*
X186598363Y-102569600D01*
X186598363Y-102569600D02*
X186503125Y-102617219D01*
X186503125Y-102617219D02*
X186407887Y-102617219D01*
X186407887Y-102617219D02*
X186312649Y-102569600D01*
X186312649Y-102569600D02*
X186265030Y-102521980D01*
X186265030Y-102521980D02*
X186217411Y-102426742D01*
X186217411Y-102426742D02*
X186169792Y-102236266D01*
X186169792Y-102236266D02*
X186169792Y-101998171D01*
X186169792Y-101998171D02*
X186217411Y-101807695D01*
X186217411Y-101807695D02*
X186265030Y-101712457D01*
X186265030Y-101712457D02*
X186312649Y-101664838D01*
X186312649Y-101664838D02*
X186407887Y-101617219D01*
X187169792Y-102236266D02*
X187931697Y-102236266D01*
X188312649Y-101617219D02*
X188931696Y-101617219D01*
X188931696Y-101617219D02*
X188598363Y-101998171D01*
X188598363Y-101998171D02*
X188741220Y-101998171D01*
X188741220Y-101998171D02*
X188836458Y-102045790D01*
X188836458Y-102045790D02*
X188884077Y-102093409D01*
X188884077Y-102093409D02*
X188931696Y-102188647D01*
X188931696Y-102188647D02*
X188931696Y-102426742D01*
X188931696Y-102426742D02*
X188884077Y-102521980D01*
X188884077Y-102521980D02*
X188836458Y-102569600D01*
X188836458Y-102569600D02*
X188741220Y-102617219D01*
X188741220Y-102617219D02*
X188455506Y-102617219D01*
X188455506Y-102617219D02*
X188360268Y-102569600D01*
X188360268Y-102569600D02*
X188312649Y-102521980D01*
X189360268Y-102521980D02*
X189407887Y-102569600D01*
X189407887Y-102569600D02*
X189360268Y-102617219D01*
X189360268Y-102617219D02*
X189312649Y-102569600D01*
X189312649Y-102569600D02*
X189360268Y-102521980D01*
X189360268Y-102521980D02*
X189360268Y-102617219D01*
X189741220Y-101617219D02*
X190360267Y-101617219D01*
X190360267Y-101617219D02*
X190026934Y-101998171D01*
X190026934Y-101998171D02*
X190169791Y-101998171D01*
X190169791Y-101998171D02*
X190265029Y-102045790D01*
X190265029Y-102045790D02*
X190312648Y-102093409D01*
X190312648Y-102093409D02*
X190360267Y-102188647D01*
X190360267Y-102188647D02*
X190360267Y-102426742D01*
X190360267Y-102426742D02*
X190312648Y-102521980D01*
X190312648Y-102521980D02*
X190265029Y-102569600D01*
X190265029Y-102569600D02*
X190169791Y-102617219D01*
X190169791Y-102617219D02*
X189884077Y-102617219D01*
X189884077Y-102617219D02*
X189788839Y-102569600D01*
X189788839Y-102569600D02*
X189741220Y-102521980D01*
X190645982Y-101617219D02*
X190979315Y-102617219D01*
X190979315Y-102617219D02*
X191312648Y-101617219D01*
X191550744Y-102998171D02*
X191598363Y-102950552D01*
X191598363Y-102950552D02*
X191693601Y-102807695D01*
X191693601Y-102807695D02*
X191741220Y-102712457D01*
X191741220Y-102712457D02*
X191788839Y-102569600D01*
X191788839Y-102569600D02*
X191836458Y-102331504D01*
X191836458Y-102331504D02*
X191836458Y-102141028D01*
X191836458Y-102141028D02*
X191788839Y-101902933D01*
X191788839Y-101902933D02*
X191741220Y-101760076D01*
X191741220Y-101760076D02*
X191693601Y-101664838D01*
X191693601Y-101664838D02*
X191598363Y-101521980D01*
X191598363Y-101521980D02*
X191550744Y-101474361D01*
X179319673Y-81453766D02*
X180081578Y-81453766D01*
X179700625Y-81834719D02*
X179700625Y-81072814D01*
X181081577Y-81834719D02*
X180510149Y-81834719D01*
X180795863Y-81834719D02*
X180795863Y-80834719D01*
X180795863Y-80834719D02*
X180700625Y-80977576D01*
X180700625Y-80977576D02*
X180605387Y-81072814D01*
X180605387Y-81072814D02*
X180510149Y-81120433D01*
X181986339Y-80834719D02*
X181510149Y-80834719D01*
X181510149Y-80834719D02*
X181462530Y-81310909D01*
X181462530Y-81310909D02*
X181510149Y-81263290D01*
X181510149Y-81263290D02*
X181605387Y-81215671D01*
X181605387Y-81215671D02*
X181843482Y-81215671D01*
X181843482Y-81215671D02*
X181938720Y-81263290D01*
X181938720Y-81263290D02*
X181986339Y-81310909D01*
X181986339Y-81310909D02*
X182033958Y-81406147D01*
X182033958Y-81406147D02*
X182033958Y-81644242D01*
X182033958Y-81644242D02*
X181986339Y-81739480D01*
X181986339Y-81739480D02*
X181938720Y-81787100D01*
X181938720Y-81787100D02*
X181843482Y-81834719D01*
X181843482Y-81834719D02*
X181605387Y-81834719D01*
X181605387Y-81834719D02*
X181510149Y-81787100D01*
X181510149Y-81787100D02*
X181462530Y-81739480D01*
X182319673Y-80834719D02*
X182653006Y-81834719D01*
X182653006Y-81834719D02*
X182986339Y-80834719D01*
X162693482Y-69714838D02*
X162598244Y-69667219D01*
X162598244Y-69667219D02*
X162455387Y-69667219D01*
X162455387Y-69667219D02*
X162312530Y-69714838D01*
X162312530Y-69714838D02*
X162217292Y-69810076D01*
X162217292Y-69810076D02*
X162169673Y-69905314D01*
X162169673Y-69905314D02*
X162122054Y-70095790D01*
X162122054Y-70095790D02*
X162122054Y-70238647D01*
X162122054Y-70238647D02*
X162169673Y-70429123D01*
X162169673Y-70429123D02*
X162217292Y-70524361D01*
X162217292Y-70524361D02*
X162312530Y-70619600D01*
X162312530Y-70619600D02*
X162455387Y-70667219D01*
X162455387Y-70667219D02*
X162550625Y-70667219D01*
X162550625Y-70667219D02*
X162693482Y-70619600D01*
X162693482Y-70619600D02*
X162741101Y-70571980D01*
X162741101Y-70571980D02*
X162741101Y-70238647D01*
X162741101Y-70238647D02*
X162550625Y-70238647D01*
X163169673Y-70667219D02*
X163169673Y-69667219D01*
X163169673Y-69667219D02*
X163741101Y-70667219D01*
X163741101Y-70667219D02*
X163741101Y-69667219D01*
X164217292Y-70667219D02*
X164217292Y-69667219D01*
X164217292Y-69667219D02*
X164455387Y-69667219D01*
X164455387Y-69667219D02*
X164598244Y-69714838D01*
X164598244Y-69714838D02*
X164693482Y-69810076D01*
X164693482Y-69810076D02*
X164741101Y-69905314D01*
X164741101Y-69905314D02*
X164788720Y-70095790D01*
X164788720Y-70095790D02*
X164788720Y-70238647D01*
X164788720Y-70238647D02*
X164741101Y-70429123D01*
X164741101Y-70429123D02*
X164693482Y-70524361D01*
X164693482Y-70524361D02*
X164598244Y-70619600D01*
X164598244Y-70619600D02*
X164455387Y-70667219D01*
X164455387Y-70667219D02*
X164217292Y-70667219D01*
X189445982Y-95064838D02*
X189350744Y-95017219D01*
X189350744Y-95017219D02*
X189207887Y-95017219D01*
X189207887Y-95017219D02*
X189065030Y-95064838D01*
X189065030Y-95064838D02*
X188969792Y-95160076D01*
X188969792Y-95160076D02*
X188922173Y-95255314D01*
X188922173Y-95255314D02*
X188874554Y-95445790D01*
X188874554Y-95445790D02*
X188874554Y-95588647D01*
X188874554Y-95588647D02*
X188922173Y-95779123D01*
X188922173Y-95779123D02*
X188969792Y-95874361D01*
X188969792Y-95874361D02*
X189065030Y-95969600D01*
X189065030Y-95969600D02*
X189207887Y-96017219D01*
X189207887Y-96017219D02*
X189303125Y-96017219D01*
X189303125Y-96017219D02*
X189445982Y-95969600D01*
X189445982Y-95969600D02*
X189493601Y-95921980D01*
X189493601Y-95921980D02*
X189493601Y-95588647D01*
X189493601Y-95588647D02*
X189303125Y-95588647D01*
X189922173Y-96017219D02*
X189922173Y-95017219D01*
X189922173Y-95017219D02*
X190493601Y-96017219D01*
X190493601Y-96017219D02*
X190493601Y-95017219D01*
X190969792Y-96017219D02*
X190969792Y-95017219D01*
X190969792Y-95017219D02*
X191207887Y-95017219D01*
X191207887Y-95017219D02*
X191350744Y-95064838D01*
X191350744Y-95064838D02*
X191445982Y-95160076D01*
X191445982Y-95160076D02*
X191493601Y-95255314D01*
X191493601Y-95255314D02*
X191541220Y-95445790D01*
X191541220Y-95445790D02*
X191541220Y-95588647D01*
X191541220Y-95588647D02*
X191493601Y-95779123D01*
X191493601Y-95779123D02*
X191445982Y-95874361D01*
X191445982Y-95874361D02*
X191350744Y-95969600D01*
X191350744Y-95969600D02*
X191207887Y-96017219D01*
X191207887Y-96017219D02*
X190969792Y-96017219D01*
X167169673Y-70286266D02*
X167931578Y-70286266D01*
X167550625Y-70667219D02*
X167550625Y-69905314D01*
X168931577Y-70667219D02*
X168360149Y-70667219D01*
X168645863Y-70667219D02*
X168645863Y-69667219D01*
X168645863Y-69667219D02*
X168550625Y-69810076D01*
X168550625Y-69810076D02*
X168455387Y-69905314D01*
X168455387Y-69905314D02*
X168360149Y-69952933D01*
X169836339Y-69667219D02*
X169360149Y-69667219D01*
X169360149Y-69667219D02*
X169312530Y-70143409D01*
X169312530Y-70143409D02*
X169360149Y-70095790D01*
X169360149Y-70095790D02*
X169455387Y-70048171D01*
X169455387Y-70048171D02*
X169693482Y-70048171D01*
X169693482Y-70048171D02*
X169788720Y-70095790D01*
X169788720Y-70095790D02*
X169836339Y-70143409D01*
X169836339Y-70143409D02*
X169883958Y-70238647D01*
X169883958Y-70238647D02*
X169883958Y-70476742D01*
X169883958Y-70476742D02*
X169836339Y-70571980D01*
X169836339Y-70571980D02*
X169788720Y-70619600D01*
X169788720Y-70619600D02*
X169693482Y-70667219D01*
X169693482Y-70667219D02*
X169455387Y-70667219D01*
X169455387Y-70667219D02*
X169360149Y-70619600D01*
X169360149Y-70619600D02*
X169312530Y-70571980D01*
X170169673Y-69667219D02*
X170503006Y-70667219D01*
X170503006Y-70667219D02*
X170836339Y-69667219D01*
X160719673Y-81453766D02*
X161481578Y-81453766D01*
X162481577Y-81834719D02*
X161910149Y-81834719D01*
X162195863Y-81834719D02*
X162195863Y-80834719D01*
X162195863Y-80834719D02*
X162100625Y-80977576D01*
X162100625Y-80977576D02*
X162005387Y-81072814D01*
X162005387Y-81072814D02*
X161910149Y-81120433D01*
X163386339Y-80834719D02*
X162910149Y-80834719D01*
X162910149Y-80834719D02*
X162862530Y-81310909D01*
X162862530Y-81310909D02*
X162910149Y-81263290D01*
X162910149Y-81263290D02*
X163005387Y-81215671D01*
X163005387Y-81215671D02*
X163243482Y-81215671D01*
X163243482Y-81215671D02*
X163338720Y-81263290D01*
X163338720Y-81263290D02*
X163386339Y-81310909D01*
X163386339Y-81310909D02*
X163433958Y-81406147D01*
X163433958Y-81406147D02*
X163433958Y-81644242D01*
X163433958Y-81644242D02*
X163386339Y-81739480D01*
X163386339Y-81739480D02*
X163338720Y-81787100D01*
X163338720Y-81787100D02*
X163243482Y-81834719D01*
X163243482Y-81834719D02*
X163005387Y-81834719D01*
X163005387Y-81834719D02*
X162910149Y-81787100D01*
X162910149Y-81787100D02*
X162862530Y-81739480D01*
X163719673Y-80834719D02*
X164053006Y-81834719D01*
X164053006Y-81834719D02*
X164386339Y-80834719D01*
X189914838Y-83306517D02*
X189867219Y-83401755D01*
X189867219Y-83401755D02*
X189867219Y-83544612D01*
X189867219Y-83544612D02*
X189914838Y-83687469D01*
X189914838Y-83687469D02*
X190010076Y-83782707D01*
X190010076Y-83782707D02*
X190105314Y-83830326D01*
X190105314Y-83830326D02*
X190295790Y-83877945D01*
X190295790Y-83877945D02*
X190438647Y-83877945D01*
X190438647Y-83877945D02*
X190629123Y-83830326D01*
X190629123Y-83830326D02*
X190724361Y-83782707D01*
X190724361Y-83782707D02*
X190819600Y-83687469D01*
X190819600Y-83687469D02*
X190867219Y-83544612D01*
X190867219Y-83544612D02*
X190867219Y-83449374D01*
X190867219Y-83449374D02*
X190819600Y-83306517D01*
X190819600Y-83306517D02*
X190771980Y-83258898D01*
X190771980Y-83258898D02*
X190438647Y-83258898D01*
X190438647Y-83258898D02*
X190438647Y-83449374D01*
X190867219Y-82830326D02*
X189867219Y-82830326D01*
X189867219Y-82830326D02*
X190867219Y-82258898D01*
X190867219Y-82258898D02*
X189867219Y-82258898D01*
X190867219Y-81782707D02*
X189867219Y-81782707D01*
X189867219Y-81782707D02*
X189867219Y-81544612D01*
X189867219Y-81544612D02*
X189914838Y-81401755D01*
X189914838Y-81401755D02*
X190010076Y-81306517D01*
X190010076Y-81306517D02*
X190105314Y-81258898D01*
X190105314Y-81258898D02*
X190295790Y-81211279D01*
X190295790Y-81211279D02*
X190438647Y-81211279D01*
X190438647Y-81211279D02*
X190629123Y-81258898D01*
X190629123Y-81258898D02*
X190724361Y-81306517D01*
X190724361Y-81306517D02*
X190819600Y-81401755D01*
X190819600Y-81401755D02*
X190867219Y-81544612D01*
X190867219Y-81544612D02*
X190867219Y-81782707D01*
X179169673Y-70486266D02*
X179931578Y-70486266D01*
X179550625Y-70867219D02*
X179550625Y-70105314D01*
X180931577Y-70867219D02*
X180360149Y-70867219D01*
X180645863Y-70867219D02*
X180645863Y-69867219D01*
X180645863Y-69867219D02*
X180550625Y-70010076D01*
X180550625Y-70010076D02*
X180455387Y-70105314D01*
X180455387Y-70105314D02*
X180360149Y-70152933D01*
X181836339Y-69867219D02*
X181360149Y-69867219D01*
X181360149Y-69867219D02*
X181312530Y-70343409D01*
X181312530Y-70343409D02*
X181360149Y-70295790D01*
X181360149Y-70295790D02*
X181455387Y-70248171D01*
X181455387Y-70248171D02*
X181693482Y-70248171D01*
X181693482Y-70248171D02*
X181788720Y-70295790D01*
X181788720Y-70295790D02*
X181836339Y-70343409D01*
X181836339Y-70343409D02*
X181883958Y-70438647D01*
X181883958Y-70438647D02*
X181883958Y-70676742D01*
X181883958Y-70676742D02*
X181836339Y-70771980D01*
X181836339Y-70771980D02*
X181788720Y-70819600D01*
X181788720Y-70819600D02*
X181693482Y-70867219D01*
X181693482Y-70867219D02*
X181455387Y-70867219D01*
X181455387Y-70867219D02*
X181360149Y-70819600D01*
X181360149Y-70819600D02*
X181312530Y-70771980D01*
X182169673Y-69867219D02*
X182503006Y-70867219D01*
X182503006Y-70867219D02*
X182836339Y-69867219D01*
D11*
X199054819Y-98733333D02*
X199769104Y-98733333D01*
X199769104Y-98733333D02*
X199911961Y-98780952D01*
X199911961Y-98780952D02*
X200007200Y-98876190D01*
X200007200Y-98876190D02*
X200054819Y-99019047D01*
X200054819Y-99019047D02*
X200054819Y-99114285D01*
X199054819Y-97780952D02*
X199054819Y-98257142D01*
X199054819Y-98257142D02*
X199531009Y-98304761D01*
X199531009Y-98304761D02*
X199483390Y-98257142D01*
X199483390Y-98257142D02*
X199435771Y-98161904D01*
X199435771Y-98161904D02*
X199435771Y-97923809D01*
X199435771Y-97923809D02*
X199483390Y-97828571D01*
X199483390Y-97828571D02*
X199531009Y-97780952D01*
X199531009Y-97780952D02*
X199626247Y-97733333D01*
X199626247Y-97733333D02*
X199864342Y-97733333D01*
X199864342Y-97733333D02*
X199959580Y-97780952D01*
X199959580Y-97780952D02*
X200007200Y-97828571D01*
X200007200Y-97828571D02*
X200054819Y-97923809D01*
X200054819Y-97923809D02*
X200054819Y-98161904D01*
X200054819Y-98161904D02*
X200007200Y-98257142D01*
X200007200Y-98257142D02*
X199959580Y-98304761D01*
X194959580Y-102538095D02*
X195007200Y-102585714D01*
X195007200Y-102585714D02*
X195054819Y-102728571D01*
X195054819Y-102728571D02*
X195054819Y-102823809D01*
X195054819Y-102823809D02*
X195007200Y-102966666D01*
X195007200Y-102966666D02*
X194911961Y-103061904D01*
X194911961Y-103061904D02*
X194816723Y-103109523D01*
X194816723Y-103109523D02*
X194626247Y-103157142D01*
X194626247Y-103157142D02*
X194483390Y-103157142D01*
X194483390Y-103157142D02*
X194292914Y-103109523D01*
X194292914Y-103109523D02*
X194197676Y-103061904D01*
X194197676Y-103061904D02*
X194102438Y-102966666D01*
X194102438Y-102966666D02*
X194054819Y-102823809D01*
X194054819Y-102823809D02*
X194054819Y-102728571D01*
X194054819Y-102728571D02*
X194102438Y-102585714D01*
X194102438Y-102585714D02*
X194150057Y-102538095D01*
X195054819Y-101966666D02*
X195007200Y-102061904D01*
X195007200Y-102061904D02*
X194959580Y-102109523D01*
X194959580Y-102109523D02*
X194864342Y-102157142D01*
X194864342Y-102157142D02*
X194578628Y-102157142D01*
X194578628Y-102157142D02*
X194483390Y-102109523D01*
X194483390Y-102109523D02*
X194435771Y-102061904D01*
X194435771Y-102061904D02*
X194388152Y-101966666D01*
X194388152Y-101966666D02*
X194388152Y-101823809D01*
X194388152Y-101823809D02*
X194435771Y-101728571D01*
X194435771Y-101728571D02*
X194483390Y-101680952D01*
X194483390Y-101680952D02*
X194578628Y-101633333D01*
X194578628Y-101633333D02*
X194864342Y-101633333D01*
X194864342Y-101633333D02*
X194959580Y-101680952D01*
X194959580Y-101680952D02*
X195007200Y-101728571D01*
X195007200Y-101728571D02*
X195054819Y-101823809D01*
X195054819Y-101823809D02*
X195054819Y-101966666D01*
X194388152Y-101204761D02*
X195054819Y-101204761D01*
X194483390Y-101204761D02*
X194435771Y-101157142D01*
X194435771Y-101157142D02*
X194388152Y-101061904D01*
X194388152Y-101061904D02*
X194388152Y-100919047D01*
X194388152Y-100919047D02*
X194435771Y-100823809D01*
X194435771Y-100823809D02*
X194531009Y-100776190D01*
X194531009Y-100776190D02*
X195054819Y-100776190D01*
X194388152Y-100299999D02*
X195054819Y-100299999D01*
X194483390Y-100299999D02*
X194435771Y-100252380D01*
X194435771Y-100252380D02*
X194388152Y-100157142D01*
X194388152Y-100157142D02*
X194388152Y-100014285D01*
X194388152Y-100014285D02*
X194435771Y-99919047D01*
X194435771Y-99919047D02*
X194531009Y-99871428D01*
X194531009Y-99871428D02*
X195054819Y-99871428D01*
X195150057Y-99633333D02*
X195150057Y-98871428D01*
X194054819Y-98442856D02*
X194054819Y-98347618D01*
X194054819Y-98347618D02*
X194102438Y-98252380D01*
X194102438Y-98252380D02*
X194150057Y-98204761D01*
X194150057Y-98204761D02*
X194245295Y-98157142D01*
X194245295Y-98157142D02*
X194435771Y-98109523D01*
X194435771Y-98109523D02*
X194673866Y-98109523D01*
X194673866Y-98109523D02*
X194864342Y-98157142D01*
X194864342Y-98157142D02*
X194959580Y-98204761D01*
X194959580Y-98204761D02*
X195007200Y-98252380D01*
X195007200Y-98252380D02*
X195054819Y-98347618D01*
X195054819Y-98347618D02*
X195054819Y-98442856D01*
X195054819Y-98442856D02*
X195007200Y-98538094D01*
X195007200Y-98538094D02*
X194959580Y-98585713D01*
X194959580Y-98585713D02*
X194864342Y-98633332D01*
X194864342Y-98633332D02*
X194673866Y-98680951D01*
X194673866Y-98680951D02*
X194435771Y-98680951D01*
X194435771Y-98680951D02*
X194245295Y-98633332D01*
X194245295Y-98633332D02*
X194150057Y-98585713D01*
X194150057Y-98585713D02*
X194102438Y-98538094D01*
X194102438Y-98538094D02*
X194054819Y-98442856D01*
X195054819Y-97157142D02*
X195054819Y-97728570D01*
X195054819Y-97442856D02*
X194054819Y-97442856D01*
X194054819Y-97442856D02*
X194197676Y-97538094D01*
X194197676Y-97538094D02*
X194292914Y-97633332D01*
X194292914Y-97633332D02*
X194340533Y-97728570D01*
X195054819Y-96823808D02*
X194388152Y-96299999D01*
X194388152Y-96823808D02*
X195054819Y-96299999D01*
X194054819Y-95728570D02*
X194054819Y-95633332D01*
X194054819Y-95633332D02*
X194102438Y-95538094D01*
X194102438Y-95538094D02*
X194150057Y-95490475D01*
X194150057Y-95490475D02*
X194245295Y-95442856D01*
X194245295Y-95442856D02*
X194435771Y-95395237D01*
X194435771Y-95395237D02*
X194673866Y-95395237D01*
X194673866Y-95395237D02*
X194864342Y-95442856D01*
X194864342Y-95442856D02*
X194959580Y-95490475D01*
X194959580Y-95490475D02*
X195007200Y-95538094D01*
X195007200Y-95538094D02*
X195054819Y-95633332D01*
X195054819Y-95633332D02*
X195054819Y-95728570D01*
X195054819Y-95728570D02*
X195007200Y-95823808D01*
X195007200Y-95823808D02*
X194959580Y-95871427D01*
X194959580Y-95871427D02*
X194864342Y-95919046D01*
X194864342Y-95919046D02*
X194673866Y-95966665D01*
X194673866Y-95966665D02*
X194435771Y-95966665D01*
X194435771Y-95966665D02*
X194245295Y-95919046D01*
X194245295Y-95919046D02*
X194150057Y-95871427D01*
X194150057Y-95871427D02*
X194102438Y-95823808D01*
X194102438Y-95823808D02*
X194054819Y-95728570D01*
X194150057Y-95014284D02*
X194102438Y-94966665D01*
X194102438Y-94966665D02*
X194054819Y-94871427D01*
X194054819Y-94871427D02*
X194054819Y-94633332D01*
X194054819Y-94633332D02*
X194102438Y-94538094D01*
X194102438Y-94538094D02*
X194150057Y-94490475D01*
X194150057Y-94490475D02*
X194245295Y-94442856D01*
X194245295Y-94442856D02*
X194340533Y-94442856D01*
X194340533Y-94442856D02*
X194483390Y-94490475D01*
X194483390Y-94490475D02*
X195054819Y-95061903D01*
X195054819Y-95061903D02*
X195054819Y-94442856D01*
X183009580Y-85366666D02*
X183057200Y-85414285D01*
X183057200Y-85414285D02*
X183104819Y-85557142D01*
X183104819Y-85557142D02*
X183104819Y-85652380D01*
X183104819Y-85652380D02*
X183057200Y-85795237D01*
X183057200Y-85795237D02*
X182961961Y-85890475D01*
X182961961Y-85890475D02*
X182866723Y-85938094D01*
X182866723Y-85938094D02*
X182676247Y-85985713D01*
X182676247Y-85985713D02*
X182533390Y-85985713D01*
X182533390Y-85985713D02*
X182342914Y-85938094D01*
X182342914Y-85938094D02*
X182247676Y-85890475D01*
X182247676Y-85890475D02*
X182152438Y-85795237D01*
X182152438Y-85795237D02*
X182104819Y-85652380D01*
X182104819Y-85652380D02*
X182104819Y-85557142D01*
X182104819Y-85557142D02*
X182152438Y-85414285D01*
X182152438Y-85414285D02*
X182200057Y-85366666D01*
X183104819Y-84414285D02*
X183104819Y-84985713D01*
X183104819Y-84699999D02*
X182104819Y-84699999D01*
X182104819Y-84699999D02*
X182247676Y-84795237D01*
X182247676Y-84795237D02*
X182342914Y-84890475D01*
X182342914Y-84890475D02*
X182390533Y-84985713D01*
X188204819Y-85795238D02*
X188204819Y-86366666D01*
X188204819Y-86080952D02*
X187204819Y-86080952D01*
X187204819Y-86080952D02*
X187347676Y-86176190D01*
X187347676Y-86176190D02*
X187442914Y-86271428D01*
X187442914Y-86271428D02*
X187490533Y-86366666D01*
X187538152Y-84938095D02*
X188204819Y-84938095D01*
X187538152Y-85366666D02*
X188061961Y-85366666D01*
X188061961Y-85366666D02*
X188157200Y-85319047D01*
X188157200Y-85319047D02*
X188204819Y-85223809D01*
X188204819Y-85223809D02*
X188204819Y-85080952D01*
X188204819Y-85080952D02*
X188157200Y-84985714D01*
X188157200Y-84985714D02*
X188109580Y-84938095D01*
X187681009Y-84128571D02*
X187681009Y-84461904D01*
X188204819Y-84461904D02*
X187204819Y-84461904D01*
X187204819Y-84461904D02*
X187204819Y-83985714D01*
X192416666Y-72654819D02*
X192416666Y-73369104D01*
X192416666Y-73369104D02*
X192369047Y-73511961D01*
X192369047Y-73511961D02*
X192273809Y-73607200D01*
X192273809Y-73607200D02*
X192130952Y-73654819D01*
X192130952Y-73654819D02*
X192035714Y-73654819D01*
X193321428Y-72988152D02*
X193321428Y-73654819D01*
X193083333Y-72607200D02*
X192845238Y-73321485D01*
X192845238Y-73321485D02*
X193464285Y-73321485D01*
X188661904Y-78959580D02*
X188614285Y-79007200D01*
X188614285Y-79007200D02*
X188471428Y-79054819D01*
X188471428Y-79054819D02*
X188376190Y-79054819D01*
X188376190Y-79054819D02*
X188233333Y-79007200D01*
X188233333Y-79007200D02*
X188138095Y-78911961D01*
X188138095Y-78911961D02*
X188090476Y-78816723D01*
X188090476Y-78816723D02*
X188042857Y-78626247D01*
X188042857Y-78626247D02*
X188042857Y-78483390D01*
X188042857Y-78483390D02*
X188090476Y-78292914D01*
X188090476Y-78292914D02*
X188138095Y-78197676D01*
X188138095Y-78197676D02*
X188233333Y-78102438D01*
X188233333Y-78102438D02*
X188376190Y-78054819D01*
X188376190Y-78054819D02*
X188471428Y-78054819D01*
X188471428Y-78054819D02*
X188614285Y-78102438D01*
X188614285Y-78102438D02*
X188661904Y-78150057D01*
X189233333Y-79054819D02*
X189138095Y-79007200D01*
X189138095Y-79007200D02*
X189090476Y-78959580D01*
X189090476Y-78959580D02*
X189042857Y-78864342D01*
X189042857Y-78864342D02*
X189042857Y-78578628D01*
X189042857Y-78578628D02*
X189090476Y-78483390D01*
X189090476Y-78483390D02*
X189138095Y-78435771D01*
X189138095Y-78435771D02*
X189233333Y-78388152D01*
X189233333Y-78388152D02*
X189376190Y-78388152D01*
X189376190Y-78388152D02*
X189471428Y-78435771D01*
X189471428Y-78435771D02*
X189519047Y-78483390D01*
X189519047Y-78483390D02*
X189566666Y-78578628D01*
X189566666Y-78578628D02*
X189566666Y-78864342D01*
X189566666Y-78864342D02*
X189519047Y-78959580D01*
X189519047Y-78959580D02*
X189471428Y-79007200D01*
X189471428Y-79007200D02*
X189376190Y-79054819D01*
X189376190Y-79054819D02*
X189233333Y-79054819D01*
X189995238Y-78388152D02*
X189995238Y-79054819D01*
X189995238Y-78483390D02*
X190042857Y-78435771D01*
X190042857Y-78435771D02*
X190138095Y-78388152D01*
X190138095Y-78388152D02*
X190280952Y-78388152D01*
X190280952Y-78388152D02*
X190376190Y-78435771D01*
X190376190Y-78435771D02*
X190423809Y-78531009D01*
X190423809Y-78531009D02*
X190423809Y-79054819D01*
X190900000Y-78388152D02*
X190900000Y-79054819D01*
X190900000Y-78483390D02*
X190947619Y-78435771D01*
X190947619Y-78435771D02*
X191042857Y-78388152D01*
X191042857Y-78388152D02*
X191185714Y-78388152D01*
X191185714Y-78388152D02*
X191280952Y-78435771D01*
X191280952Y-78435771D02*
X191328571Y-78531009D01*
X191328571Y-78531009D02*
X191328571Y-79054819D01*
X191566667Y-79150057D02*
X192328571Y-79150057D01*
X192757143Y-78054819D02*
X192852381Y-78054819D01*
X192852381Y-78054819D02*
X192947619Y-78102438D01*
X192947619Y-78102438D02*
X192995238Y-78150057D01*
X192995238Y-78150057D02*
X193042857Y-78245295D01*
X193042857Y-78245295D02*
X193090476Y-78435771D01*
X193090476Y-78435771D02*
X193090476Y-78673866D01*
X193090476Y-78673866D02*
X193042857Y-78864342D01*
X193042857Y-78864342D02*
X192995238Y-78959580D01*
X192995238Y-78959580D02*
X192947619Y-79007200D01*
X192947619Y-79007200D02*
X192852381Y-79054819D01*
X192852381Y-79054819D02*
X192757143Y-79054819D01*
X192757143Y-79054819D02*
X192661905Y-79007200D01*
X192661905Y-79007200D02*
X192614286Y-78959580D01*
X192614286Y-78959580D02*
X192566667Y-78864342D01*
X192566667Y-78864342D02*
X192519048Y-78673866D01*
X192519048Y-78673866D02*
X192519048Y-78435771D01*
X192519048Y-78435771D02*
X192566667Y-78245295D01*
X192566667Y-78245295D02*
X192614286Y-78150057D01*
X192614286Y-78150057D02*
X192661905Y-78102438D01*
X192661905Y-78102438D02*
X192757143Y-78054819D01*
X194042857Y-79054819D02*
X193471429Y-79054819D01*
X193757143Y-79054819D02*
X193757143Y-78054819D01*
X193757143Y-78054819D02*
X193661905Y-78197676D01*
X193661905Y-78197676D02*
X193566667Y-78292914D01*
X193566667Y-78292914D02*
X193471429Y-78340533D01*
X194376191Y-79054819D02*
X194900000Y-78388152D01*
X194376191Y-78388152D02*
X194900000Y-79054819D01*
X195471429Y-78054819D02*
X195566667Y-78054819D01*
X195566667Y-78054819D02*
X195661905Y-78102438D01*
X195661905Y-78102438D02*
X195709524Y-78150057D01*
X195709524Y-78150057D02*
X195757143Y-78245295D01*
X195757143Y-78245295D02*
X195804762Y-78435771D01*
X195804762Y-78435771D02*
X195804762Y-78673866D01*
X195804762Y-78673866D02*
X195757143Y-78864342D01*
X195757143Y-78864342D02*
X195709524Y-78959580D01*
X195709524Y-78959580D02*
X195661905Y-79007200D01*
X195661905Y-79007200D02*
X195566667Y-79054819D01*
X195566667Y-79054819D02*
X195471429Y-79054819D01*
X195471429Y-79054819D02*
X195376191Y-79007200D01*
X195376191Y-79007200D02*
X195328572Y-78959580D01*
X195328572Y-78959580D02*
X195280953Y-78864342D01*
X195280953Y-78864342D02*
X195233334Y-78673866D01*
X195233334Y-78673866D02*
X195233334Y-78435771D01*
X195233334Y-78435771D02*
X195280953Y-78245295D01*
X195280953Y-78245295D02*
X195328572Y-78150057D01*
X195328572Y-78150057D02*
X195376191Y-78102438D01*
X195376191Y-78102438D02*
X195471429Y-78054819D01*
X196185715Y-78150057D02*
X196233334Y-78102438D01*
X196233334Y-78102438D02*
X196328572Y-78054819D01*
X196328572Y-78054819D02*
X196566667Y-78054819D01*
X196566667Y-78054819D02*
X196661905Y-78102438D01*
X196661905Y-78102438D02*
X196709524Y-78150057D01*
X196709524Y-78150057D02*
X196757143Y-78245295D01*
X196757143Y-78245295D02*
X196757143Y-78340533D01*
X196757143Y-78340533D02*
X196709524Y-78483390D01*
X196709524Y-78483390D02*
X196138096Y-79054819D01*
X196138096Y-79054819D02*
X196757143Y-79054819D01*
X163293333Y-88054819D02*
X162960000Y-87578628D01*
X162721905Y-88054819D02*
X162721905Y-87054819D01*
X162721905Y-87054819D02*
X163102857Y-87054819D01*
X163102857Y-87054819D02*
X163198095Y-87102438D01*
X163198095Y-87102438D02*
X163245714Y-87150057D01*
X163245714Y-87150057D02*
X163293333Y-87245295D01*
X163293333Y-87245295D02*
X163293333Y-87388152D01*
X163293333Y-87388152D02*
X163245714Y-87483390D01*
X163245714Y-87483390D02*
X163198095Y-87531009D01*
X163198095Y-87531009D02*
X163102857Y-87578628D01*
X163102857Y-87578628D02*
X162721905Y-87578628D01*
X164150476Y-87388152D02*
X164150476Y-88054819D01*
X163912381Y-87007200D02*
X163674286Y-87721485D01*
X163674286Y-87721485D02*
X164293333Y-87721485D01*
X162388571Y-89974819D02*
X161817143Y-89974819D01*
X162102857Y-89974819D02*
X162102857Y-88974819D01*
X162102857Y-88974819D02*
X162007619Y-89117676D01*
X162007619Y-89117676D02*
X161912381Y-89212914D01*
X161912381Y-89212914D02*
X161817143Y-89260533D01*
X163007619Y-88974819D02*
X163102857Y-88974819D01*
X163102857Y-88974819D02*
X163198095Y-89022438D01*
X163198095Y-89022438D02*
X163245714Y-89070057D01*
X163245714Y-89070057D02*
X163293333Y-89165295D01*
X163293333Y-89165295D02*
X163340952Y-89355771D01*
X163340952Y-89355771D02*
X163340952Y-89593866D01*
X163340952Y-89593866D02*
X163293333Y-89784342D01*
X163293333Y-89784342D02*
X163245714Y-89879580D01*
X163245714Y-89879580D02*
X163198095Y-89927200D01*
X163198095Y-89927200D02*
X163102857Y-89974819D01*
X163102857Y-89974819D02*
X163007619Y-89974819D01*
X163007619Y-89974819D02*
X162912381Y-89927200D01*
X162912381Y-89927200D02*
X162864762Y-89879580D01*
X162864762Y-89879580D02*
X162817143Y-89784342D01*
X162817143Y-89784342D02*
X162769524Y-89593866D01*
X162769524Y-89593866D02*
X162769524Y-89355771D01*
X162769524Y-89355771D02*
X162817143Y-89165295D01*
X162817143Y-89165295D02*
X162864762Y-89070057D01*
X162864762Y-89070057D02*
X162912381Y-89022438D01*
X162912381Y-89022438D02*
X163007619Y-88974819D01*
X163960000Y-88974819D02*
X164055238Y-88974819D01*
X164055238Y-88974819D02*
X164150476Y-89022438D01*
X164150476Y-89022438D02*
X164198095Y-89070057D01*
X164198095Y-89070057D02*
X164245714Y-89165295D01*
X164245714Y-89165295D02*
X164293333Y-89355771D01*
X164293333Y-89355771D02*
X164293333Y-89593866D01*
X164293333Y-89593866D02*
X164245714Y-89784342D01*
X164245714Y-89784342D02*
X164198095Y-89879580D01*
X164198095Y-89879580D02*
X164150476Y-89927200D01*
X164150476Y-89927200D02*
X164055238Y-89974819D01*
X164055238Y-89974819D02*
X163960000Y-89974819D01*
X163960000Y-89974819D02*
X163864762Y-89927200D01*
X163864762Y-89927200D02*
X163817143Y-89879580D01*
X163817143Y-89879580D02*
X163769524Y-89784342D01*
X163769524Y-89784342D02*
X163721905Y-89593866D01*
X163721905Y-89593866D02*
X163721905Y-89355771D01*
X163721905Y-89355771D02*
X163769524Y-89165295D01*
X163769524Y-89165295D02*
X163817143Y-89070057D01*
X163817143Y-89070057D02*
X163864762Y-89022438D01*
X163864762Y-89022438D02*
X163960000Y-88974819D01*
X164721905Y-89974819D02*
X164721905Y-88974819D01*
X164817143Y-89593866D02*
X165102857Y-89974819D01*
X165102857Y-89308152D02*
X164721905Y-89689104D01*
X174316666Y-102854819D02*
X174316666Y-103569104D01*
X174316666Y-103569104D02*
X174269047Y-103711961D01*
X174269047Y-103711961D02*
X174173809Y-103807200D01*
X174173809Y-103807200D02*
X174030952Y-103854819D01*
X174030952Y-103854819D02*
X173935714Y-103854819D01*
X174697619Y-102854819D02*
X175316666Y-102854819D01*
X175316666Y-102854819D02*
X174983333Y-103235771D01*
X174983333Y-103235771D02*
X175126190Y-103235771D01*
X175126190Y-103235771D02*
X175221428Y-103283390D01*
X175221428Y-103283390D02*
X175269047Y-103331009D01*
X175269047Y-103331009D02*
X175316666Y-103426247D01*
X175316666Y-103426247D02*
X175316666Y-103664342D01*
X175316666Y-103664342D02*
X175269047Y-103759580D01*
X175269047Y-103759580D02*
X175221428Y-103807200D01*
X175221428Y-103807200D02*
X175126190Y-103854819D01*
X175126190Y-103854819D02*
X174840476Y-103854819D01*
X174840476Y-103854819D02*
X174745238Y-103807200D01*
X174745238Y-103807200D02*
X174697619Y-103759580D01*
X170861904Y-98559580D02*
X170814285Y-98607200D01*
X170814285Y-98607200D02*
X170671428Y-98654819D01*
X170671428Y-98654819D02*
X170576190Y-98654819D01*
X170576190Y-98654819D02*
X170433333Y-98607200D01*
X170433333Y-98607200D02*
X170338095Y-98511961D01*
X170338095Y-98511961D02*
X170290476Y-98416723D01*
X170290476Y-98416723D02*
X170242857Y-98226247D01*
X170242857Y-98226247D02*
X170242857Y-98083390D01*
X170242857Y-98083390D02*
X170290476Y-97892914D01*
X170290476Y-97892914D02*
X170338095Y-97797676D01*
X170338095Y-97797676D02*
X170433333Y-97702438D01*
X170433333Y-97702438D02*
X170576190Y-97654819D01*
X170576190Y-97654819D02*
X170671428Y-97654819D01*
X170671428Y-97654819D02*
X170814285Y-97702438D01*
X170814285Y-97702438D02*
X170861904Y-97750057D01*
X171433333Y-98654819D02*
X171338095Y-98607200D01*
X171338095Y-98607200D02*
X171290476Y-98559580D01*
X171290476Y-98559580D02*
X171242857Y-98464342D01*
X171242857Y-98464342D02*
X171242857Y-98178628D01*
X171242857Y-98178628D02*
X171290476Y-98083390D01*
X171290476Y-98083390D02*
X171338095Y-98035771D01*
X171338095Y-98035771D02*
X171433333Y-97988152D01*
X171433333Y-97988152D02*
X171576190Y-97988152D01*
X171576190Y-97988152D02*
X171671428Y-98035771D01*
X171671428Y-98035771D02*
X171719047Y-98083390D01*
X171719047Y-98083390D02*
X171766666Y-98178628D01*
X171766666Y-98178628D02*
X171766666Y-98464342D01*
X171766666Y-98464342D02*
X171719047Y-98559580D01*
X171719047Y-98559580D02*
X171671428Y-98607200D01*
X171671428Y-98607200D02*
X171576190Y-98654819D01*
X171576190Y-98654819D02*
X171433333Y-98654819D01*
X172195238Y-97988152D02*
X172195238Y-98654819D01*
X172195238Y-98083390D02*
X172242857Y-98035771D01*
X172242857Y-98035771D02*
X172338095Y-97988152D01*
X172338095Y-97988152D02*
X172480952Y-97988152D01*
X172480952Y-97988152D02*
X172576190Y-98035771D01*
X172576190Y-98035771D02*
X172623809Y-98131009D01*
X172623809Y-98131009D02*
X172623809Y-98654819D01*
X173100000Y-97988152D02*
X173100000Y-98654819D01*
X173100000Y-98083390D02*
X173147619Y-98035771D01*
X173147619Y-98035771D02*
X173242857Y-97988152D01*
X173242857Y-97988152D02*
X173385714Y-97988152D01*
X173385714Y-97988152D02*
X173480952Y-98035771D01*
X173480952Y-98035771D02*
X173528571Y-98131009D01*
X173528571Y-98131009D02*
X173528571Y-98654819D01*
X173766667Y-98750057D02*
X174528571Y-98750057D01*
X174957143Y-97654819D02*
X175052381Y-97654819D01*
X175052381Y-97654819D02*
X175147619Y-97702438D01*
X175147619Y-97702438D02*
X175195238Y-97750057D01*
X175195238Y-97750057D02*
X175242857Y-97845295D01*
X175242857Y-97845295D02*
X175290476Y-98035771D01*
X175290476Y-98035771D02*
X175290476Y-98273866D01*
X175290476Y-98273866D02*
X175242857Y-98464342D01*
X175242857Y-98464342D02*
X175195238Y-98559580D01*
X175195238Y-98559580D02*
X175147619Y-98607200D01*
X175147619Y-98607200D02*
X175052381Y-98654819D01*
X175052381Y-98654819D02*
X174957143Y-98654819D01*
X174957143Y-98654819D02*
X174861905Y-98607200D01*
X174861905Y-98607200D02*
X174814286Y-98559580D01*
X174814286Y-98559580D02*
X174766667Y-98464342D01*
X174766667Y-98464342D02*
X174719048Y-98273866D01*
X174719048Y-98273866D02*
X174719048Y-98035771D01*
X174719048Y-98035771D02*
X174766667Y-97845295D01*
X174766667Y-97845295D02*
X174814286Y-97750057D01*
X174814286Y-97750057D02*
X174861905Y-97702438D01*
X174861905Y-97702438D02*
X174957143Y-97654819D01*
X176242857Y-98654819D02*
X175671429Y-98654819D01*
X175957143Y-98654819D02*
X175957143Y-97654819D01*
X175957143Y-97654819D02*
X175861905Y-97797676D01*
X175861905Y-97797676D02*
X175766667Y-97892914D01*
X175766667Y-97892914D02*
X175671429Y-97940533D01*
X176576191Y-98654819D02*
X177100000Y-97988152D01*
X176576191Y-97988152D02*
X177100000Y-98654819D01*
X177671429Y-97654819D02*
X177766667Y-97654819D01*
X177766667Y-97654819D02*
X177861905Y-97702438D01*
X177861905Y-97702438D02*
X177909524Y-97750057D01*
X177909524Y-97750057D02*
X177957143Y-97845295D01*
X177957143Y-97845295D02*
X178004762Y-98035771D01*
X178004762Y-98035771D02*
X178004762Y-98273866D01*
X178004762Y-98273866D02*
X177957143Y-98464342D01*
X177957143Y-98464342D02*
X177909524Y-98559580D01*
X177909524Y-98559580D02*
X177861905Y-98607200D01*
X177861905Y-98607200D02*
X177766667Y-98654819D01*
X177766667Y-98654819D02*
X177671429Y-98654819D01*
X177671429Y-98654819D02*
X177576191Y-98607200D01*
X177576191Y-98607200D02*
X177528572Y-98559580D01*
X177528572Y-98559580D02*
X177480953Y-98464342D01*
X177480953Y-98464342D02*
X177433334Y-98273866D01*
X177433334Y-98273866D02*
X177433334Y-98035771D01*
X177433334Y-98035771D02*
X177480953Y-97845295D01*
X177480953Y-97845295D02*
X177528572Y-97750057D01*
X177528572Y-97750057D02*
X177576191Y-97702438D01*
X177576191Y-97702438D02*
X177671429Y-97654819D01*
X178385715Y-97750057D02*
X178433334Y-97702438D01*
X178433334Y-97702438D02*
X178528572Y-97654819D01*
X178528572Y-97654819D02*
X178766667Y-97654819D01*
X178766667Y-97654819D02*
X178861905Y-97702438D01*
X178861905Y-97702438D02*
X178909524Y-97750057D01*
X178909524Y-97750057D02*
X178957143Y-97845295D01*
X178957143Y-97845295D02*
X178957143Y-97940533D01*
X178957143Y-97940533D02*
X178909524Y-98083390D01*
X178909524Y-98083390D02*
X178338096Y-98654819D01*
X178338096Y-98654819D02*
X178957143Y-98654819D01*
X173964819Y-89531904D02*
X174774342Y-89531904D01*
X174774342Y-89531904D02*
X174869580Y-89484285D01*
X174869580Y-89484285D02*
X174917200Y-89436666D01*
X174917200Y-89436666D02*
X174964819Y-89341428D01*
X174964819Y-89341428D02*
X174964819Y-89150952D01*
X174964819Y-89150952D02*
X174917200Y-89055714D01*
X174917200Y-89055714D02*
X174869580Y-89008095D01*
X174869580Y-89008095D02*
X174774342Y-88960476D01*
X174774342Y-88960476D02*
X173964819Y-88960476D01*
X174964819Y-87960476D02*
X174964819Y-88531904D01*
X174964819Y-88246190D02*
X173964819Y-88246190D01*
X173964819Y-88246190D02*
X174107676Y-88341428D01*
X174107676Y-88341428D02*
X174202914Y-88436666D01*
X174202914Y-88436666D02*
X174250533Y-88531904D01*
X172390952Y-94364819D02*
X172962380Y-94364819D01*
X172676666Y-95364819D02*
X172676666Y-94364819D01*
X173771904Y-95364819D02*
X173295714Y-95364819D01*
X173295714Y-95364819D02*
X173295714Y-94364819D01*
X174295714Y-94364819D02*
X174390952Y-94364819D01*
X174390952Y-94364819D02*
X174486190Y-94412438D01*
X174486190Y-94412438D02*
X174533809Y-94460057D01*
X174533809Y-94460057D02*
X174581428Y-94555295D01*
X174581428Y-94555295D02*
X174629047Y-94745771D01*
X174629047Y-94745771D02*
X174629047Y-94983866D01*
X174629047Y-94983866D02*
X174581428Y-95174342D01*
X174581428Y-95174342D02*
X174533809Y-95269580D01*
X174533809Y-95269580D02*
X174486190Y-95317200D01*
X174486190Y-95317200D02*
X174390952Y-95364819D01*
X174390952Y-95364819D02*
X174295714Y-95364819D01*
X174295714Y-95364819D02*
X174200476Y-95317200D01*
X174200476Y-95317200D02*
X174152857Y-95269580D01*
X174152857Y-95269580D02*
X174105238Y-95174342D01*
X174105238Y-95174342D02*
X174057619Y-94983866D01*
X174057619Y-94983866D02*
X174057619Y-94745771D01*
X174057619Y-94745771D02*
X174105238Y-94555295D01*
X174105238Y-94555295D02*
X174152857Y-94460057D01*
X174152857Y-94460057D02*
X174200476Y-94412438D01*
X174200476Y-94412438D02*
X174295714Y-94364819D01*
X175200476Y-94793390D02*
X175105238Y-94745771D01*
X175105238Y-94745771D02*
X175057619Y-94698152D01*
X175057619Y-94698152D02*
X175010000Y-94602914D01*
X175010000Y-94602914D02*
X175010000Y-94555295D01*
X175010000Y-94555295D02*
X175057619Y-94460057D01*
X175057619Y-94460057D02*
X175105238Y-94412438D01*
X175105238Y-94412438D02*
X175200476Y-94364819D01*
X175200476Y-94364819D02*
X175390952Y-94364819D01*
X175390952Y-94364819D02*
X175486190Y-94412438D01*
X175486190Y-94412438D02*
X175533809Y-94460057D01*
X175533809Y-94460057D02*
X175581428Y-94555295D01*
X175581428Y-94555295D02*
X175581428Y-94602914D01*
X175581428Y-94602914D02*
X175533809Y-94698152D01*
X175533809Y-94698152D02*
X175486190Y-94745771D01*
X175486190Y-94745771D02*
X175390952Y-94793390D01*
X175390952Y-94793390D02*
X175200476Y-94793390D01*
X175200476Y-94793390D02*
X175105238Y-94841009D01*
X175105238Y-94841009D02*
X175057619Y-94888628D01*
X175057619Y-94888628D02*
X175010000Y-94983866D01*
X175010000Y-94983866D02*
X175010000Y-95174342D01*
X175010000Y-95174342D02*
X175057619Y-95269580D01*
X175057619Y-95269580D02*
X175105238Y-95317200D01*
X175105238Y-95317200D02*
X175200476Y-95364819D01*
X175200476Y-95364819D02*
X175390952Y-95364819D01*
X175390952Y-95364819D02*
X175486190Y-95317200D01*
X175486190Y-95317200D02*
X175533809Y-95269580D01*
X175533809Y-95269580D02*
X175581428Y-95174342D01*
X175581428Y-95174342D02*
X175581428Y-94983866D01*
X175581428Y-94983866D02*
X175533809Y-94888628D01*
X175533809Y-94888628D02*
X175486190Y-94841009D01*
X175486190Y-94841009D02*
X175390952Y-94793390D01*
X175962381Y-94460057D02*
X176010000Y-94412438D01*
X176010000Y-94412438D02*
X176105238Y-94364819D01*
X176105238Y-94364819D02*
X176343333Y-94364819D01*
X176343333Y-94364819D02*
X176438571Y-94412438D01*
X176438571Y-94412438D02*
X176486190Y-94460057D01*
X176486190Y-94460057D02*
X176533809Y-94555295D01*
X176533809Y-94555295D02*
X176533809Y-94650533D01*
X176533809Y-94650533D02*
X176486190Y-94793390D01*
X176486190Y-94793390D02*
X175914762Y-95364819D01*
X175914762Y-95364819D02*
X176533809Y-95364819D01*
X178466666Y-72654819D02*
X178466666Y-73369104D01*
X178466666Y-73369104D02*
X178419047Y-73511961D01*
X178419047Y-73511961D02*
X178323809Y-73607200D01*
X178323809Y-73607200D02*
X178180952Y-73654819D01*
X178180952Y-73654819D02*
X178085714Y-73654819D01*
X179466666Y-73654819D02*
X178895238Y-73654819D01*
X179180952Y-73654819D02*
X179180952Y-72654819D01*
X179180952Y-72654819D02*
X179085714Y-72797676D01*
X179085714Y-72797676D02*
X178990476Y-72892914D01*
X178990476Y-72892914D02*
X178895238Y-72940533D01*
X175061904Y-78759580D02*
X175014285Y-78807200D01*
X175014285Y-78807200D02*
X174871428Y-78854819D01*
X174871428Y-78854819D02*
X174776190Y-78854819D01*
X174776190Y-78854819D02*
X174633333Y-78807200D01*
X174633333Y-78807200D02*
X174538095Y-78711961D01*
X174538095Y-78711961D02*
X174490476Y-78616723D01*
X174490476Y-78616723D02*
X174442857Y-78426247D01*
X174442857Y-78426247D02*
X174442857Y-78283390D01*
X174442857Y-78283390D02*
X174490476Y-78092914D01*
X174490476Y-78092914D02*
X174538095Y-77997676D01*
X174538095Y-77997676D02*
X174633333Y-77902438D01*
X174633333Y-77902438D02*
X174776190Y-77854819D01*
X174776190Y-77854819D02*
X174871428Y-77854819D01*
X174871428Y-77854819D02*
X175014285Y-77902438D01*
X175014285Y-77902438D02*
X175061904Y-77950057D01*
X175633333Y-78854819D02*
X175538095Y-78807200D01*
X175538095Y-78807200D02*
X175490476Y-78759580D01*
X175490476Y-78759580D02*
X175442857Y-78664342D01*
X175442857Y-78664342D02*
X175442857Y-78378628D01*
X175442857Y-78378628D02*
X175490476Y-78283390D01*
X175490476Y-78283390D02*
X175538095Y-78235771D01*
X175538095Y-78235771D02*
X175633333Y-78188152D01*
X175633333Y-78188152D02*
X175776190Y-78188152D01*
X175776190Y-78188152D02*
X175871428Y-78235771D01*
X175871428Y-78235771D02*
X175919047Y-78283390D01*
X175919047Y-78283390D02*
X175966666Y-78378628D01*
X175966666Y-78378628D02*
X175966666Y-78664342D01*
X175966666Y-78664342D02*
X175919047Y-78759580D01*
X175919047Y-78759580D02*
X175871428Y-78807200D01*
X175871428Y-78807200D02*
X175776190Y-78854819D01*
X175776190Y-78854819D02*
X175633333Y-78854819D01*
X176395238Y-78188152D02*
X176395238Y-78854819D01*
X176395238Y-78283390D02*
X176442857Y-78235771D01*
X176442857Y-78235771D02*
X176538095Y-78188152D01*
X176538095Y-78188152D02*
X176680952Y-78188152D01*
X176680952Y-78188152D02*
X176776190Y-78235771D01*
X176776190Y-78235771D02*
X176823809Y-78331009D01*
X176823809Y-78331009D02*
X176823809Y-78854819D01*
X177300000Y-78188152D02*
X177300000Y-78854819D01*
X177300000Y-78283390D02*
X177347619Y-78235771D01*
X177347619Y-78235771D02*
X177442857Y-78188152D01*
X177442857Y-78188152D02*
X177585714Y-78188152D01*
X177585714Y-78188152D02*
X177680952Y-78235771D01*
X177680952Y-78235771D02*
X177728571Y-78331009D01*
X177728571Y-78331009D02*
X177728571Y-78854819D01*
X177966667Y-78950057D02*
X178728571Y-78950057D01*
X179157143Y-77854819D02*
X179252381Y-77854819D01*
X179252381Y-77854819D02*
X179347619Y-77902438D01*
X179347619Y-77902438D02*
X179395238Y-77950057D01*
X179395238Y-77950057D02*
X179442857Y-78045295D01*
X179442857Y-78045295D02*
X179490476Y-78235771D01*
X179490476Y-78235771D02*
X179490476Y-78473866D01*
X179490476Y-78473866D02*
X179442857Y-78664342D01*
X179442857Y-78664342D02*
X179395238Y-78759580D01*
X179395238Y-78759580D02*
X179347619Y-78807200D01*
X179347619Y-78807200D02*
X179252381Y-78854819D01*
X179252381Y-78854819D02*
X179157143Y-78854819D01*
X179157143Y-78854819D02*
X179061905Y-78807200D01*
X179061905Y-78807200D02*
X179014286Y-78759580D01*
X179014286Y-78759580D02*
X178966667Y-78664342D01*
X178966667Y-78664342D02*
X178919048Y-78473866D01*
X178919048Y-78473866D02*
X178919048Y-78235771D01*
X178919048Y-78235771D02*
X178966667Y-78045295D01*
X178966667Y-78045295D02*
X179014286Y-77950057D01*
X179014286Y-77950057D02*
X179061905Y-77902438D01*
X179061905Y-77902438D02*
X179157143Y-77854819D01*
X180442857Y-78854819D02*
X179871429Y-78854819D01*
X180157143Y-78854819D02*
X180157143Y-77854819D01*
X180157143Y-77854819D02*
X180061905Y-77997676D01*
X180061905Y-77997676D02*
X179966667Y-78092914D01*
X179966667Y-78092914D02*
X179871429Y-78140533D01*
X180776191Y-78854819D02*
X181300000Y-78188152D01*
X180776191Y-78188152D02*
X181300000Y-78854819D01*
X181871429Y-77854819D02*
X181966667Y-77854819D01*
X181966667Y-77854819D02*
X182061905Y-77902438D01*
X182061905Y-77902438D02*
X182109524Y-77950057D01*
X182109524Y-77950057D02*
X182157143Y-78045295D01*
X182157143Y-78045295D02*
X182204762Y-78235771D01*
X182204762Y-78235771D02*
X182204762Y-78473866D01*
X182204762Y-78473866D02*
X182157143Y-78664342D01*
X182157143Y-78664342D02*
X182109524Y-78759580D01*
X182109524Y-78759580D02*
X182061905Y-78807200D01*
X182061905Y-78807200D02*
X181966667Y-78854819D01*
X181966667Y-78854819D02*
X181871429Y-78854819D01*
X181871429Y-78854819D02*
X181776191Y-78807200D01*
X181776191Y-78807200D02*
X181728572Y-78759580D01*
X181728572Y-78759580D02*
X181680953Y-78664342D01*
X181680953Y-78664342D02*
X181633334Y-78473866D01*
X181633334Y-78473866D02*
X181633334Y-78235771D01*
X181633334Y-78235771D02*
X181680953Y-78045295D01*
X181680953Y-78045295D02*
X181728572Y-77950057D01*
X181728572Y-77950057D02*
X181776191Y-77902438D01*
X181776191Y-77902438D02*
X181871429Y-77854819D01*
X182585715Y-77950057D02*
X182633334Y-77902438D01*
X182633334Y-77902438D02*
X182728572Y-77854819D01*
X182728572Y-77854819D02*
X182966667Y-77854819D01*
X182966667Y-77854819D02*
X183061905Y-77902438D01*
X183061905Y-77902438D02*
X183109524Y-77950057D01*
X183109524Y-77950057D02*
X183157143Y-78045295D01*
X183157143Y-78045295D02*
X183157143Y-78140533D01*
X183157143Y-78140533D02*
X183109524Y-78283390D01*
X183109524Y-78283390D02*
X182538096Y-78854819D01*
X182538096Y-78854819D02*
X183157143Y-78854819D01*
X187654819Y-92516666D02*
X187178628Y-92849999D01*
X187654819Y-93088094D02*
X186654819Y-93088094D01*
X186654819Y-93088094D02*
X186654819Y-92707142D01*
X186654819Y-92707142D02*
X186702438Y-92611904D01*
X186702438Y-92611904D02*
X186750057Y-92564285D01*
X186750057Y-92564285D02*
X186845295Y-92516666D01*
X186845295Y-92516666D02*
X186988152Y-92516666D01*
X186988152Y-92516666D02*
X187083390Y-92564285D01*
X187083390Y-92564285D02*
X187131009Y-92611904D01*
X187131009Y-92611904D02*
X187178628Y-92707142D01*
X187178628Y-92707142D02*
X187178628Y-93088094D01*
X186750057Y-92135713D02*
X186702438Y-92088094D01*
X186702438Y-92088094D02*
X186654819Y-91992856D01*
X186654819Y-91992856D02*
X186654819Y-91754761D01*
X186654819Y-91754761D02*
X186702438Y-91659523D01*
X186702438Y-91659523D02*
X186750057Y-91611904D01*
X186750057Y-91611904D02*
X186845295Y-91564285D01*
X186845295Y-91564285D02*
X186940533Y-91564285D01*
X186940533Y-91564285D02*
X187083390Y-91611904D01*
X187083390Y-91611904D02*
X187654819Y-92183332D01*
X187654819Y-92183332D02*
X187654819Y-91564285D01*
X189574819Y-92945238D02*
X189574819Y-93516666D01*
X189574819Y-93230952D02*
X188574819Y-93230952D01*
X188574819Y-93230952D02*
X188717676Y-93326190D01*
X188717676Y-93326190D02*
X188812914Y-93421428D01*
X188812914Y-93421428D02*
X188860533Y-93516666D01*
X188574819Y-92326190D02*
X188574819Y-92230952D01*
X188574819Y-92230952D02*
X188622438Y-92135714D01*
X188622438Y-92135714D02*
X188670057Y-92088095D01*
X188670057Y-92088095D02*
X188765295Y-92040476D01*
X188765295Y-92040476D02*
X188955771Y-91992857D01*
X188955771Y-91992857D02*
X189193866Y-91992857D01*
X189193866Y-91992857D02*
X189384342Y-92040476D01*
X189384342Y-92040476D02*
X189479580Y-92088095D01*
X189479580Y-92088095D02*
X189527200Y-92135714D01*
X189527200Y-92135714D02*
X189574819Y-92230952D01*
X189574819Y-92230952D02*
X189574819Y-92326190D01*
X189574819Y-92326190D02*
X189527200Y-92421428D01*
X189527200Y-92421428D02*
X189479580Y-92469047D01*
X189479580Y-92469047D02*
X189384342Y-92516666D01*
X189384342Y-92516666D02*
X189193866Y-92564285D01*
X189193866Y-92564285D02*
X188955771Y-92564285D01*
X188955771Y-92564285D02*
X188765295Y-92516666D01*
X188765295Y-92516666D02*
X188670057Y-92469047D01*
X188670057Y-92469047D02*
X188622438Y-92421428D01*
X188622438Y-92421428D02*
X188574819Y-92326190D01*
X189574819Y-91564285D02*
X188574819Y-91564285D01*
X189193866Y-91469047D02*
X189574819Y-91183333D01*
X188908152Y-91183333D02*
X189289104Y-91564285D01*
X183604819Y-92516666D02*
X183128628Y-92849999D01*
X183604819Y-93088094D02*
X182604819Y-93088094D01*
X182604819Y-93088094D02*
X182604819Y-92707142D01*
X182604819Y-92707142D02*
X182652438Y-92611904D01*
X182652438Y-92611904D02*
X182700057Y-92564285D01*
X182700057Y-92564285D02*
X182795295Y-92516666D01*
X182795295Y-92516666D02*
X182938152Y-92516666D01*
X182938152Y-92516666D02*
X183033390Y-92564285D01*
X183033390Y-92564285D02*
X183081009Y-92611904D01*
X183081009Y-92611904D02*
X183128628Y-92707142D01*
X183128628Y-92707142D02*
X183128628Y-93088094D01*
X183604819Y-91564285D02*
X183604819Y-92135713D01*
X183604819Y-91849999D02*
X182604819Y-91849999D01*
X182604819Y-91849999D02*
X182747676Y-91945237D01*
X182747676Y-91945237D02*
X182842914Y-92040475D01*
X182842914Y-92040475D02*
X182890533Y-92135713D01*
X185524819Y-92945238D02*
X185524819Y-93516666D01*
X185524819Y-93230952D02*
X184524819Y-93230952D01*
X184524819Y-93230952D02*
X184667676Y-93326190D01*
X184667676Y-93326190D02*
X184762914Y-93421428D01*
X184762914Y-93421428D02*
X184810533Y-93516666D01*
X184524819Y-92326190D02*
X184524819Y-92230952D01*
X184524819Y-92230952D02*
X184572438Y-92135714D01*
X184572438Y-92135714D02*
X184620057Y-92088095D01*
X184620057Y-92088095D02*
X184715295Y-92040476D01*
X184715295Y-92040476D02*
X184905771Y-91992857D01*
X184905771Y-91992857D02*
X185143866Y-91992857D01*
X185143866Y-91992857D02*
X185334342Y-92040476D01*
X185334342Y-92040476D02*
X185429580Y-92088095D01*
X185429580Y-92088095D02*
X185477200Y-92135714D01*
X185477200Y-92135714D02*
X185524819Y-92230952D01*
X185524819Y-92230952D02*
X185524819Y-92326190D01*
X185524819Y-92326190D02*
X185477200Y-92421428D01*
X185477200Y-92421428D02*
X185429580Y-92469047D01*
X185429580Y-92469047D02*
X185334342Y-92516666D01*
X185334342Y-92516666D02*
X185143866Y-92564285D01*
X185143866Y-92564285D02*
X184905771Y-92564285D01*
X184905771Y-92564285D02*
X184715295Y-92516666D01*
X184715295Y-92516666D02*
X184620057Y-92469047D01*
X184620057Y-92469047D02*
X184572438Y-92421428D01*
X184572438Y-92421428D02*
X184524819Y-92326190D01*
X185524819Y-91564285D02*
X184524819Y-91564285D01*
X185143866Y-91469047D02*
X185524819Y-91183333D01*
X184858152Y-91183333D02*
X185239104Y-91564285D01*
X163433333Y-93454819D02*
X163100000Y-92978628D01*
X162861905Y-93454819D02*
X162861905Y-92454819D01*
X162861905Y-92454819D02*
X163242857Y-92454819D01*
X163242857Y-92454819D02*
X163338095Y-92502438D01*
X163338095Y-92502438D02*
X163385714Y-92550057D01*
X163385714Y-92550057D02*
X163433333Y-92645295D01*
X163433333Y-92645295D02*
X163433333Y-92788152D01*
X163433333Y-92788152D02*
X163385714Y-92883390D01*
X163385714Y-92883390D02*
X163338095Y-92931009D01*
X163338095Y-92931009D02*
X163242857Y-92978628D01*
X163242857Y-92978628D02*
X162861905Y-92978628D01*
X163766667Y-92454819D02*
X164385714Y-92454819D01*
X164385714Y-92454819D02*
X164052381Y-92835771D01*
X164052381Y-92835771D02*
X164195238Y-92835771D01*
X164195238Y-92835771D02*
X164290476Y-92883390D01*
X164290476Y-92883390D02*
X164338095Y-92931009D01*
X164338095Y-92931009D02*
X164385714Y-93026247D01*
X164385714Y-93026247D02*
X164385714Y-93264342D01*
X164385714Y-93264342D02*
X164338095Y-93359580D01*
X164338095Y-93359580D02*
X164290476Y-93407200D01*
X164290476Y-93407200D02*
X164195238Y-93454819D01*
X164195238Y-93454819D02*
X163909524Y-93454819D01*
X163909524Y-93454819D02*
X163814286Y-93407200D01*
X163814286Y-93407200D02*
X163766667Y-93359580D01*
X162885714Y-90534819D02*
X162409524Y-90534819D01*
X162409524Y-90534819D02*
X162361905Y-91011009D01*
X162361905Y-91011009D02*
X162409524Y-90963390D01*
X162409524Y-90963390D02*
X162504762Y-90915771D01*
X162504762Y-90915771D02*
X162742857Y-90915771D01*
X162742857Y-90915771D02*
X162838095Y-90963390D01*
X162838095Y-90963390D02*
X162885714Y-91011009D01*
X162885714Y-91011009D02*
X162933333Y-91106247D01*
X162933333Y-91106247D02*
X162933333Y-91344342D01*
X162933333Y-91344342D02*
X162885714Y-91439580D01*
X162885714Y-91439580D02*
X162838095Y-91487200D01*
X162838095Y-91487200D02*
X162742857Y-91534819D01*
X162742857Y-91534819D02*
X162504762Y-91534819D01*
X162504762Y-91534819D02*
X162409524Y-91487200D01*
X162409524Y-91487200D02*
X162361905Y-91439580D01*
X163838095Y-90534819D02*
X163361905Y-90534819D01*
X163361905Y-90534819D02*
X163314286Y-91011009D01*
X163314286Y-91011009D02*
X163361905Y-90963390D01*
X163361905Y-90963390D02*
X163457143Y-90915771D01*
X163457143Y-90915771D02*
X163695238Y-90915771D01*
X163695238Y-90915771D02*
X163790476Y-90963390D01*
X163790476Y-90963390D02*
X163838095Y-91011009D01*
X163838095Y-91011009D02*
X163885714Y-91106247D01*
X163885714Y-91106247D02*
X163885714Y-91344342D01*
X163885714Y-91344342D02*
X163838095Y-91439580D01*
X163838095Y-91439580D02*
X163790476Y-91487200D01*
X163790476Y-91487200D02*
X163695238Y-91534819D01*
X163695238Y-91534819D02*
X163457143Y-91534819D01*
X163457143Y-91534819D02*
X163361905Y-91487200D01*
X163361905Y-91487200D02*
X163314286Y-91439580D01*
X164504762Y-90534819D02*
X164600000Y-90534819D01*
X164600000Y-90534819D02*
X164695238Y-90582438D01*
X164695238Y-90582438D02*
X164742857Y-90630057D01*
X164742857Y-90630057D02*
X164790476Y-90725295D01*
X164790476Y-90725295D02*
X164838095Y-90915771D01*
X164838095Y-90915771D02*
X164838095Y-91153866D01*
X164838095Y-91153866D02*
X164790476Y-91344342D01*
X164790476Y-91344342D02*
X164742857Y-91439580D01*
X164742857Y-91439580D02*
X164695238Y-91487200D01*
X164695238Y-91487200D02*
X164600000Y-91534819D01*
X164600000Y-91534819D02*
X164504762Y-91534819D01*
X164504762Y-91534819D02*
X164409524Y-91487200D01*
X164409524Y-91487200D02*
X164361905Y-91439580D01*
X164361905Y-91439580D02*
X164314286Y-91344342D01*
X164314286Y-91344342D02*
X164266667Y-91153866D01*
X164266667Y-91153866D02*
X164266667Y-90915771D01*
X164266667Y-90915771D02*
X164314286Y-90725295D01*
X164314286Y-90725295D02*
X164361905Y-90630057D01*
X164361905Y-90630057D02*
X164409524Y-90582438D01*
X164409524Y-90582438D02*
X164504762Y-90534819D01*
X165866666Y-72654819D02*
X165866666Y-73369104D01*
X165866666Y-73369104D02*
X165819047Y-73511961D01*
X165819047Y-73511961D02*
X165723809Y-73607200D01*
X165723809Y-73607200D02*
X165580952Y-73654819D01*
X165580952Y-73654819D02*
X165485714Y-73654819D01*
X166295238Y-72750057D02*
X166342857Y-72702438D01*
X166342857Y-72702438D02*
X166438095Y-72654819D01*
X166438095Y-72654819D02*
X166676190Y-72654819D01*
X166676190Y-72654819D02*
X166771428Y-72702438D01*
X166771428Y-72702438D02*
X166819047Y-72750057D01*
X166819047Y-72750057D02*
X166866666Y-72845295D01*
X166866666Y-72845295D02*
X166866666Y-72940533D01*
X166866666Y-72940533D02*
X166819047Y-73083390D01*
X166819047Y-73083390D02*
X166247619Y-73654819D01*
X166247619Y-73654819D02*
X166866666Y-73654819D01*
X162411904Y-78559580D02*
X162364285Y-78607200D01*
X162364285Y-78607200D02*
X162221428Y-78654819D01*
X162221428Y-78654819D02*
X162126190Y-78654819D01*
X162126190Y-78654819D02*
X161983333Y-78607200D01*
X161983333Y-78607200D02*
X161888095Y-78511961D01*
X161888095Y-78511961D02*
X161840476Y-78416723D01*
X161840476Y-78416723D02*
X161792857Y-78226247D01*
X161792857Y-78226247D02*
X161792857Y-78083390D01*
X161792857Y-78083390D02*
X161840476Y-77892914D01*
X161840476Y-77892914D02*
X161888095Y-77797676D01*
X161888095Y-77797676D02*
X161983333Y-77702438D01*
X161983333Y-77702438D02*
X162126190Y-77654819D01*
X162126190Y-77654819D02*
X162221428Y-77654819D01*
X162221428Y-77654819D02*
X162364285Y-77702438D01*
X162364285Y-77702438D02*
X162411904Y-77750057D01*
X162983333Y-78654819D02*
X162888095Y-78607200D01*
X162888095Y-78607200D02*
X162840476Y-78559580D01*
X162840476Y-78559580D02*
X162792857Y-78464342D01*
X162792857Y-78464342D02*
X162792857Y-78178628D01*
X162792857Y-78178628D02*
X162840476Y-78083390D01*
X162840476Y-78083390D02*
X162888095Y-78035771D01*
X162888095Y-78035771D02*
X162983333Y-77988152D01*
X162983333Y-77988152D02*
X163126190Y-77988152D01*
X163126190Y-77988152D02*
X163221428Y-78035771D01*
X163221428Y-78035771D02*
X163269047Y-78083390D01*
X163269047Y-78083390D02*
X163316666Y-78178628D01*
X163316666Y-78178628D02*
X163316666Y-78464342D01*
X163316666Y-78464342D02*
X163269047Y-78559580D01*
X163269047Y-78559580D02*
X163221428Y-78607200D01*
X163221428Y-78607200D02*
X163126190Y-78654819D01*
X163126190Y-78654819D02*
X162983333Y-78654819D01*
X163745238Y-77988152D02*
X163745238Y-78654819D01*
X163745238Y-78083390D02*
X163792857Y-78035771D01*
X163792857Y-78035771D02*
X163888095Y-77988152D01*
X163888095Y-77988152D02*
X164030952Y-77988152D01*
X164030952Y-77988152D02*
X164126190Y-78035771D01*
X164126190Y-78035771D02*
X164173809Y-78131009D01*
X164173809Y-78131009D02*
X164173809Y-78654819D01*
X164650000Y-77988152D02*
X164650000Y-78654819D01*
X164650000Y-78083390D02*
X164697619Y-78035771D01*
X164697619Y-78035771D02*
X164792857Y-77988152D01*
X164792857Y-77988152D02*
X164935714Y-77988152D01*
X164935714Y-77988152D02*
X165030952Y-78035771D01*
X165030952Y-78035771D02*
X165078571Y-78131009D01*
X165078571Y-78131009D02*
X165078571Y-78654819D01*
X165316667Y-78750057D02*
X166078571Y-78750057D01*
X166507143Y-77654819D02*
X166602381Y-77654819D01*
X166602381Y-77654819D02*
X166697619Y-77702438D01*
X166697619Y-77702438D02*
X166745238Y-77750057D01*
X166745238Y-77750057D02*
X166792857Y-77845295D01*
X166792857Y-77845295D02*
X166840476Y-78035771D01*
X166840476Y-78035771D02*
X166840476Y-78273866D01*
X166840476Y-78273866D02*
X166792857Y-78464342D01*
X166792857Y-78464342D02*
X166745238Y-78559580D01*
X166745238Y-78559580D02*
X166697619Y-78607200D01*
X166697619Y-78607200D02*
X166602381Y-78654819D01*
X166602381Y-78654819D02*
X166507143Y-78654819D01*
X166507143Y-78654819D02*
X166411905Y-78607200D01*
X166411905Y-78607200D02*
X166364286Y-78559580D01*
X166364286Y-78559580D02*
X166316667Y-78464342D01*
X166316667Y-78464342D02*
X166269048Y-78273866D01*
X166269048Y-78273866D02*
X166269048Y-78035771D01*
X166269048Y-78035771D02*
X166316667Y-77845295D01*
X166316667Y-77845295D02*
X166364286Y-77750057D01*
X166364286Y-77750057D02*
X166411905Y-77702438D01*
X166411905Y-77702438D02*
X166507143Y-77654819D01*
X167792857Y-78654819D02*
X167221429Y-78654819D01*
X167507143Y-78654819D02*
X167507143Y-77654819D01*
X167507143Y-77654819D02*
X167411905Y-77797676D01*
X167411905Y-77797676D02*
X167316667Y-77892914D01*
X167316667Y-77892914D02*
X167221429Y-77940533D01*
X168126191Y-78654819D02*
X168650000Y-77988152D01*
X168126191Y-77988152D02*
X168650000Y-78654819D01*
X169221429Y-77654819D02*
X169316667Y-77654819D01*
X169316667Y-77654819D02*
X169411905Y-77702438D01*
X169411905Y-77702438D02*
X169459524Y-77750057D01*
X169459524Y-77750057D02*
X169507143Y-77845295D01*
X169507143Y-77845295D02*
X169554762Y-78035771D01*
X169554762Y-78035771D02*
X169554762Y-78273866D01*
X169554762Y-78273866D02*
X169507143Y-78464342D01*
X169507143Y-78464342D02*
X169459524Y-78559580D01*
X169459524Y-78559580D02*
X169411905Y-78607200D01*
X169411905Y-78607200D02*
X169316667Y-78654819D01*
X169316667Y-78654819D02*
X169221429Y-78654819D01*
X169221429Y-78654819D02*
X169126191Y-78607200D01*
X169126191Y-78607200D02*
X169078572Y-78559580D01*
X169078572Y-78559580D02*
X169030953Y-78464342D01*
X169030953Y-78464342D02*
X168983334Y-78273866D01*
X168983334Y-78273866D02*
X168983334Y-78035771D01*
X168983334Y-78035771D02*
X169030953Y-77845295D01*
X169030953Y-77845295D02*
X169078572Y-77750057D01*
X169078572Y-77750057D02*
X169126191Y-77702438D01*
X169126191Y-77702438D02*
X169221429Y-77654819D01*
X169935715Y-77750057D02*
X169983334Y-77702438D01*
X169983334Y-77702438D02*
X170078572Y-77654819D01*
X170078572Y-77654819D02*
X170316667Y-77654819D01*
X170316667Y-77654819D02*
X170411905Y-77702438D01*
X170411905Y-77702438D02*
X170459524Y-77750057D01*
X170459524Y-77750057D02*
X170507143Y-77845295D01*
X170507143Y-77845295D02*
X170507143Y-77940533D01*
X170507143Y-77940533D02*
X170459524Y-78083390D01*
X170459524Y-78083390D02*
X169888096Y-78654819D01*
X169888096Y-78654819D02*
X170507143Y-78654819D01*
D12*
%TO.C,J5*%
X192880000Y-92980000D02*
X200920000Y-92980000D01*
X192880000Y-103720000D02*
X192880000Y-92980000D01*
X196500000Y-93788000D02*
X196500000Y-92980000D01*
X196500000Y-98720000D02*
X196500000Y-97412000D01*
X196500000Y-103720000D02*
X196500000Y-102480000D01*
X197500000Y-93788000D02*
X197500000Y-92980000D01*
X197500000Y-98720000D02*
X197500000Y-97412000D01*
X197500000Y-103720000D02*
X197500000Y-102480000D01*
X198800000Y-95057000D02*
X198800000Y-92980000D01*
X198800000Y-98720000D02*
X198800000Y-96143000D01*
X198800000Y-103720000D02*
X198800000Y-102480000D01*
X200920000Y-92980000D02*
X200920001Y-100300000D01*
X200920000Y-103720000D02*
X192880000Y-103720000D01*
X200920001Y-100900000D02*
X200920000Y-103720000D01*
X201530000Y-101040000D02*
X200920001Y-100600000D01*
X201530000Y-100160000D01*
X201530000Y-101040000D01*
G36*
X201530000Y-101040000D02*
G01*
X200920001Y-100600000D01*
X201530000Y-100160000D01*
X201530000Y-101040000D01*
G37*
%TO.C,C1*%
X183780000Y-83180000D02*
X184501000Y-83180000D01*
X183780000Y-87220000D02*
X183780000Y-83180000D01*
X184501000Y-87220000D02*
X183780000Y-87220000D01*
X185899000Y-83180000D02*
X186620000Y-83180000D01*
X186620000Y-83180000D02*
X186620000Y-87220000D01*
X186620000Y-87220000D02*
X185899000Y-87220000D01*
%TO.C,J4*%
X187380000Y-71880000D02*
X194700000Y-71879999D01*
X187380000Y-79920000D02*
X187380000Y-71880000D01*
X188188000Y-75300000D02*
X187380000Y-75300000D01*
X188188000Y-76300000D02*
X187380000Y-76300000D01*
X189457000Y-74000000D02*
X187380000Y-74000000D01*
X193120000Y-74000000D02*
X190543000Y-74000000D01*
X193120000Y-75300000D02*
X191812000Y-75300000D01*
X193120000Y-76300000D02*
X191812000Y-76300000D01*
X195300000Y-71879999D02*
X198120000Y-71880000D01*
X198120000Y-71880000D02*
X198120000Y-79920000D01*
X198120000Y-74000000D02*
X196880000Y-74000000D01*
X198120000Y-75300000D02*
X196880000Y-75300000D01*
X198120000Y-76300000D02*
X196880000Y-76300000D01*
X198120000Y-79920000D02*
X187380000Y-79920000D01*
X195000000Y-71879999D02*
X194560000Y-71270000D01*
X195440000Y-71270000D01*
X195000000Y-71879999D01*
G36*
X195000000Y-71879999D02*
G01*
X194560000Y-71270000D01*
X195440000Y-71270000D01*
X195000000Y-71879999D01*
G37*
%TO.C,R4*%
X161540000Y-86680000D02*
X165380000Y-86680000D01*
X161540000Y-88520000D02*
X165380000Y-88520000D01*
%TO.C,J3*%
X169280000Y-96680000D02*
X180020000Y-96680000D01*
X169280000Y-100300000D02*
X170520000Y-100300000D01*
X169280000Y-101300000D02*
X170520000Y-101300000D01*
X169280000Y-102600000D02*
X170520000Y-102600000D01*
X169280000Y-104720000D02*
X169280000Y-96680000D01*
X172100000Y-104720000D02*
X169280000Y-104720000D01*
X174280000Y-100300000D02*
X175588000Y-100300000D01*
X174280000Y-101300000D02*
X175588000Y-101300000D01*
X174280000Y-102600000D02*
X176857000Y-102600000D01*
X177943000Y-102600000D02*
X180020000Y-102600000D01*
X179212000Y-100300000D02*
X180020000Y-100300000D01*
X179212000Y-101300000D02*
X180020000Y-101300000D01*
X180020000Y-96680000D02*
X180020000Y-104720000D01*
X180020000Y-104720000D02*
X172700000Y-104720000D01*
X172840000Y-105330000D02*
X171960000Y-105330000D01*
X172400000Y-104720000D01*
X172840000Y-105330000D01*
G36*
X172840000Y-105330000D02*
G01*
X171960000Y-105330000D01*
X172400000Y-104720000D01*
X172840000Y-105330000D01*
G37*
%TO.C,U1*%
X172260000Y-83630000D02*
X172260000Y-93910000D01*
X172260000Y-93910000D02*
X176760000Y-93910000D01*
X173510000Y-83630000D02*
X172260000Y-83630000D01*
X176760000Y-83630000D02*
X175510000Y-83630000D01*
X176760000Y-93910000D02*
X176760000Y-83630000D01*
X175510000Y-83630000D02*
G75*
G02*
X173510000Y-83630000I-1000000J0D01*
G01*
%TO.C,J1*%
X173380000Y-71880000D02*
X180700000Y-71879999D01*
X173380000Y-79920000D02*
X173380000Y-71880000D01*
X174188000Y-75300000D02*
X173380000Y-75300000D01*
X174188000Y-76300000D02*
X173380000Y-76300000D01*
X175457000Y-74000000D02*
X173380000Y-74000000D01*
X179120000Y-74000000D02*
X176543000Y-74000000D01*
X179120000Y-75300000D02*
X177812000Y-75300000D01*
X179120000Y-76300000D02*
X177812000Y-76300000D01*
X181300000Y-71879999D02*
X184120000Y-71880000D01*
X184120000Y-71880000D02*
X184120000Y-79920000D01*
X184120000Y-74000000D02*
X182880000Y-74000000D01*
X184120000Y-75300000D02*
X182880000Y-75300000D01*
X184120000Y-76300000D02*
X182880000Y-76300000D01*
X184120000Y-79920000D02*
X173380000Y-79920000D01*
X181000000Y-71879999D02*
X180560000Y-71270000D01*
X181440000Y-71270000D01*
X181000000Y-71879999D01*
G36*
X181000000Y-71879999D02*
G01*
X180560000Y-71270000D01*
X181440000Y-71270000D01*
X181000000Y-71879999D01*
G37*
%TO.C,R2*%
X186280000Y-94270000D02*
X186280000Y-90430000D01*
X188120000Y-94270000D02*
X188120000Y-90430000D01*
%TO.C,R1*%
X182230000Y-94270000D02*
X182230000Y-90430000D01*
X184070000Y-94270000D02*
X184070000Y-90430000D01*
%TO.C,R3*%
X165520000Y-92080000D02*
X161680000Y-92080000D01*
X165520000Y-93920000D02*
X161680000Y-93920000D01*
%TO.C,J2*%
X160780000Y-71880000D02*
X168100000Y-71879999D01*
X160780000Y-79920000D02*
X160780000Y-71880000D01*
X161588000Y-75300000D02*
X160780000Y-75300000D01*
X161588000Y-76300000D02*
X160780000Y-76300000D01*
X162857000Y-74000000D02*
X160780000Y-74000000D01*
X166520000Y-74000000D02*
X163943000Y-74000000D01*
X166520000Y-75300000D02*
X165212000Y-75300000D01*
X166520000Y-76300000D02*
X165212000Y-76300000D01*
X168700000Y-71879999D02*
X171520000Y-71880000D01*
X171520000Y-71880000D02*
X171520000Y-79920000D01*
X171520000Y-74000000D02*
X170280000Y-74000000D01*
X171520000Y-75300000D02*
X170280000Y-75300000D01*
X171520000Y-76300000D02*
X170280000Y-76300000D01*
X171520000Y-79920000D02*
X160780000Y-79920000D01*
X168400000Y-71879999D02*
X167960000Y-71270000D01*
X168840000Y-71270000D01*
X168400000Y-71879999D01*
G36*
X168400000Y-71879999D02*
G01*
X167960000Y-71270000D01*
X168840000Y-71270000D01*
X168400000Y-71879999D01*
G37*
%TD*%
M02*
