%TF.GenerationSoftware,KiCad,Pcbnew,9.0.6*%
%TF.CreationDate,2026-07-31T13:26:48+05:30*%
%TF.ProjectId,HACK_GVS,4841434b-5f47-4565-932e-6b696361645f,rev?*%
%TF.SameCoordinates,Original*%
%TF.FileFunction,Copper,L1,Top*%
%TF.FilePolarity,Positive*%
%FSLAX46Y46*%
G04 Gerber Fmt 4.6, Leading zero omitted, Abs format (unit mm)*
G04 Created by KiCad (PCBNEW 9.0.6) date 2026-07-31 13:26:48*
%MOMM*%
%LPD*%
G01*
G04 APERTURE LIST*
G04 Aperture macros list*
%AMRoundRect*
0 Rectangle with rounded corners*
0 $1 Rounding radius*
0 $2 $3 $4 $5 $6 $7 $8 $9 X,Y pos of 4 corners*
0 Add a 4 corners polygon primitive as box body*
4,1,4,$2,$3,$4,$5,$6,$7,$8,$9,$2,$3,0*
0 Add four circle primitives for the rounded corners*
1,1,$1+$1,$2,$3*
1,1,$1+$1,$4,$5*
1,1,$1+$1,$6,$7*
1,1,$1+$1,$8,$9*
0 Add four rect primitives between the rounded corners*
20,1,$1+$1,$2,$3,$4,$5,0*
20,1,$1+$1,$4,$5,$6,$7,0*
20,1,$1+$1,$6,$7,$8,$9,0*
20,1,$1+$1,$8,$9,$2,$3,0*%
G04 Aperture macros list end*
%TA.AperFunction,ComponentPad*%
%ADD10RoundRect,0.250001X1.149999X-1.149999X1.149999X1.149999X-1.149999X1.149999X-1.149999X-1.149999X0*%
%TD*%
%TA.AperFunction,ComponentPad*%
%ADD11C,2.800000*%
%TD*%
%TA.AperFunction,ComponentPad*%
%ADD12C,1.600000*%
%TD*%
%TA.AperFunction,ComponentPad*%
%ADD13RoundRect,0.250001X1.149999X1.149999X-1.149999X1.149999X-1.149999X-1.149999X1.149999X-1.149999X0*%
%TD*%
%TA.AperFunction,ComponentPad*%
%ADD14C,1.400000*%
%TD*%
%TA.AperFunction,ComponentPad*%
%ADD15RoundRect,0.250001X-1.149999X-1.149999X1.149999X-1.149999X1.149999X1.149999X-1.149999X1.149999X0*%
%TD*%
%TA.AperFunction,ComponentPad*%
%ADD16RoundRect,0.250000X-0.950000X-0.550000X0.950000X-0.550000X0.950000X0.550000X-0.950000X0.550000X0*%
%TD*%
%TA.AperFunction,ComponentPad*%
%ADD17O,2.400000X1.600000*%
%TD*%
%TA.AperFunction,Conductor*%
%ADD18C,0.200000*%
%TD*%
G04 APERTURE END LIST*
D10*
%TO.P,J5,1,Pin_1*%
%TO.N,MCU_DAC*%
X197000000Y-100600000D03*
D11*
%TO.P,J5,2,Pin_2*%
%TO.N,GND*%
X197000000Y-95600000D03*
%TD*%
D12*
%TO.P,C1,1*%
%TO.N,Net-(U1A-+)*%
X185200000Y-86450000D03*
%TO.P,C1,2*%
%TO.N,GND*%
X185200000Y-83950000D03*
%TD*%
D13*
%TO.P,J4,1,Pin_1*%
%TO.N,+3V3*%
X195000000Y-75800000D03*
D11*
%TO.P,J4,2,Pin_2*%
%TO.N,GND*%
X190000000Y-75800000D03*
%TD*%
D14*
%TO.P,R4,1*%
%TO.N,1.65V_REF*%
X160920000Y-87600000D03*
%TO.P,R4,2*%
%TO.N,MCU_DAC*%
X166000000Y-87600000D03*
%TD*%
D15*
%TO.P,J3,1,Pin_1*%
%TO.N,MAST_A*%
X172400000Y-100800000D03*
D11*
%TO.P,J3,2,Pin_2*%
%TO.N,MAST_B*%
X177400000Y-100800000D03*
%TD*%
D16*
%TO.P,U1,1*%
%TO.N,1.65V_REF*%
X170700000Y-84960000D03*
D17*
%TO.P,U1,2,-*%
X170700000Y-87500000D03*
%TO.P,U1,3,+*%
%TO.N,Net-(U1A-+)*%
X170700000Y-90040000D03*
%TO.P,U1,4,V-*%
%TO.N,-15V*%
X170700000Y-92580000D03*
%TO.P,U1,5,+*%
%TO.N,MCU_DAC*%
X178320000Y-92580000D03*
%TO.P,U1,6,-*%
%TO.N,MAST_A*%
X178320000Y-90040000D03*
%TO.P,U1,7*%
%TO.N,MAST_B*%
X178320000Y-87500000D03*
%TO.P,U1,8,V+*%
%TO.N,+15V*%
X178320000Y-84960000D03*
%TD*%
D13*
%TO.P,J1,1,Pin_1*%
%TO.N,+15V*%
X181000000Y-75800000D03*
D11*
%TO.P,J1,2,Pin_2*%
%TO.N,GND*%
X176000000Y-75800000D03*
%TD*%
D14*
%TO.P,R2,1*%
%TO.N,Net-(U1A-+)*%
X187200000Y-94890000D03*
%TO.P,R2,2*%
%TO.N,GND*%
X187200000Y-89810001D03*
%TD*%
%TO.P,R1,1*%
%TO.N,+3V3*%
X183150000Y-94890000D03*
%TO.P,R1,2*%
%TO.N,Net-(U1A-+)*%
X183150000Y-89810001D03*
%TD*%
%TO.P,R3,1*%
%TO.N,1.65V_REF*%
X166140000Y-93000000D03*
%TO.P,R3,2*%
%TO.N,MAST_A*%
X161060001Y-93000000D03*
%TD*%
D13*
%TO.P,J2,1,Pin_1*%
%TO.N,GND*%
X168400000Y-75800000D03*
D11*
%TO.P,J2,2,Pin_2*%
%TO.N,-15V*%
X163400000Y-75800000D03*
%TD*%
D18*
%TO.N,Net-(U1A-+)*%
X172202000Y-90040000D02*
X173339000Y-88902300D01*
X187200000Y-94890000D02*
X183150000Y-90840000D01*
X173339000Y-88902300D02*
X182242000Y-88902300D01*
X170700000Y-90040000D02*
X172202000Y-90040000D01*
X173339000Y-88902300D02*
X182242000Y-88902300D01*
X172202000Y-90040000D02*
X173339000Y-88902300D01*
X182242000Y-88902300D02*
X183150000Y-89810000D01*
X183150000Y-90840000D02*
X183150000Y-89810000D01*
X183150000Y-90840000D02*
X183150000Y-89810000D01*
X182242000Y-88902300D02*
X183150000Y-89810000D01*
%TO.N,MAST_A*%
X164582000Y-93000000D02*
X161060000Y-93000000D01*
X164582000Y-93000000D02*
X161060000Y-93000000D01*
X172350000Y-100768000D02*
X164582000Y-93000000D01*
%TO.N,1.65V_REF*%
X172202000Y-86461700D02*
X170700000Y-84960000D01*
X172202000Y-87500000D02*
X172202000Y-86461700D01*
X170700000Y-87500000D02*
X172202000Y-87500000D01*
X172202000Y-86461700D02*
X170700000Y-84960000D01*
X172202000Y-87500000D02*
X172202000Y-86461700D01*
%TO.N,MCU_DAC*%
X178320000Y-92580000D02*
X176818300Y-92580000D01*
X169710000Y-91310000D02*
X175548300Y-91310000D01*
X178320000Y-92580000D02*
X179821700Y-92580000D01*
X179821700Y-93049300D02*
X187372400Y-100600000D01*
X166000000Y-87600000D02*
X169710000Y-91310000D01*
X175548300Y-91310000D02*
X176818300Y-92580000D01*
X179821700Y-92580000D02*
X179821700Y-93049300D01*
X187372400Y-100600000D02*
X197000000Y-100600000D01*
%TD*%
%TA.AperFunction,Conductor*%
%TO.N,GND*%
G36*
X200004418Y-68700816D02*
G01*
X200204561Y-68715130D01*
X200222063Y-68717647D01*
X200413797Y-68759355D01*
X200430755Y-68764334D01*
X200614609Y-68832909D01*
X200630701Y-68840259D01*
X200802904Y-68934288D01*
X200817784Y-68943849D01*
X200974867Y-69061441D01*
X200988237Y-69073027D01*
X201126972Y-69211762D01*
X201138558Y-69225132D01*
X201256146Y-69382210D01*
X201265711Y-69397095D01*
X201359740Y-69569298D01*
X201367090Y-69585390D01*
X201435662Y-69769236D01*
X201440646Y-69786212D01*
X201482351Y-69977931D01*
X201484869Y-69995442D01*
X201499184Y-70195580D01*
X201499500Y-70204427D01*
X201499500Y-103595572D01*
X201499184Y-103604419D01*
X201484869Y-103804557D01*
X201482351Y-103822068D01*
X201440646Y-104013787D01*
X201435662Y-104030763D01*
X201367090Y-104214609D01*
X201359740Y-104230701D01*
X201265711Y-104402904D01*
X201256146Y-104417789D01*
X201138558Y-104574867D01*
X201126972Y-104588237D01*
X200988237Y-104726972D01*
X200974867Y-104738558D01*
X200817789Y-104856146D01*
X200802904Y-104865711D01*
X200630701Y-104959740D01*
X200614609Y-104967090D01*
X200430763Y-105035662D01*
X200413787Y-105040646D01*
X200222068Y-105082351D01*
X200204557Y-105084869D01*
X200023779Y-105097799D01*
X200004417Y-105099184D01*
X199995572Y-105099500D01*
X160804428Y-105099500D01*
X160795582Y-105099184D01*
X160773622Y-105097613D01*
X160595442Y-105084869D01*
X160577931Y-105082351D01*
X160386212Y-105040646D01*
X160369236Y-105035662D01*
X160185390Y-104967090D01*
X160169298Y-104959740D01*
X159997095Y-104865711D01*
X159982210Y-104856146D01*
X159825132Y-104738558D01*
X159811762Y-104726972D01*
X159673027Y-104588237D01*
X159661441Y-104574867D01*
X159543849Y-104417784D01*
X159534288Y-104402904D01*
X159440259Y-104230701D01*
X159432909Y-104214609D01*
X159372091Y-104051551D01*
X159364334Y-104030755D01*
X159359355Y-104013797D01*
X159317647Y-103822063D01*
X159315130Y-103804556D01*
X159300816Y-103604418D01*
X159300500Y-103595572D01*
X159300500Y-93094484D01*
X159859500Y-93094484D01*
X159889060Y-93281118D01*
X159947455Y-93460836D01*
X160004079Y-93571966D01*
X160033241Y-93629199D01*
X160144311Y-93782073D01*
X160277928Y-93915690D01*
X160430802Y-94026760D01*
X160484890Y-94054319D01*
X160599164Y-94112545D01*
X160599166Y-94112545D01*
X160599169Y-94112547D01*
X160642226Y-94126537D01*
X160778882Y-94170940D01*
X160965515Y-94200500D01*
X160965520Y-94200500D01*
X161154487Y-94200500D01*
X161341119Y-94170940D01*
X161520833Y-94112547D01*
X161689200Y-94026760D01*
X161842074Y-93915690D01*
X161975691Y-93782073D01*
X162070476Y-93651613D01*
X162125805Y-93608949D01*
X162170793Y-93600500D01*
X164281903Y-93600500D01*
X164348942Y-93620185D01*
X164369584Y-93636819D01*
X170463181Y-99730416D01*
X170496666Y-99791739D01*
X170499500Y-99818097D01*
X170499500Y-102000015D01*
X170510000Y-102102795D01*
X170510001Y-102102796D01*
X170565186Y-102269335D01*
X170565187Y-102269337D01*
X170657286Y-102418651D01*
X170657289Y-102418655D01*
X170781344Y-102542710D01*
X170781348Y-102542713D01*
X170930662Y-102634812D01*
X170930664Y-102634813D01*
X170930666Y-102634814D01*
X171097203Y-102689999D01*
X171199992Y-102700500D01*
X171199997Y-102700500D01*
X173600003Y-102700500D01*
X173600008Y-102700500D01*
X173702797Y-102689999D01*
X173869334Y-102634814D01*
X174018655Y-102542711D01*
X174142711Y-102418655D01*
X174234814Y-102269334D01*
X174289999Y-102102797D01*
X174300500Y-102000008D01*
X174300500Y-100675441D01*
X175499500Y-100675441D01*
X175499500Y-100924558D01*
X175499501Y-100924575D01*
X175530439Y-101159577D01*
X175532018Y-101171565D01*
X175536833Y-101189534D01*
X175596498Y-101412207D01*
X175691830Y-101642361D01*
X175691837Y-101642376D01*
X175816400Y-101858126D01*
X175968060Y-102055774D01*
X175968066Y-102055781D01*
X176144218Y-102231933D01*
X176144225Y-102231939D01*
X176341873Y-102383599D01*
X176557623Y-102508162D01*
X176557638Y-102508169D01*
X176656825Y-102549253D01*
X176787793Y-102603502D01*
X177028435Y-102667982D01*
X177275435Y-102700500D01*
X177275442Y-102700500D01*
X177524558Y-102700500D01*
X177524565Y-102700500D01*
X177771565Y-102667982D01*
X178012207Y-102603502D01*
X178242373Y-102508164D01*
X178458127Y-102383599D01*
X178655776Y-102231938D01*
X178831938Y-102055776D01*
X178983599Y-101858127D01*
X179108164Y-101642373D01*
X179203502Y-101412207D01*
X179267982Y-101171565D01*
X179300500Y-100924565D01*
X179300500Y-100675435D01*
X179267982Y-100428435D01*
X179203502Y-100187793D01*
X179149253Y-100056825D01*
X179108169Y-99957638D01*
X179108162Y-99957623D01*
X178983599Y-99741873D01*
X178831939Y-99544225D01*
X178831933Y-99544218D01*
X178655781Y-99368066D01*
X178655774Y-99368060D01*
X178458126Y-99216400D01*
X178242376Y-99091837D01*
X178242361Y-99091830D01*
X178012207Y-98996498D01*
X177771561Y-98932017D01*
X177524575Y-98899501D01*
X177524570Y-98899500D01*
X177524565Y-98899500D01*
X177275435Y-98899500D01*
X177275429Y-98899500D01*
X177275424Y-98899501D01*
X177028438Y-98932017D01*
X176787792Y-98996498D01*
X176557638Y-99091830D01*
X176557623Y-99091837D01*
X176341873Y-99216400D01*
X176144225Y-99368060D01*
X176144218Y-99368066D01*
X175968066Y-99544218D01*
X175968060Y-99544225D01*
X175816400Y-99741873D01*
X175691837Y-99957623D01*
X175691830Y-99957638D01*
X175596498Y-100187792D01*
X175532017Y-100428438D01*
X175499501Y-100675424D01*
X175499500Y-100675441D01*
X174300500Y-100675441D01*
X174300500Y-99599992D01*
X174289999Y-99497203D01*
X174234814Y-99330666D01*
X174214174Y-99297204D01*
X174142713Y-99181348D01*
X174142710Y-99181344D01*
X174018655Y-99057289D01*
X174018651Y-99057286D01*
X173869337Y-98965187D01*
X173869335Y-98965186D01*
X173769237Y-98932017D01*
X173702797Y-98910001D01*
X173702795Y-98910000D01*
X173600015Y-98899500D01*
X173600008Y-98899500D01*
X171382097Y-98899500D01*
X171315058Y-98879815D01*
X171294416Y-98863181D01*
X166683721Y-94252486D01*
X166650236Y-94191163D01*
X166655220Y-94121471D01*
X166697092Y-94065538D01*
X166715098Y-94054325D01*
X166769199Y-94026760D01*
X166922073Y-93915690D01*
X167055690Y-93782073D01*
X167166760Y-93629199D01*
X167252547Y-93460832D01*
X167310940Y-93281118D01*
X167326876Y-93180500D01*
X167340500Y-93094484D01*
X167340500Y-92905513D01*
X167310940Y-92718881D01*
X167252545Y-92539163D01*
X167202234Y-92440423D01*
X167166760Y-92370801D01*
X167055690Y-92217927D01*
X166922073Y-92084310D01*
X166769199Y-91973240D01*
X166723600Y-91950006D01*
X166600836Y-91887454D01*
X166421118Y-91829059D01*
X166234486Y-91799500D01*
X166234481Y-91799500D01*
X166045519Y-91799500D01*
X166045514Y-91799500D01*
X165858881Y-91829059D01*
X165679163Y-91887454D01*
X165510800Y-91973240D01*
X165445859Y-92020423D01*
X165357927Y-92084310D01*
X165357925Y-92084312D01*
X165357924Y-92084312D01*
X165224312Y-92217924D01*
X165224312Y-92217925D01*
X165224310Y-92217927D01*
X165182506Y-92275465D01*
X165113238Y-92370803D01*
X165077082Y-92441763D01*
X165029108Y-92492558D01*
X164961287Y-92509353D01*
X164904598Y-92492854D01*
X164843948Y-92457838D01*
X164843947Y-92457837D01*
X164813783Y-92440422D01*
X164757881Y-92425443D01*
X164661057Y-92399499D01*
X164502943Y-92399499D01*
X164495347Y-92399499D01*
X164495331Y-92399500D01*
X162170793Y-92399500D01*
X162103754Y-92379815D01*
X162070475Y-92348386D01*
X161975691Y-92217927D01*
X161842074Y-92084310D01*
X161689200Y-91973240D01*
X161643601Y-91950006D01*
X161520837Y-91887454D01*
X161341119Y-91829059D01*
X161154487Y-91799500D01*
X161154482Y-91799500D01*
X160965520Y-91799500D01*
X160965515Y-91799500D01*
X160778882Y-91829059D01*
X160599164Y-91887454D01*
X160430801Y-91973240D01*
X160365860Y-92020423D01*
X160277928Y-92084310D01*
X160277926Y-92084312D01*
X160277925Y-92084312D01*
X160144313Y-92217924D01*
X160144313Y-92217925D01*
X160144311Y-92217927D01*
X160102507Y-92275465D01*
X160033241Y-92370800D01*
X159947455Y-92539163D01*
X159889060Y-92718881D01*
X159859501Y-92905513D01*
X159859501Y-93094482D01*
X159859500Y-93094484D01*
X159300500Y-93094484D01*
X159300500Y-87505513D01*
X159719500Y-87505513D01*
X159719500Y-87694486D01*
X159749059Y-87881118D01*
X159807454Y-88060836D01*
X159858059Y-88160153D01*
X159893240Y-88229199D01*
X160004310Y-88382073D01*
X160137927Y-88515690D01*
X160290801Y-88626760D01*
X160334593Y-88649073D01*
X160459163Y-88712545D01*
X160459165Y-88712545D01*
X160459168Y-88712547D01*
X160555497Y-88743846D01*
X160638881Y-88770940D01*
X160825514Y-88800500D01*
X160825519Y-88800500D01*
X161014486Y-88800500D01*
X161201118Y-88770940D01*
X161231753Y-88760986D01*
X161380832Y-88712547D01*
X161549199Y-88626760D01*
X161702073Y-88515690D01*
X161835690Y-88382073D01*
X161946760Y-88229199D01*
X162032547Y-88060832D01*
X162090940Y-87881118D01*
X162111628Y-87750500D01*
X162120500Y-87694486D01*
X162120500Y-87505513D01*
X164799500Y-87505513D01*
X164799500Y-87694486D01*
X164829059Y-87881118D01*
X164887454Y-88060836D01*
X164938059Y-88160153D01*
X164973240Y-88229199D01*
X165084310Y-88382073D01*
X165217927Y-88515690D01*
X165370801Y-88626760D01*
X165414593Y-88649073D01*
X165539163Y-88712545D01*
X165539165Y-88712545D01*
X165539168Y-88712547D01*
X165635497Y-88743846D01*
X165718881Y-88770940D01*
X165905514Y-88800500D01*
X165905519Y-88800500D01*
X166094486Y-88800500D01*
X166211017Y-88782042D01*
X166253753Y-88775274D01*
X166323045Y-88784228D01*
X166360831Y-88810066D01*
X169222842Y-91672077D01*
X169256327Y-91733400D01*
X169251343Y-91803092D01*
X169235480Y-91832641D01*
X169187717Y-91898383D01*
X169187712Y-91898391D01*
X169094781Y-92080776D01*
X169031522Y-92275465D01*
X168999500Y-92477648D01*
X168999500Y-92682351D01*
X169031522Y-92884534D01*
X169094781Y-93079223D01*
X169143396Y-93174633D01*
X169187711Y-93261607D01*
X169187715Y-93261613D01*
X169308028Y-93427213D01*
X169452786Y-93571971D01*
X169569675Y-93656894D01*
X169618390Y-93692287D01*
X169734607Y-93751503D01*
X169800776Y-93785218D01*
X169800778Y-93785218D01*
X169800781Y-93785220D01*
X169905137Y-93819127D01*
X169995465Y-93848477D01*
X170088674Y-93863240D01*
X170197648Y-93880500D01*
X170197649Y-93880500D01*
X171202351Y-93880500D01*
X171202352Y-93880500D01*
X171404534Y-93848477D01*
X171599219Y-93785220D01*
X171781610Y-93692287D01*
X171907945Y-93600500D01*
X171947213Y-93571971D01*
X171947215Y-93571968D01*
X171947219Y-93571966D01*
X172091966Y-93427219D01*
X172091968Y-93427215D01*
X172091971Y-93427213D01*
X172144732Y-93354590D01*
X172212287Y-93261610D01*
X172305220Y-93079219D01*
X172368477Y-92884534D01*
X172400500Y-92682352D01*
X172400500Y-92477648D01*
X172368477Y-92275466D01*
X172349780Y-92217924D01*
X172346822Y-92208820D01*
X172305220Y-92080781D01*
X172305218Y-92080777D01*
X172303714Y-92076148D01*
X172305035Y-92075718D01*
X172298236Y-92012486D01*
X172329509Y-91950006D01*
X172389597Y-91914352D01*
X172420266Y-91910500D01*
X175248203Y-91910500D01*
X175315242Y-91930185D01*
X175335884Y-91946819D01*
X176333439Y-92944374D01*
X176333449Y-92944385D01*
X176337779Y-92948715D01*
X176337780Y-92948716D01*
X176449584Y-93060520D01*
X176449586Y-93060521D01*
X176449590Y-93060524D01*
X176508404Y-93094480D01*
X176508409Y-93094482D01*
X176586509Y-93139574D01*
X176586510Y-93139574D01*
X176586515Y-93139577D01*
X176717349Y-93174633D01*
X176777009Y-93210998D01*
X176795738Y-93238111D01*
X176807710Y-93261607D01*
X176807712Y-93261610D01*
X176928028Y-93427213D01*
X177072786Y-93571971D01*
X177189675Y-93656894D01*
X177238390Y-93692287D01*
X177354607Y-93751503D01*
X177420776Y-93785218D01*
X177420778Y-93785218D01*
X177420781Y-93785220D01*
X177525137Y-93819127D01*
X177615465Y-93848477D01*
X177708674Y-93863240D01*
X177817648Y-93880500D01*
X177817649Y-93880500D01*
X178822351Y-93880500D01*
X178822352Y-93880500D01*
X179024534Y-93848477D01*
X179219219Y-93785220D01*
X179401610Y-93692287D01*
X179439787Y-93664549D01*
X179505590Y-93641070D01*
X179573644Y-93656894D01*
X179600352Y-93677187D01*
X186887539Y-100964374D01*
X186887549Y-100964385D01*
X186891879Y-100968715D01*
X186891880Y-100968716D01*
X187003684Y-101080520D01*
X187003686Y-101080521D01*
X187003690Y-101080524D01*
X187140609Y-101159573D01*
X187140616Y-101159577D01*
X187252419Y-101189534D01*
X187293342Y-101200500D01*
X187293343Y-101200500D01*
X194975500Y-101200500D01*
X195042539Y-101220185D01*
X195088294Y-101272989D01*
X195099500Y-101324500D01*
X195099500Y-101800015D01*
X195110000Y-101902795D01*
X195110001Y-101902796D01*
X195165186Y-102069335D01*
X195165187Y-102069337D01*
X195257286Y-102218651D01*
X195257289Y-102218655D01*
X195381344Y-102342710D01*
X195381348Y-102342713D01*
X195530662Y-102434812D01*
X195530664Y-102434813D01*
X195530666Y-102434814D01*
X195697203Y-102489999D01*
X195799992Y-102500500D01*
X195799997Y-102500500D01*
X198200003Y-102500500D01*
X198200008Y-102500500D01*
X198302797Y-102489999D01*
X198469334Y-102434814D01*
X198618655Y-102342711D01*
X198742711Y-102218655D01*
X198834814Y-102069334D01*
X198889999Y-101902797D01*
X198900500Y-101800008D01*
X198900500Y-99399992D01*
X198889999Y-99297203D01*
X198834814Y-99130666D01*
X198810863Y-99091836D01*
X198742713Y-98981348D01*
X198742710Y-98981344D01*
X198618655Y-98857289D01*
X198618651Y-98857286D01*
X198469337Y-98765187D01*
X198469335Y-98765186D01*
X198386065Y-98737593D01*
X198302797Y-98710001D01*
X198302795Y-98710000D01*
X198200015Y-98699500D01*
X198200008Y-98699500D01*
X195799992Y-98699500D01*
X195799984Y-98699500D01*
X195697204Y-98710000D01*
X195697203Y-98710001D01*
X195530664Y-98765186D01*
X195530662Y-98765187D01*
X195381348Y-98857286D01*
X195381344Y-98857289D01*
X195257289Y-98981344D01*
X195257286Y-98981348D01*
X195165187Y-99130662D01*
X195165186Y-99130664D01*
X195110001Y-99297203D01*
X195110000Y-99297204D01*
X195099500Y-99399984D01*
X195099500Y-99875500D01*
X195079815Y-99942539D01*
X195027011Y-99988294D01*
X194975500Y-99999500D01*
X187672497Y-99999500D01*
X187605458Y-99979815D01*
X187584816Y-99963181D01*
X183740358Y-96118723D01*
X183706873Y-96057400D01*
X183711857Y-95987708D01*
X183753729Y-95931775D01*
X183771743Y-95920558D01*
X183779199Y-95916760D01*
X183932073Y-95805690D01*
X184065690Y-95672073D01*
X184176760Y-95519199D01*
X184262547Y-95350832D01*
X184320940Y-95171118D01*
X184332978Y-95095112D01*
X184350500Y-94984486D01*
X184350500Y-94795513D01*
X184320940Y-94608881D01*
X184262545Y-94429163D01*
X184206440Y-94319051D01*
X184176760Y-94260801D01*
X184065690Y-94107927D01*
X183932073Y-93974310D01*
X183779199Y-93863240D01*
X183750225Y-93848477D01*
X183610836Y-93777454D01*
X183431118Y-93719059D01*
X183244486Y-93689500D01*
X183244481Y-93689500D01*
X183055519Y-93689500D01*
X183055514Y-93689500D01*
X182868881Y-93719059D01*
X182689163Y-93777454D01*
X182520800Y-93863240D01*
X182480824Y-93892285D01*
X182367927Y-93974310D01*
X182367925Y-93974312D01*
X182367924Y-93974312D01*
X182234312Y-94107924D01*
X182234312Y-94107925D01*
X182234310Y-94107927D01*
X182224470Y-94121471D01*
X182123238Y-94260803D01*
X182119441Y-94268256D01*
X182071466Y-94319051D01*
X182003645Y-94335846D01*
X181937511Y-94313308D01*
X181921276Y-94299641D01*
X180458519Y-92836884D01*
X180425034Y-92775561D01*
X180422200Y-92749203D01*
X180422200Y-92500945D01*
X180422200Y-92500943D01*
X180381277Y-92348216D01*
X180339275Y-92275465D01*
X180302224Y-92211290D01*
X180302218Y-92211282D01*
X180190417Y-92099481D01*
X180190409Y-92099475D01*
X180053490Y-92020426D01*
X180053485Y-92020423D01*
X179922650Y-91985366D01*
X179862990Y-91949000D01*
X179844260Y-91921887D01*
X179832286Y-91898388D01*
X179711971Y-91732786D01*
X179567213Y-91588028D01*
X179401614Y-91467715D01*
X179395006Y-91464348D01*
X179308917Y-91420483D01*
X179258123Y-91372511D01*
X179241328Y-91304690D01*
X179263865Y-91238555D01*
X179308917Y-91199516D01*
X179401610Y-91152287D01*
X179503561Y-91078216D01*
X179567213Y-91031971D01*
X179567215Y-91031968D01*
X179567219Y-91031966D01*
X179711966Y-90887219D01*
X179711968Y-90887215D01*
X179711971Y-90887213D01*
X179764732Y-90814590D01*
X179832287Y-90721610D01*
X179925220Y-90539219D01*
X179988477Y-90344534D01*
X180020500Y-90142352D01*
X180020500Y-89937648D01*
X179988477Y-89735466D01*
X179988476Y-89735462D01*
X179988476Y-89735461D01*
X179965620Y-89665118D01*
X179963625Y-89595277D01*
X179999705Y-89535444D01*
X180062406Y-89504616D01*
X180083551Y-89502800D01*
X181838006Y-89502800D01*
X181905045Y-89522485D01*
X181950800Y-89575289D01*
X181960744Y-89644447D01*
X181960479Y-89646198D01*
X181949500Y-89715514D01*
X181949500Y-89904487D01*
X181979059Y-90091119D01*
X182037454Y-90270837D01*
X182123104Y-90438934D01*
X182123240Y-90439200D01*
X182234310Y-90592074D01*
X182367927Y-90725691D01*
X182498386Y-90820475D01*
X182541050Y-90875804D01*
X182544933Y-90887453D01*
X182549499Y-90903810D01*
X182549499Y-90919057D01*
X182590423Y-91071785D01*
X182594136Y-91078216D01*
X182601969Y-91091784D01*
X182601970Y-91091785D01*
X182669477Y-91208712D01*
X182669481Y-91208717D01*
X182788349Y-91327585D01*
X182788355Y-91327590D01*
X185989933Y-94529168D01*
X186023418Y-94590491D01*
X186024725Y-94636247D01*
X185999500Y-94795513D01*
X185999500Y-94984486D01*
X186029059Y-95171118D01*
X186087454Y-95350836D01*
X186150957Y-95475466D01*
X186173240Y-95519199D01*
X186284310Y-95672073D01*
X186417927Y-95805690D01*
X186570801Y-95916760D01*
X186600270Y-95931775D01*
X186739163Y-96002545D01*
X186739165Y-96002545D01*
X186739168Y-96002547D01*
X186775497Y-96014351D01*
X186918881Y-96060940D01*
X187105514Y-96090500D01*
X187105519Y-96090500D01*
X187294486Y-96090500D01*
X187481118Y-96060940D01*
X187492013Y-96057400D01*
X187660832Y-96002547D01*
X187829199Y-95916760D01*
X187982073Y-95805690D01*
X188115690Y-95672073D01*
X188226760Y-95519199D01*
X188249043Y-95475466D01*
X195100000Y-95475466D01*
X195100000Y-95724533D01*
X195132508Y-95971463D01*
X195196973Y-96212049D01*
X195292283Y-96442148D01*
X195292288Y-96442159D01*
X195416813Y-96657841D01*
X195416819Y-96657849D01*
X195491400Y-96755045D01*
X196398958Y-95847487D01*
X196423978Y-95907890D01*
X196495112Y-96014351D01*
X196585649Y-96104888D01*
X196692110Y-96176022D01*
X196752511Y-96201041D01*
X195844953Y-97108598D01*
X195942150Y-97183180D01*
X195942158Y-97183186D01*
X196157840Y-97307711D01*
X196157851Y-97307716D01*
X196387950Y-97403026D01*
X196628536Y-97467491D01*
X196875466Y-97500000D01*
X197124534Y-97500000D01*
X197371463Y-97467491D01*
X197612049Y-97403026D01*
X197842148Y-97307716D01*
X197842159Y-97307711D01*
X198057855Y-97183178D01*
X198155045Y-97108600D01*
X198155045Y-97108597D01*
X197247488Y-96201041D01*
X197307890Y-96176022D01*
X197414351Y-96104888D01*
X197504888Y-96014351D01*
X197576022Y-95907890D01*
X197601041Y-95847489D01*
X198508597Y-96755045D01*
X198508600Y-96755045D01*
X198583178Y-96657855D01*
X198707711Y-96442159D01*
X198707716Y-96442148D01*
X198803026Y-96212049D01*
X198867491Y-95971463D01*
X198900000Y-95724533D01*
X198900000Y-95475466D01*
X198867491Y-95228536D01*
X198803026Y-94987950D01*
X198707716Y-94757851D01*
X198707711Y-94757840D01*
X198583186Y-94542158D01*
X198583180Y-94542150D01*
X198508598Y-94444953D01*
X197601041Y-95352510D01*
X197576022Y-95292110D01*
X197504888Y-95185649D01*
X197414351Y-95095112D01*
X197307890Y-95023978D01*
X197247487Y-94998957D01*
X198155045Y-94091400D01*
X198057849Y-94016819D01*
X198057841Y-94016813D01*
X197842159Y-93892288D01*
X197842148Y-93892283D01*
X197612049Y-93796973D01*
X197371463Y-93732508D01*
X197124534Y-93700000D01*
X196875466Y-93700000D01*
X196628536Y-93732508D01*
X196387950Y-93796973D01*
X196157851Y-93892283D01*
X196157847Y-93892285D01*
X195942143Y-94016823D01*
X195844953Y-94091399D01*
X195844953Y-94091400D01*
X196752511Y-94998958D01*
X196692110Y-95023978D01*
X196585649Y-95095112D01*
X196495112Y-95185649D01*
X196423978Y-95292110D01*
X196398958Y-95352511D01*
X195491400Y-94444953D01*
X195491399Y-94444953D01*
X195416823Y-94542143D01*
X195292285Y-94757847D01*
X195292283Y-94757851D01*
X195196973Y-94987950D01*
X195132508Y-95228536D01*
X195100000Y-95475466D01*
X188249043Y-95475466D01*
X188312547Y-95350832D01*
X188370940Y-95171118D01*
X188382978Y-95095112D01*
X188400500Y-94984486D01*
X188400500Y-94795513D01*
X188370940Y-94608881D01*
X188312545Y-94429163D01*
X188256440Y-94319051D01*
X188226760Y-94260801D01*
X188115690Y-94107927D01*
X187982073Y-93974310D01*
X187829199Y-93863240D01*
X187800225Y-93848477D01*
X187660836Y-93777454D01*
X187481118Y-93719059D01*
X187294486Y-93689500D01*
X187294481Y-93689500D01*
X187105519Y-93689500D01*
X187105514Y-93689500D01*
X186946247Y-93714725D01*
X186876953Y-93705770D01*
X186839168Y-93679933D01*
X183996180Y-90836945D01*
X183985771Y-90817883D01*
X186545669Y-90817883D01*
X186545670Y-90817884D01*
X186571059Y-90836330D01*
X186739362Y-90922086D01*
X186918997Y-90980452D01*
X187105553Y-91010001D01*
X187294447Y-91010001D01*
X187481002Y-90980452D01*
X187660637Y-90922086D01*
X187828937Y-90836332D01*
X187854328Y-90817884D01*
X187854328Y-90817883D01*
X187200001Y-90163555D01*
X187200000Y-90163555D01*
X186545669Y-90817883D01*
X183985771Y-90817883D01*
X183962695Y-90775622D01*
X183967679Y-90705930D01*
X183996176Y-90661587D01*
X184065690Y-90592074D01*
X184176760Y-90439200D01*
X184262547Y-90270833D01*
X184320940Y-90091119D01*
X184331427Y-90024906D01*
X184350500Y-89904487D01*
X184350500Y-89715553D01*
X186000000Y-89715553D01*
X186000000Y-89904448D01*
X186029548Y-90091003D01*
X186087914Y-90270638D01*
X186173666Y-90438934D01*
X186192116Y-90464329D01*
X186846446Y-89810001D01*
X186846446Y-89810000D01*
X186800369Y-89763923D01*
X186850000Y-89763923D01*
X186850000Y-89856079D01*
X186873852Y-89945096D01*
X186919930Y-90024906D01*
X186985095Y-90090071D01*
X187064905Y-90136149D01*
X187153922Y-90160001D01*
X187246078Y-90160001D01*
X187335095Y-90136149D01*
X187414905Y-90090071D01*
X187480070Y-90024906D01*
X187526148Y-89945096D01*
X187550000Y-89856079D01*
X187550000Y-89810000D01*
X187553554Y-89810000D01*
X187553554Y-89810001D01*
X188207882Y-90464329D01*
X188207883Y-90464329D01*
X188226331Y-90438938D01*
X188312085Y-90270638D01*
X188370451Y-90091003D01*
X188400000Y-89904448D01*
X188400000Y-89715553D01*
X188370451Y-89528998D01*
X188312085Y-89349363D01*
X188226329Y-89181060D01*
X188207883Y-89155671D01*
X188207882Y-89155670D01*
X187553554Y-89810000D01*
X187550000Y-89810000D01*
X187550000Y-89763923D01*
X187526148Y-89674906D01*
X187480070Y-89595096D01*
X187414905Y-89529931D01*
X187335095Y-89483853D01*
X187246078Y-89460001D01*
X187153922Y-89460001D01*
X187064905Y-89483853D01*
X186985095Y-89529931D01*
X186919930Y-89595096D01*
X186873852Y-89674906D01*
X186850000Y-89763923D01*
X186800369Y-89763923D01*
X186192116Y-89155670D01*
X186192116Y-89155671D01*
X186173669Y-89181061D01*
X186087914Y-89349363D01*
X186029548Y-89528998D01*
X186000000Y-89715553D01*
X184350500Y-89715553D01*
X184350500Y-89715514D01*
X184320940Y-89528882D01*
X184265543Y-89358390D01*
X184262547Y-89349169D01*
X184262545Y-89349166D01*
X184262545Y-89349164D01*
X184182866Y-89192786D01*
X184176760Y-89180802D01*
X184065690Y-89027928D01*
X183932073Y-88894311D01*
X183805179Y-88802117D01*
X186545669Y-88802117D01*
X187200000Y-89456447D01*
X187200001Y-89456447D01*
X187854328Y-88802117D01*
X187828933Y-88783667D01*
X187660637Y-88697915D01*
X187481002Y-88639549D01*
X187294447Y-88610001D01*
X187105553Y-88610001D01*
X186918997Y-88639549D01*
X186739362Y-88697915D01*
X186571060Y-88783670D01*
X186545670Y-88802117D01*
X186545669Y-88802117D01*
X183805179Y-88802117D01*
X183779199Y-88783241D01*
X183610836Y-88697455D01*
X183431118Y-88639060D01*
X183244486Y-88609501D01*
X183244481Y-88609501D01*
X183055519Y-88609501D01*
X183055514Y-88609501D01*
X182896025Y-88634761D01*
X182890611Y-88634061D01*
X182885495Y-88635971D01*
X182856321Y-88629630D01*
X182826731Y-88625806D01*
X182821139Y-88621983D01*
X182817219Y-88621131D01*
X182788961Y-88599984D01*
X182770462Y-88581491D01*
X182670980Y-88482044D01*
X182670977Y-88482040D01*
X182670970Y-88482034D01*
X182610716Y-88421780D01*
X182610715Y-88421779D01*
X182610714Y-88421778D01*
X182610646Y-88421726D01*
X182545248Y-88383982D01*
X182545232Y-88383973D01*
X182541563Y-88381855D01*
X182496861Y-88356046D01*
X182473779Y-88342720D01*
X182473703Y-88342688D01*
X182473692Y-88342685D01*
X182394916Y-88321590D01*
X182394901Y-88321581D01*
X182394900Y-88321586D01*
X182346817Y-88308702D01*
X182321057Y-88301800D01*
X182321056Y-88301800D01*
X182321049Y-88301798D01*
X182320958Y-88301786D01*
X182238972Y-88301800D01*
X179973397Y-88301800D01*
X179906358Y-88282115D01*
X179860603Y-88229311D01*
X179850659Y-88160153D01*
X179862912Y-88121505D01*
X179925218Y-87999223D01*
X179925218Y-87999222D01*
X179925220Y-87999219D01*
X179988477Y-87804534D01*
X180020500Y-87602352D01*
X180020500Y-87397648D01*
X179988477Y-87195465D01*
X179925218Y-87000776D01*
X179891503Y-86934607D01*
X179832287Y-86818390D01*
X179824556Y-86807749D01*
X179711971Y-86652786D01*
X179567219Y-86508034D01*
X179481953Y-86446085D01*
X179481951Y-86446084D01*
X179401610Y-86387713D01*
X179322979Y-86347648D01*
X183899500Y-86347648D01*
X183899500Y-86552351D01*
X183931522Y-86754534D01*
X183994781Y-86949223D01*
X184087715Y-87131613D01*
X184208028Y-87297213D01*
X184352786Y-87441971D01*
X184507749Y-87554556D01*
X184518390Y-87562287D01*
X184597022Y-87602352D01*
X184700776Y-87655218D01*
X184700778Y-87655218D01*
X184700781Y-87655220D01*
X184805137Y-87689127D01*
X184895465Y-87718477D01*
X184996557Y-87734488D01*
X185097648Y-87750500D01*
X185097649Y-87750500D01*
X185302351Y-87750500D01*
X185302352Y-87750500D01*
X185504534Y-87718477D01*
X185699219Y-87655220D01*
X185881610Y-87562287D01*
X185974590Y-87494732D01*
X186047213Y-87441971D01*
X186047215Y-87441968D01*
X186047219Y-87441966D01*
X186191966Y-87297219D01*
X186191968Y-87297215D01*
X186191971Y-87297213D01*
X186265894Y-87195465D01*
X186312287Y-87131610D01*
X186405220Y-86949219D01*
X186468477Y-86754534D01*
X186500500Y-86552352D01*
X186500500Y-86347648D01*
X186476293Y-86194812D01*
X186468477Y-86145465D01*
X186413300Y-85975649D01*
X186405220Y-85950781D01*
X186405218Y-85950778D01*
X186405218Y-85950776D01*
X186371503Y-85884607D01*
X186312287Y-85768390D01*
X186304556Y-85757749D01*
X186191971Y-85602786D01*
X186047213Y-85458028D01*
X185881611Y-85337713D01*
X185827621Y-85310203D01*
X185776825Y-85262228D01*
X185760031Y-85194407D01*
X185782569Y-85128272D01*
X185827624Y-85089233D01*
X185881349Y-85061859D01*
X185925921Y-85029474D01*
X185246447Y-84350000D01*
X185252661Y-84350000D01*
X185354394Y-84322741D01*
X185445606Y-84270080D01*
X185520080Y-84195606D01*
X185572741Y-84104394D01*
X185600000Y-84002661D01*
X185600000Y-83996448D01*
X186279474Y-84675922D01*
X186279474Y-84675921D01*
X186311859Y-84631349D01*
X186404755Y-84449031D01*
X186467990Y-84254417D01*
X186500000Y-84052317D01*
X186500000Y-83847682D01*
X186467990Y-83645582D01*
X186404755Y-83450968D01*
X186311859Y-83268650D01*
X186279474Y-83224077D01*
X186279474Y-83224076D01*
X185600000Y-83903551D01*
X185600000Y-83897339D01*
X185572741Y-83795606D01*
X185520080Y-83704394D01*
X185445606Y-83629920D01*
X185354394Y-83577259D01*
X185252661Y-83550000D01*
X185246446Y-83550000D01*
X185925922Y-82870524D01*
X185925921Y-82870523D01*
X185881359Y-82838147D01*
X185881350Y-82838141D01*
X185699031Y-82745244D01*
X185504417Y-82682009D01*
X185302317Y-82650000D01*
X185097683Y-82650000D01*
X184895582Y-82682009D01*
X184700968Y-82745244D01*
X184518644Y-82838143D01*
X184474077Y-82870523D01*
X184474077Y-82870524D01*
X185153554Y-83550000D01*
X185147339Y-83550000D01*
X185045606Y-83577259D01*
X184954394Y-83629920D01*
X184879920Y-83704394D01*
X184827259Y-83795606D01*
X184800000Y-83897339D01*
X184800000Y-83903553D01*
X184120524Y-83224077D01*
X184120523Y-83224077D01*
X184088143Y-83268644D01*
X183995244Y-83450968D01*
X183932009Y-83645582D01*
X183900000Y-83847682D01*
X183900000Y-84052317D01*
X183932009Y-84254417D01*
X183995244Y-84449031D01*
X184088141Y-84631350D01*
X184088147Y-84631359D01*
X184120523Y-84675921D01*
X184120524Y-84675922D01*
X184800000Y-83996446D01*
X184800000Y-84002661D01*
X184827259Y-84104394D01*
X184879920Y-84195606D01*
X184954394Y-84270080D01*
X185045606Y-84322741D01*
X185147339Y-84350000D01*
X185153553Y-84350000D01*
X184474076Y-85029474D01*
X184518652Y-85061861D01*
X184572376Y-85089234D01*
X184623172Y-85137208D01*
X184639968Y-85205028D01*
X184617431Y-85271164D01*
X184572379Y-85310203D01*
X184518386Y-85337714D01*
X184352786Y-85458028D01*
X184208028Y-85602786D01*
X184087715Y-85768386D01*
X183994781Y-85950776D01*
X183931522Y-86145465D01*
X183899500Y-86347648D01*
X179322979Y-86347648D01*
X179304770Y-86338370D01*
X179300800Y-86335957D01*
X179280281Y-86313438D01*
X179258123Y-86292511D01*
X179256969Y-86287854D01*
X179253741Y-86284311D01*
X179248653Y-86254271D01*
X179241328Y-86224690D01*
X179242874Y-86220151D01*
X179242074Y-86215423D01*
X179254035Y-86187398D01*
X179263865Y-86158555D01*
X179267804Y-86155141D01*
X179269503Y-86151162D01*
X179282841Y-86142111D01*
X179308917Y-86119516D01*
X179401610Y-86072287D01*
X179448833Y-86037978D01*
X179567213Y-85951971D01*
X179567215Y-85951968D01*
X179567219Y-85951966D01*
X179711966Y-85807219D01*
X179711968Y-85807215D01*
X179711971Y-85807213D01*
X179816892Y-85662799D01*
X179832287Y-85641610D01*
X179925220Y-85459219D01*
X179988477Y-85264534D01*
X180020500Y-85062352D01*
X180020500Y-84857648D01*
X179988477Y-84655466D01*
X179925220Y-84460781D01*
X179925218Y-84460778D01*
X179925218Y-84460776D01*
X179873865Y-84359991D01*
X179832287Y-84278390D01*
X179814870Y-84254417D01*
X179711971Y-84112786D01*
X179567219Y-83968034D01*
X179567211Y-83968028D01*
X179532947Y-83943134D01*
X179532946Y-83943132D01*
X179401613Y-83847715D01*
X179401612Y-83847714D01*
X179401610Y-83847713D01*
X179341898Y-83817288D01*
X179219223Y-83754781D01*
X179024534Y-83691522D01*
X178849995Y-83663878D01*
X178822352Y-83659500D01*
X177817648Y-83659500D01*
X177793329Y-83663351D01*
X177615465Y-83691522D01*
X177420776Y-83754781D01*
X177238386Y-83847715D01*
X177072786Y-83968028D01*
X176928028Y-84112786D01*
X176807715Y-84278386D01*
X176714781Y-84460776D01*
X176651522Y-84655465D01*
X176619500Y-84857648D01*
X176619500Y-85062351D01*
X176651522Y-85264534D01*
X176714781Y-85459223D01*
X176807715Y-85641613D01*
X176928028Y-85807213D01*
X177072786Y-85951971D01*
X177227749Y-86064556D01*
X177238390Y-86072287D01*
X177329840Y-86118883D01*
X177331080Y-86119515D01*
X177381876Y-86167490D01*
X177398671Y-86235311D01*
X177376134Y-86301446D01*
X177331080Y-86340485D01*
X177238386Y-86387715D01*
X177072786Y-86508028D01*
X176928028Y-86652786D01*
X176807715Y-86818386D01*
X176714781Y-87000776D01*
X176651522Y-87195465D01*
X176619500Y-87397648D01*
X176619500Y-87602351D01*
X176651522Y-87804534D01*
X176714781Y-87999223D01*
X176777088Y-88121505D01*
X176789984Y-88190174D01*
X176763708Y-88254915D01*
X176706601Y-88295172D01*
X176666603Y-88301800D01*
X173417966Y-88301800D01*
X173417873Y-88301775D01*
X173337202Y-88301800D01*
X173259922Y-88301800D01*
X173259766Y-88301821D01*
X173183511Y-88322279D01*
X173183476Y-88322288D01*
X173107209Y-88342724D01*
X173107053Y-88342788D01*
X173039434Y-88381855D01*
X173039405Y-88381872D01*
X172970276Y-88421784D01*
X172970146Y-88421883D01*
X172914948Y-88477115D01*
X172914922Y-88477141D01*
X172853040Y-88539022D01*
X172852760Y-88539340D01*
X172233541Y-89158940D01*
X172172228Y-89192444D01*
X172102535Y-89187481D01*
X172058152Y-89158967D01*
X171947213Y-89048028D01*
X171781614Y-88927715D01*
X171775006Y-88924348D01*
X171688917Y-88880483D01*
X171638123Y-88832511D01*
X171621328Y-88764690D01*
X171643865Y-88698555D01*
X171688917Y-88659516D01*
X171781610Y-88612287D01*
X171802770Y-88596913D01*
X171947213Y-88491971D01*
X171947215Y-88491968D01*
X171947219Y-88491966D01*
X172091966Y-88347219D01*
X172091968Y-88347215D01*
X172091971Y-88347213D01*
X172212286Y-88181612D01*
X172223220Y-88160153D01*
X172224211Y-88158207D01*
X172272183Y-88107412D01*
X172302597Y-88094728D01*
X172433784Y-88059577D01*
X172570716Y-87980520D01*
X172682520Y-87868716D01*
X172761577Y-87731784D01*
X172802500Y-87579057D01*
X172802500Y-86540731D01*
X172802509Y-86540698D01*
X172802500Y-86451758D01*
X172802500Y-86382643D01*
X172802493Y-86382593D01*
X172802493Y-86382583D01*
X172780729Y-86301392D01*
X172780729Y-86301380D01*
X172780726Y-86301381D01*
X172761577Y-86229916D01*
X172761574Y-86229912D01*
X172761574Y-86229909D01*
X172761555Y-86229862D01*
X172753217Y-86215423D01*
X172721925Y-86161236D01*
X172682520Y-86092984D01*
X172682498Y-86092962D01*
X172682483Y-86092936D01*
X172627523Y-86037987D01*
X172570716Y-85981180D01*
X172565277Y-85975741D01*
X172565173Y-85975649D01*
X172540295Y-85950776D01*
X172409814Y-85820321D01*
X172376324Y-85759004D01*
X172379781Y-85693629D01*
X172389999Y-85662797D01*
X172400500Y-85560009D01*
X172400499Y-84359992D01*
X172389999Y-84257203D01*
X172334814Y-84090666D01*
X172242712Y-83941344D01*
X172118656Y-83817288D01*
X171969334Y-83725186D01*
X171802797Y-83670001D01*
X171802795Y-83670000D01*
X171700010Y-83659500D01*
X169699998Y-83659500D01*
X169699981Y-83659501D01*
X169597203Y-83670000D01*
X169597200Y-83670001D01*
X169430668Y-83725185D01*
X169430663Y-83725187D01*
X169281342Y-83817289D01*
X169157289Y-83941342D01*
X169065187Y-84090663D01*
X169065186Y-84090666D01*
X169010001Y-84257203D01*
X169010001Y-84257204D01*
X169010000Y-84257204D01*
X168999500Y-84359983D01*
X168999500Y-85560001D01*
X168999501Y-85560018D01*
X169010000Y-85662796D01*
X169010001Y-85662799D01*
X169041881Y-85759004D01*
X169065186Y-85829334D01*
X169157288Y-85978656D01*
X169281344Y-86102712D01*
X169430666Y-86194814D01*
X169512570Y-86221954D01*
X169570015Y-86261727D01*
X169596838Y-86326243D01*
X169584523Y-86395018D01*
X169546451Y-86439978D01*
X169452787Y-86508028D01*
X169452782Y-86508032D01*
X169308028Y-86652786D01*
X169187715Y-86818386D01*
X169094781Y-87000776D01*
X169031522Y-87195465D01*
X168999500Y-87397648D01*
X168999500Y-87602351D01*
X169031522Y-87804534D01*
X169094781Y-87999223D01*
X169187715Y-88181613D01*
X169308028Y-88347213D01*
X169452786Y-88491971D01*
X169601456Y-88599984D01*
X169618390Y-88612287D01*
X169709840Y-88658883D01*
X169711080Y-88659515D01*
X169761876Y-88707490D01*
X169778671Y-88775311D01*
X169756134Y-88841446D01*
X169711080Y-88880485D01*
X169618386Y-88927715D01*
X169452786Y-89048028D01*
X169308028Y-89192786D01*
X169187715Y-89358386D01*
X169094781Y-89540776D01*
X169082570Y-89578361D01*
X169043132Y-89636036D01*
X168978773Y-89663234D01*
X168909927Y-89651319D01*
X168876958Y-89627723D01*
X167210066Y-87960831D01*
X167176581Y-87899508D01*
X167175274Y-87853752D01*
X167200500Y-87694486D01*
X167200500Y-87505513D01*
X167170940Y-87318881D01*
X167112545Y-87139163D01*
X167067290Y-87050347D01*
X167026760Y-86970801D01*
X166915690Y-86817927D01*
X166782073Y-86684310D01*
X166629199Y-86573240D01*
X166588202Y-86552351D01*
X166460836Y-86487454D01*
X166281118Y-86429059D01*
X166094486Y-86399500D01*
X166094481Y-86399500D01*
X165905519Y-86399500D01*
X165905514Y-86399500D01*
X165718881Y-86429059D01*
X165539163Y-86487454D01*
X165370800Y-86573240D01*
X165283579Y-86636610D01*
X165217927Y-86684310D01*
X165217925Y-86684312D01*
X165217924Y-86684312D01*
X165084312Y-86817924D01*
X165084312Y-86817925D01*
X165084310Y-86817927D01*
X165083977Y-86818386D01*
X164973240Y-86970800D01*
X164887454Y-87139163D01*
X164829059Y-87318881D01*
X164799500Y-87505513D01*
X162120500Y-87505513D01*
X162090940Y-87318881D01*
X162032545Y-87139163D01*
X161987290Y-87050347D01*
X161946760Y-86970801D01*
X161835690Y-86817927D01*
X161702073Y-86684310D01*
X161549199Y-86573240D01*
X161508202Y-86552351D01*
X161380836Y-86487454D01*
X161201118Y-86429059D01*
X161014486Y-86399500D01*
X161014481Y-86399500D01*
X160825519Y-86399500D01*
X160825514Y-86399500D01*
X160638881Y-86429059D01*
X160459163Y-86487454D01*
X160290800Y-86573240D01*
X160203579Y-86636610D01*
X160137927Y-86684310D01*
X160137925Y-86684312D01*
X160137924Y-86684312D01*
X160004312Y-86817924D01*
X160004312Y-86817925D01*
X160004310Y-86817927D01*
X160003977Y-86818386D01*
X159893240Y-86970800D01*
X159807454Y-87139163D01*
X159749059Y-87318881D01*
X159719500Y-87505513D01*
X159300500Y-87505513D01*
X159300500Y-75675441D01*
X161499500Y-75675441D01*
X161499500Y-75924558D01*
X161499501Y-75924575D01*
X161532017Y-76171561D01*
X161596498Y-76412207D01*
X161691830Y-76642361D01*
X161691837Y-76642376D01*
X161816400Y-76858126D01*
X161968060Y-77055774D01*
X161968066Y-77055781D01*
X162144218Y-77231933D01*
X162144225Y-77231939D01*
X162341873Y-77383599D01*
X162557623Y-77508162D01*
X162557638Y-77508169D01*
X162656825Y-77549253D01*
X162787793Y-77603502D01*
X163028435Y-77667982D01*
X163275435Y-77700500D01*
X163275442Y-77700500D01*
X163524558Y-77700500D01*
X163524565Y-77700500D01*
X163771565Y-77667982D01*
X164012207Y-77603502D01*
X164242373Y-77508164D01*
X164458127Y-77383599D01*
X164655776Y-77231938D01*
X164831938Y-77055776D01*
X164983599Y-76858127D01*
X165108164Y-76642373D01*
X165203502Y-76412207D01*
X165267982Y-76171565D01*
X165300500Y-75924565D01*
X165300500Y-75675435D01*
X165267982Y-75428435D01*
X165203502Y-75187793D01*
X165108257Y-74957851D01*
X165108169Y-74957638D01*
X165108162Y-74957623D01*
X164983602Y-74741877D01*
X164983599Y-74741873D01*
X164930230Y-74672321D01*
X164874747Y-74600014D01*
X166500000Y-74600014D01*
X166500000Y-75550000D01*
X167799999Y-75550000D01*
X167774979Y-75610402D01*
X167750000Y-75735981D01*
X167750000Y-75864019D01*
X167774979Y-75989598D01*
X167799999Y-76050000D01*
X166500000Y-76050000D01*
X166500000Y-76999985D01*
X166510493Y-77102689D01*
X166510494Y-77102696D01*
X166565641Y-77269118D01*
X166565643Y-77269123D01*
X166657684Y-77418344D01*
X166781655Y-77542315D01*
X166930876Y-77634356D01*
X166930881Y-77634358D01*
X167097303Y-77689505D01*
X167097310Y-77689506D01*
X167200014Y-77699999D01*
X167200027Y-77700000D01*
X168150000Y-77700000D01*
X168150000Y-76400001D01*
X168210402Y-76425021D01*
X168335981Y-76450000D01*
X168464019Y-76450000D01*
X168589598Y-76425021D01*
X168650000Y-76400001D01*
X168650000Y-77700000D01*
X169599973Y-77700000D01*
X169599985Y-77699999D01*
X169702689Y-77689506D01*
X169702696Y-77689505D01*
X169869118Y-77634358D01*
X169869123Y-77634356D01*
X170018344Y-77542315D01*
X170142315Y-77418344D01*
X170234356Y-77269123D01*
X170234357Y-77269120D01*
X170250091Y-77221641D01*
X170250092Y-77221639D01*
X170289504Y-77102699D01*
X170289506Y-77102689D01*
X170299999Y-76999985D01*
X170300000Y-76999972D01*
X170300000Y-76050000D01*
X169000001Y-76050000D01*
X169025021Y-75989598D01*
X169050000Y-75864019D01*
X169050000Y-75735981D01*
X169037963Y-75675466D01*
X174100000Y-75675466D01*
X174100000Y-75924533D01*
X174132508Y-76171463D01*
X174196973Y-76412049D01*
X174292283Y-76642148D01*
X174292288Y-76642159D01*
X174416813Y-76857841D01*
X174416819Y-76857849D01*
X174491400Y-76955045D01*
X175398958Y-76047487D01*
X175423978Y-76107890D01*
X175495112Y-76214351D01*
X175585649Y-76304888D01*
X175692110Y-76376022D01*
X175752511Y-76401041D01*
X174844953Y-77308598D01*
X174942150Y-77383180D01*
X174942158Y-77383186D01*
X175157840Y-77507711D01*
X175157851Y-77507716D01*
X175387950Y-77603026D01*
X175628536Y-77667491D01*
X175875466Y-77700000D01*
X176124534Y-77700000D01*
X176371463Y-77667491D01*
X176612049Y-77603026D01*
X176842148Y-77507716D01*
X176842159Y-77507711D01*
X177057855Y-77383178D01*
X177155045Y-77308600D01*
X177155045Y-77308597D01*
X176247488Y-76401041D01*
X176307890Y-76376022D01*
X176414351Y-76304888D01*
X176504888Y-76214351D01*
X176576022Y-76107890D01*
X176601041Y-76047489D01*
X177508597Y-76955045D01*
X177508600Y-76955045D01*
X177583178Y-76857855D01*
X177707711Y-76642159D01*
X177707716Y-76642148D01*
X177803026Y-76412049D01*
X177867491Y-76171463D01*
X177900000Y-75924533D01*
X177900000Y-75675466D01*
X177867491Y-75428536D01*
X177803026Y-75187950D01*
X177707716Y-74957851D01*
X177707711Y-74957840D01*
X177583186Y-74742158D01*
X177583174Y-74742140D01*
X177529600Y-74672322D01*
X177529599Y-74672321D01*
X177508598Y-74644953D01*
X176601041Y-75552510D01*
X176576022Y-75492110D01*
X176504888Y-75385649D01*
X176414351Y-75295112D01*
X176307890Y-75223978D01*
X176247487Y-75198957D01*
X176846461Y-74599984D01*
X179099500Y-74599984D01*
X179099500Y-77000015D01*
X179110000Y-77102795D01*
X179110001Y-77102796D01*
X179165186Y-77269335D01*
X179165187Y-77269337D01*
X179257286Y-77418651D01*
X179257289Y-77418655D01*
X179381344Y-77542710D01*
X179381348Y-77542713D01*
X179530662Y-77634812D01*
X179530664Y-77634813D01*
X179530666Y-77634814D01*
X179697203Y-77689999D01*
X179799992Y-77700500D01*
X179799997Y-77700500D01*
X182200003Y-77700500D01*
X182200008Y-77700500D01*
X182302797Y-77689999D01*
X182469334Y-77634814D01*
X182618655Y-77542711D01*
X182742711Y-77418655D01*
X182834814Y-77269334D01*
X182889999Y-77102797D01*
X182900500Y-77000008D01*
X182900500Y-75675466D01*
X188100000Y-75675466D01*
X188100000Y-75924533D01*
X188132508Y-76171463D01*
X188196973Y-76412049D01*
X188292283Y-76642148D01*
X188292288Y-76642159D01*
X188416813Y-76857841D01*
X188416819Y-76857849D01*
X188491400Y-76955045D01*
X189398958Y-76047487D01*
X189423978Y-76107890D01*
X189495112Y-76214351D01*
X189585649Y-76304888D01*
X189692110Y-76376022D01*
X189752511Y-76401041D01*
X188844953Y-77308598D01*
X188942150Y-77383180D01*
X188942158Y-77383186D01*
X189157840Y-77507711D01*
X189157851Y-77507716D01*
X189387950Y-77603026D01*
X189628536Y-77667491D01*
X189875466Y-77700000D01*
X190124534Y-77700000D01*
X190371463Y-77667491D01*
X190612049Y-77603026D01*
X190842148Y-77507716D01*
X190842159Y-77507711D01*
X191057855Y-77383178D01*
X191155045Y-77308600D01*
X191155045Y-77308597D01*
X190247488Y-76401041D01*
X190307890Y-76376022D01*
X190414351Y-76304888D01*
X190504888Y-76214351D01*
X190576022Y-76107890D01*
X190601041Y-76047489D01*
X191508597Y-76955045D01*
X191508600Y-76955045D01*
X191583178Y-76857855D01*
X191707711Y-76642159D01*
X191707716Y-76642148D01*
X191803026Y-76412049D01*
X191867491Y-76171463D01*
X191900000Y-75924533D01*
X191900000Y-75675466D01*
X191867491Y-75428536D01*
X191803026Y-75187950D01*
X191707716Y-74957851D01*
X191707711Y-74957840D01*
X191583186Y-74742158D01*
X191583174Y-74742140D01*
X191529600Y-74672322D01*
X191529599Y-74672321D01*
X191508598Y-74644953D01*
X190601041Y-75552510D01*
X190576022Y-75492110D01*
X190504888Y-75385649D01*
X190414351Y-75295112D01*
X190307890Y-75223978D01*
X190247487Y-75198957D01*
X190846461Y-74599984D01*
X193099500Y-74599984D01*
X193099500Y-77000015D01*
X193110000Y-77102795D01*
X193110001Y-77102796D01*
X193165186Y-77269335D01*
X193165187Y-77269337D01*
X193257286Y-77418651D01*
X193257289Y-77418655D01*
X193381344Y-77542710D01*
X193381348Y-77542713D01*
X193530662Y-77634812D01*
X193530664Y-77634813D01*
X193530666Y-77634814D01*
X193697203Y-77689999D01*
X193799992Y-77700500D01*
X193799997Y-77700500D01*
X196200003Y-77700500D01*
X196200008Y-77700500D01*
X196302797Y-77689999D01*
X196469334Y-77634814D01*
X196618655Y-77542711D01*
X196742711Y-77418655D01*
X196834814Y-77269334D01*
X196889999Y-77102797D01*
X196900500Y-77000008D01*
X196900500Y-74599992D01*
X196889999Y-74497203D01*
X196834814Y-74330666D01*
X196810594Y-74291400D01*
X196742713Y-74181348D01*
X196742710Y-74181344D01*
X196618655Y-74057289D01*
X196618651Y-74057286D01*
X196469337Y-73965187D01*
X196469335Y-73965186D01*
X196386065Y-73937593D01*
X196302797Y-73910001D01*
X196302795Y-73910000D01*
X196200015Y-73899500D01*
X196200008Y-73899500D01*
X193799992Y-73899500D01*
X193799984Y-73899500D01*
X193697204Y-73910000D01*
X193697203Y-73910001D01*
X193530664Y-73965186D01*
X193530662Y-73965187D01*
X193381348Y-74057286D01*
X193381344Y-74057289D01*
X193257289Y-74181344D01*
X193257286Y-74181348D01*
X193165187Y-74330662D01*
X193165186Y-74330664D01*
X193110001Y-74497203D01*
X193110000Y-74497204D01*
X193099500Y-74599984D01*
X190846461Y-74599984D01*
X191155045Y-74291400D01*
X191057849Y-74216819D01*
X191057841Y-74216813D01*
X190842159Y-74092288D01*
X190842148Y-74092283D01*
X190612049Y-73996973D01*
X190371463Y-73932508D01*
X190124534Y-73900000D01*
X189875466Y-73900000D01*
X189628536Y-73932508D01*
X189387950Y-73996973D01*
X189157851Y-74092283D01*
X189157847Y-74092285D01*
X188942143Y-74216823D01*
X188844953Y-74291399D01*
X188844953Y-74291400D01*
X189752511Y-75198958D01*
X189692110Y-75223978D01*
X189585649Y-75295112D01*
X189495112Y-75385649D01*
X189423978Y-75492110D01*
X189398958Y-75552511D01*
X188491400Y-74644953D01*
X188491399Y-74644953D01*
X188416823Y-74742143D01*
X188292285Y-74957847D01*
X188292283Y-74957851D01*
X188196973Y-75187950D01*
X188132508Y-75428536D01*
X188100000Y-75675466D01*
X182900500Y-75675466D01*
X182900500Y-74599992D01*
X182889999Y-74497203D01*
X182834814Y-74330666D01*
X182810594Y-74291400D01*
X182742713Y-74181348D01*
X182742710Y-74181344D01*
X182618655Y-74057289D01*
X182618651Y-74057286D01*
X182469337Y-73965187D01*
X182469335Y-73965186D01*
X182386065Y-73937593D01*
X182302797Y-73910001D01*
X182302795Y-73910000D01*
X182200015Y-73899500D01*
X182200008Y-73899500D01*
X179799992Y-73899500D01*
X179799984Y-73899500D01*
X179697204Y-73910000D01*
X179697203Y-73910001D01*
X179530664Y-73965186D01*
X179530662Y-73965187D01*
X179381348Y-74057286D01*
X179381344Y-74057289D01*
X179257289Y-74181344D01*
X179257286Y-74181348D01*
X179165187Y-74330662D01*
X179165186Y-74330664D01*
X179110001Y-74497203D01*
X179110000Y-74497204D01*
X179099500Y-74599984D01*
X176846461Y-74599984D01*
X177155045Y-74291400D01*
X177057849Y-74216819D01*
X177057841Y-74216813D01*
X176842159Y-74092288D01*
X176842148Y-74092283D01*
X176612049Y-73996973D01*
X176371463Y-73932508D01*
X176124534Y-73900000D01*
X175875466Y-73900000D01*
X175628536Y-73932508D01*
X175387950Y-73996973D01*
X175157851Y-74092283D01*
X175157847Y-74092285D01*
X174942143Y-74216823D01*
X174844953Y-74291399D01*
X174844953Y-74291400D01*
X175752511Y-75198958D01*
X175692110Y-75223978D01*
X175585649Y-75295112D01*
X175495112Y-75385649D01*
X175423978Y-75492110D01*
X175398958Y-75552511D01*
X174491400Y-74644953D01*
X174491399Y-74644953D01*
X174416823Y-74742143D01*
X174292285Y-74957847D01*
X174292283Y-74957851D01*
X174196973Y-75187950D01*
X174132508Y-75428536D01*
X174100000Y-75675466D01*
X169037963Y-75675466D01*
X169025021Y-75610402D01*
X169000001Y-75550000D01*
X170300000Y-75550000D01*
X170300000Y-74600027D01*
X170299999Y-74600014D01*
X170289506Y-74497310D01*
X170289505Y-74497303D01*
X170250090Y-74378357D01*
X170234358Y-74330881D01*
X170234356Y-74330876D01*
X170142315Y-74181655D01*
X170018344Y-74057684D01*
X169869123Y-73965643D01*
X169869118Y-73965641D01*
X169702696Y-73910494D01*
X169702689Y-73910493D01*
X169599985Y-73900000D01*
X168650000Y-73900000D01*
X168650000Y-75199998D01*
X168589598Y-75174979D01*
X168464019Y-75150000D01*
X168335981Y-75150000D01*
X168210402Y-75174979D01*
X168150000Y-75199998D01*
X168150000Y-73900000D01*
X167200014Y-73900000D01*
X167097310Y-73910493D01*
X167097303Y-73910494D01*
X166930881Y-73965641D01*
X166930876Y-73965643D01*
X166781655Y-74057684D01*
X166657684Y-74181655D01*
X166565643Y-74330876D01*
X166565641Y-74330881D01*
X166510494Y-74497303D01*
X166510493Y-74497310D01*
X166500000Y-74600014D01*
X164874747Y-74600014D01*
X164831939Y-74544225D01*
X164831933Y-74544218D01*
X164655781Y-74368066D01*
X164655774Y-74368060D01*
X164458126Y-74216400D01*
X164242376Y-74091837D01*
X164242361Y-74091830D01*
X164012207Y-73996498D01*
X163895349Y-73965186D01*
X163771565Y-73932018D01*
X163771564Y-73932017D01*
X163771561Y-73932017D01*
X163524575Y-73899501D01*
X163524570Y-73899500D01*
X163524565Y-73899500D01*
X163275435Y-73899500D01*
X163275429Y-73899500D01*
X163275424Y-73899501D01*
X163028438Y-73932017D01*
X162787792Y-73996498D01*
X162557638Y-74091830D01*
X162557623Y-74091837D01*
X162341873Y-74216400D01*
X162144225Y-74368060D01*
X162144218Y-74368066D01*
X161968066Y-74544218D01*
X161968060Y-74544225D01*
X161816400Y-74741873D01*
X161691837Y-74957623D01*
X161691830Y-74957638D01*
X161596498Y-75187792D01*
X161532017Y-75428438D01*
X161499501Y-75675424D01*
X161499500Y-75675441D01*
X159300500Y-75675441D01*
X159300500Y-70204427D01*
X159300816Y-70195581D01*
X159315130Y-69995443D01*
X159315131Y-69995434D01*
X159317646Y-69977938D01*
X159359356Y-69786199D01*
X159364333Y-69769248D01*
X159432911Y-69585385D01*
X159440259Y-69569298D01*
X159502815Y-69454734D01*
X159534291Y-69397089D01*
X159543845Y-69382221D01*
X159661448Y-69225123D01*
X159673020Y-69211769D01*
X159811769Y-69073020D01*
X159825123Y-69061448D01*
X159982221Y-68943845D01*
X159997089Y-68934291D01*
X160169298Y-68840258D01*
X160185385Y-68832911D01*
X160369248Y-68764333D01*
X160386199Y-68759356D01*
X160577938Y-68717646D01*
X160595436Y-68715130D01*
X160795582Y-68700816D01*
X160804428Y-68700500D01*
X160865892Y-68700500D01*
X199934108Y-68700500D01*
X199995572Y-68700500D01*
X200004418Y-68700816D01*
G37*
%TD.AperFunction*%
%TD*%
M02*
