%TF.GenerationSoftware,KiCad,Pcbnew,9.0.6*%
%TF.CreationDate,2026-07-31T13:26:48+05:30*%
%TF.ProjectId,HACK_GVS,4841434b-5f47-4565-932e-6b696361645f,rev?*%
%TF.SameCoordinates,Original*%
%TF.FileFunction,Copper,L2,Bot*%
%TF.FilePolarity,Positive*%
%FSLAX46Y46*%
G04 Gerber Fmt 4.6, Leading zero omitted, Abs format (unit mm)*
G04 Created by KiCad (PCBNEW 9.0.6) date 2026-07-31 13:26:48*
%MOMM*%
%LPD*%
G01*
G04 APERTURE LIST*
G04 Aperture macros list*
%AMRoundRect*
0 Rectangle with rounded corners*
0 $1 Rounding radius*
0 $2 $3 $4 $5 $6 $7 $8 $9 X,Y pos of 4 corners*
0 Add a 4 corners polygon primitive as box body*
4,1,4,$2,$3,$4,$5,$6,$7,$8,$9,$2,$3,0*
0 Add four circle primitives for the rounded corners*
1,1,$1+$1,$2,$3*
1,1,$1+$1,$4,$5*
1,1,$1+$1,$6,$7*
1,1,$1+$1,$8,$9*
0 Add four rect primitives between the rounded corners*
20,1,$1+$1,$2,$3,$4,$5,0*
20,1,$1+$1,$4,$5,$6,$7,0*
20,1,$1+$1,$6,$7,$8,$9,0*
20,1,$1+$1,$8,$9,$2,$3,0*%
G04 Aperture macros list end*
%TA.AperFunction,ComponentPad*%
%ADD10RoundRect,0.250001X1.149999X-1.149999X1.149999X1.149999X-1.149999X1.149999X-1.149999X-1.149999X0*%
%TD*%
%TA.AperFunction,ComponentPad*%
%ADD11C,2.800000*%
%TD*%
%TA.AperFunction,ComponentPad*%
%ADD12C,1.600000*%
%TD*%
%TA.AperFunction,ComponentPad*%
%ADD13RoundRect,0.250001X1.149999X1.149999X-1.149999X1.149999X-1.149999X-1.149999X1.149999X-1.149999X0*%
%TD*%
%TA.AperFunction,ComponentPad*%
%ADD14C,1.400000*%
%TD*%
%TA.AperFunction,ComponentPad*%
%ADD15RoundRect,0.250001X-1.149999X-1.149999X1.149999X-1.149999X1.149999X1.149999X-1.149999X1.149999X0*%
%TD*%
%TA.AperFunction,ComponentPad*%
%ADD16RoundRect,0.250000X-0.950000X-0.550000X0.950000X-0.550000X0.950000X0.550000X-0.950000X0.550000X0*%
%TD*%
%TA.AperFunction,ComponentPad*%
%ADD17O,2.400000X1.600000*%
%TD*%
%TA.AperFunction,Conductor*%
%ADD18C,0.200000*%
%TD*%
G04 APERTURE END LIST*
D10*
%TO.P,J5,1,Pin_1*%
%TO.N,MCU_DAC*%
X197000000Y-100600000D03*
D11*
%TO.P,J5,2,Pin_2*%
%TO.N,GND*%
X197000000Y-95600000D03*
%TD*%
D12*
%TO.P,C1,1*%
%TO.N,Net-(U1A-+)*%
X185200000Y-86450000D03*
%TO.P,C1,2*%
%TO.N,GND*%
X185200000Y-83950000D03*
%TD*%
D13*
%TO.P,J4,1,Pin_1*%
%TO.N,+3V3*%
X195000000Y-75800000D03*
D11*
%TO.P,J4,2,Pin_2*%
%TO.N,GND*%
X190000000Y-75800000D03*
%TD*%
D14*
%TO.P,R4,1*%
%TO.N,1.65V_REF*%
X160920000Y-87600000D03*
%TO.P,R4,2*%
%TO.N,MCU_DAC*%
X166000000Y-87600000D03*
%TD*%
D15*
%TO.P,J3,1,Pin_1*%
%TO.N,MAST_A*%
X172400000Y-100800000D03*
D11*
%TO.P,J3,2,Pin_2*%
%TO.N,MAST_B*%
X177400000Y-100800000D03*
%TD*%
D16*
%TO.P,U1,1*%
%TO.N,1.65V_REF*%
X170700000Y-84960000D03*
D17*
%TO.P,U1,2,-*%
X170700000Y-87500000D03*
%TO.P,U1,3,+*%
%TO.N,Net-(U1A-+)*%
X170700000Y-90040000D03*
%TO.P,U1,4,V-*%
%TO.N,-15V*%
X170700000Y-92580000D03*
%TO.P,U1,5,+*%
%TO.N,MCU_DAC*%
X178320000Y-92580000D03*
%TO.P,U1,6,-*%
%TO.N,MAST_A*%
X178320000Y-90040000D03*
%TO.P,U1,7*%
%TO.N,MAST_B*%
X178320000Y-87500000D03*
%TO.P,U1,8,V+*%
%TO.N,+15V*%
X178320000Y-84960000D03*
%TD*%
D13*
%TO.P,J1,1,Pin_1*%
%TO.N,+15V*%
X181000000Y-75800000D03*
D11*
%TO.P,J1,2,Pin_2*%
%TO.N,GND*%
X176000000Y-75800000D03*
%TD*%
D14*
%TO.P,R2,1*%
%TO.N,Net-(U1A-+)*%
X187200000Y-94890000D03*
%TO.P,R2,2*%
%TO.N,GND*%
X187200000Y-89810001D03*
%TD*%
%TO.P,R1,1*%
%TO.N,+3V3*%
X183150000Y-94890000D03*
%TO.P,R1,2*%
%TO.N,Net-(U1A-+)*%
X183150000Y-89810001D03*
%TD*%
%TO.P,R3,1*%
%TO.N,1.65V_REF*%
X166140000Y-93000000D03*
%TO.P,R3,2*%
%TO.N,MAST_A*%
X161060001Y-93000000D03*
%TD*%
D13*
%TO.P,J2,1,Pin_1*%
%TO.N,GND*%
X168400000Y-75800000D03*
D11*
%TO.P,J2,2,Pin_2*%
%TO.N,-15V*%
X163400000Y-75800000D03*
%TD*%
D18*
%TO.N,Net-(U1A-+)*%
X183150000Y-89810000D02*
X183150000Y-88500000D01*
X183150000Y-88500000D02*
X185200000Y-86450000D01*
X183150000Y-88500000D02*
X185200000Y-86450000D01*
%TO.N,+15V*%
X178320000Y-84960000D02*
X179822000Y-84960000D01*
X181000000Y-83782000D02*
X181000000Y-75800000D01*
X179822000Y-84960000D02*
X181000000Y-83782000D01*
%TO.N,-15V*%
X172202000Y-87036000D02*
X171552000Y-86385800D01*
X171552000Y-86385800D02*
X169775000Y-86385800D01*
X169775000Y-86385800D02*
X163400000Y-80011200D01*
X163400000Y-80011200D02*
X163400000Y-75800000D01*
X172202000Y-92580000D02*
X172202000Y-87036000D01*
X169775000Y-86385800D02*
X163400000Y-80011200D01*
X170700000Y-92580000D02*
X172202000Y-92580000D01*
X163400000Y-80011200D02*
X163400000Y-75800000D01*
X172202000Y-92580000D02*
X172202000Y-87036000D01*
X172202000Y-87036000D02*
X171552000Y-86385800D01*
X171552000Y-86385800D02*
X169775000Y-86385800D01*
%TO.N,MAST_A*%
X175000000Y-103400000D02*
X174072000Y-102472000D01*
X180800000Y-101800000D02*
X179200000Y-103400000D01*
X179840000Y-90040000D02*
X180800000Y-91000000D01*
X180800000Y-91000000D02*
X180800000Y-101800000D01*
X178320000Y-90040000D02*
X179840000Y-90040000D01*
X174072000Y-102472000D02*
X174054000Y-102472000D01*
X172350000Y-100768000D02*
X174054000Y-102472000D01*
X179200000Y-103400000D02*
X175000000Y-103400000D01*
X174054000Y-102472000D02*
X172350000Y-100768000D01*
%TO.N,MAST_B*%
X176818000Y-100236000D02*
X176818000Y-87500000D01*
X176818000Y-87500000D02*
X176818000Y-100236000D01*
X178320000Y-87500000D02*
X176818000Y-87500000D01*
X176818000Y-100236000D02*
X177350000Y-100768000D01*
X177350000Y-100768000D02*
X176818000Y-100236000D01*
%TO.N,+3V3*%
X183150000Y-92414700D02*
X195050000Y-80514700D01*
X183150000Y-94890000D02*
X183150000Y-92414700D01*
X183150000Y-92414700D02*
X195050000Y-80514700D01*
X195050000Y-80514700D02*
X195050000Y-75832500D01*
X195050000Y-80514700D02*
X195050000Y-75832500D01*
%TO.N,1.65V_REF*%
X163878000Y-90558300D02*
X160920000Y-87600000D01*
X166140000Y-90558300D02*
X169198000Y-87500000D01*
X169198000Y-87500000D02*
X170700000Y-87500000D01*
X166140000Y-90558300D02*
X163878000Y-90558300D01*
X163878000Y-90558300D02*
X160920000Y-87600000D01*
X170700000Y-87500000D02*
X169198000Y-87500000D01*
X166140000Y-93000000D02*
X166140000Y-90558300D01*
%TD*%
%TA.AperFunction,Conductor*%
%TO.N,GND*%
G36*
X200004418Y-68700816D02*
G01*
X200204561Y-68715130D01*
X200222063Y-68717647D01*
X200413797Y-68759355D01*
X200430755Y-68764334D01*
X200614609Y-68832909D01*
X200630701Y-68840259D01*
X200802904Y-68934288D01*
X200817784Y-68943849D01*
X200974867Y-69061441D01*
X200988237Y-69073027D01*
X201126972Y-69211762D01*
X201138558Y-69225132D01*
X201256146Y-69382210D01*
X201265711Y-69397095D01*
X201359740Y-69569298D01*
X201367090Y-69585390D01*
X201435662Y-69769236D01*
X201440646Y-69786212D01*
X201482351Y-69977931D01*
X201484869Y-69995442D01*
X201499184Y-70195580D01*
X201499500Y-70204427D01*
X201499500Y-103595572D01*
X201499184Y-103604419D01*
X201484869Y-103804557D01*
X201482351Y-103822068D01*
X201440646Y-104013787D01*
X201435662Y-104030763D01*
X201367090Y-104214609D01*
X201359740Y-104230701D01*
X201265711Y-104402904D01*
X201256146Y-104417789D01*
X201138558Y-104574867D01*
X201126972Y-104588237D01*
X200988237Y-104726972D01*
X200974867Y-104738558D01*
X200817789Y-104856146D01*
X200802904Y-104865711D01*
X200630701Y-104959740D01*
X200614609Y-104967090D01*
X200430763Y-105035662D01*
X200413787Y-105040646D01*
X200222068Y-105082351D01*
X200204557Y-105084869D01*
X200023779Y-105097799D01*
X200004417Y-105099184D01*
X199995572Y-105099500D01*
X160804428Y-105099500D01*
X160795582Y-105099184D01*
X160773622Y-105097613D01*
X160595442Y-105084869D01*
X160577931Y-105082351D01*
X160386212Y-105040646D01*
X160369236Y-105035662D01*
X160185390Y-104967090D01*
X160169298Y-104959740D01*
X159997095Y-104865711D01*
X159982210Y-104856146D01*
X159825132Y-104738558D01*
X159811762Y-104726972D01*
X159673027Y-104588237D01*
X159661441Y-104574867D01*
X159543849Y-104417784D01*
X159534288Y-104402904D01*
X159440259Y-104230701D01*
X159432909Y-104214609D01*
X159372091Y-104051551D01*
X159364334Y-104030755D01*
X159359355Y-104013797D01*
X159317647Y-103822063D01*
X159315130Y-103804556D01*
X159312566Y-103768713D01*
X159300816Y-103604418D01*
X159300500Y-103595572D01*
X159300500Y-99599984D01*
X170499500Y-99599984D01*
X170499500Y-102000015D01*
X170510000Y-102102795D01*
X170510001Y-102102797D01*
X170531845Y-102168717D01*
X170565186Y-102269335D01*
X170565187Y-102269337D01*
X170657286Y-102418651D01*
X170657289Y-102418655D01*
X170781344Y-102542710D01*
X170781348Y-102542713D01*
X170930662Y-102634812D01*
X170930664Y-102634813D01*
X170930666Y-102634814D01*
X171097203Y-102689999D01*
X171199992Y-102700500D01*
X173381903Y-102700500D01*
X173411343Y-102709144D01*
X173441330Y-102715668D01*
X173446345Y-102719422D01*
X173448942Y-102720185D01*
X173469584Y-102736819D01*
X173569139Y-102836374D01*
X173569149Y-102836385D01*
X173573479Y-102840715D01*
X173573480Y-102840716D01*
X173685284Y-102952520D01*
X173685286Y-102952521D01*
X173713737Y-102968947D01*
X173739419Y-102988654D01*
X174515139Y-103764374D01*
X174515149Y-103764385D01*
X174519479Y-103768715D01*
X174519480Y-103768716D01*
X174631284Y-103880520D01*
X174718095Y-103930639D01*
X174718097Y-103930641D01*
X174756151Y-103952611D01*
X174768215Y-103959577D01*
X174920943Y-104000500D01*
X179113331Y-104000500D01*
X179113347Y-104000501D01*
X179120943Y-104000501D01*
X179279054Y-104000501D01*
X179279057Y-104000501D01*
X179431785Y-103959577D01*
X179481904Y-103930639D01*
X179568716Y-103880520D01*
X179680520Y-103768716D01*
X179680520Y-103768714D01*
X179690728Y-103758507D01*
X179690729Y-103758504D01*
X181280520Y-102168716D01*
X181359577Y-102031784D01*
X181400501Y-101879057D01*
X181400501Y-101720942D01*
X181400501Y-101713347D01*
X181400500Y-101713329D01*
X181400500Y-99399984D01*
X195099500Y-99399984D01*
X195099500Y-101800015D01*
X195110000Y-101902795D01*
X195110001Y-101902796D01*
X195165186Y-102069335D01*
X195165187Y-102069337D01*
X195257286Y-102218651D01*
X195257289Y-102218655D01*
X195381344Y-102342710D01*
X195381348Y-102342713D01*
X195530662Y-102434812D01*
X195530664Y-102434813D01*
X195530666Y-102434814D01*
X195697203Y-102489999D01*
X195799992Y-102500500D01*
X195799997Y-102500500D01*
X198200003Y-102500500D01*
X198200008Y-102500500D01*
X198302797Y-102489999D01*
X198469334Y-102434814D01*
X198618655Y-102342711D01*
X198742711Y-102218655D01*
X198834814Y-102069334D01*
X198889999Y-101902797D01*
X198900500Y-101800008D01*
X198900500Y-99399992D01*
X198889999Y-99297203D01*
X198834814Y-99130666D01*
X198810863Y-99091836D01*
X198742713Y-98981348D01*
X198742710Y-98981344D01*
X198618655Y-98857289D01*
X198618651Y-98857286D01*
X198469337Y-98765187D01*
X198469335Y-98765186D01*
X198386065Y-98737593D01*
X198302797Y-98710001D01*
X198302795Y-98710000D01*
X198200015Y-98699500D01*
X198200008Y-98699500D01*
X195799992Y-98699500D01*
X195799984Y-98699500D01*
X195697204Y-98710000D01*
X195697203Y-98710001D01*
X195530664Y-98765186D01*
X195530662Y-98765187D01*
X195381348Y-98857286D01*
X195381344Y-98857289D01*
X195257289Y-98981344D01*
X195257286Y-98981348D01*
X195165187Y-99130662D01*
X195165186Y-99130664D01*
X195110001Y-99297203D01*
X195110000Y-99297204D01*
X195099500Y-99399984D01*
X181400500Y-99399984D01*
X181400500Y-91089059D01*
X181400501Y-91089046D01*
X181400501Y-90920945D01*
X181400501Y-90920943D01*
X181359577Y-90768215D01*
X181297388Y-90660501D01*
X181280520Y-90631284D01*
X181168716Y-90519480D01*
X181168713Y-90519478D01*
X180364749Y-89715514D01*
X181949500Y-89715514D01*
X181949500Y-89904487D01*
X181979059Y-90091119D01*
X182037454Y-90270837D01*
X182075005Y-90344534D01*
X182123240Y-90439200D01*
X182234310Y-90592074D01*
X182367927Y-90725691D01*
X182520801Y-90836761D01*
X182563223Y-90858376D01*
X182689163Y-90922546D01*
X182689165Y-90922546D01*
X182689168Y-90922548D01*
X182785497Y-90953847D01*
X182868881Y-90980941D01*
X183055514Y-91010501D01*
X183055519Y-91010501D01*
X183244486Y-91010501D01*
X183359517Y-90992281D01*
X183414688Y-90983543D01*
X183483980Y-90992497D01*
X183537432Y-91037493D01*
X183558072Y-91104245D01*
X183539347Y-91171559D01*
X183521766Y-91193697D01*
X182781286Y-91934178D01*
X182669481Y-92045982D01*
X182669479Y-92045985D01*
X182619361Y-92132794D01*
X182619359Y-92132796D01*
X182590425Y-92182909D01*
X182590424Y-92182910D01*
X182590423Y-92182915D01*
X182549499Y-92335643D01*
X182549499Y-92335645D01*
X182549499Y-92503746D01*
X182549500Y-92503759D01*
X182549500Y-93779207D01*
X182529815Y-93846246D01*
X182498386Y-93879525D01*
X182367925Y-93974311D01*
X182234312Y-94107924D01*
X182234312Y-94107925D01*
X182234310Y-94107927D01*
X182188528Y-94170940D01*
X182123240Y-94260800D01*
X182037454Y-94429163D01*
X181979059Y-94608881D01*
X181949500Y-94795513D01*
X181949500Y-94984486D01*
X181979059Y-95171118D01*
X182037454Y-95350836D01*
X182100957Y-95475466D01*
X182123240Y-95519199D01*
X182234310Y-95672073D01*
X182367927Y-95805690D01*
X182520801Y-95916760D01*
X182593012Y-95953553D01*
X182689163Y-96002545D01*
X182689165Y-96002545D01*
X182689168Y-96002547D01*
X182725497Y-96014351D01*
X182868881Y-96060940D01*
X183055514Y-96090500D01*
X183055519Y-96090500D01*
X183244486Y-96090500D01*
X183431118Y-96060940D01*
X183610832Y-96002547D01*
X183779199Y-95916760D01*
X183932073Y-95805690D01*
X184065690Y-95672073D01*
X184176760Y-95519199D01*
X184262547Y-95350832D01*
X184320940Y-95171118D01*
X184332978Y-95095112D01*
X184350500Y-94984486D01*
X184350500Y-94795513D01*
X185999500Y-94795513D01*
X185999500Y-94984486D01*
X186029059Y-95171118D01*
X186087454Y-95350836D01*
X186150957Y-95475466D01*
X186173240Y-95519199D01*
X186284310Y-95672073D01*
X186417927Y-95805690D01*
X186570801Y-95916760D01*
X186643012Y-95953553D01*
X186739163Y-96002545D01*
X186739165Y-96002545D01*
X186739168Y-96002547D01*
X186775497Y-96014351D01*
X186918881Y-96060940D01*
X187105514Y-96090500D01*
X187105519Y-96090500D01*
X187294486Y-96090500D01*
X187481118Y-96060940D01*
X187660832Y-96002547D01*
X187829199Y-95916760D01*
X187982073Y-95805690D01*
X188115690Y-95672073D01*
X188226760Y-95519199D01*
X188249043Y-95475466D01*
X195100000Y-95475466D01*
X195100000Y-95724533D01*
X195132508Y-95971463D01*
X195196973Y-96212049D01*
X195292283Y-96442148D01*
X195292288Y-96442159D01*
X195416813Y-96657841D01*
X195416819Y-96657849D01*
X195491400Y-96755045D01*
X196398958Y-95847487D01*
X196423978Y-95907890D01*
X196495112Y-96014351D01*
X196585649Y-96104888D01*
X196692110Y-96176022D01*
X196752511Y-96201041D01*
X195844953Y-97108598D01*
X195942150Y-97183180D01*
X195942158Y-97183186D01*
X196157840Y-97307711D01*
X196157851Y-97307716D01*
X196387950Y-97403026D01*
X196628536Y-97467491D01*
X196875466Y-97500000D01*
X197124534Y-97500000D01*
X197371463Y-97467491D01*
X197612049Y-97403026D01*
X197842148Y-97307716D01*
X197842159Y-97307711D01*
X198057855Y-97183178D01*
X198155045Y-97108600D01*
X198155045Y-97108597D01*
X197247488Y-96201041D01*
X197307890Y-96176022D01*
X197414351Y-96104888D01*
X197504888Y-96014351D01*
X197576022Y-95907890D01*
X197601041Y-95847489D01*
X198508597Y-96755045D01*
X198508600Y-96755045D01*
X198583178Y-96657855D01*
X198707711Y-96442159D01*
X198707716Y-96442148D01*
X198803026Y-96212049D01*
X198867491Y-95971463D01*
X198900000Y-95724533D01*
X198900000Y-95475466D01*
X198867491Y-95228536D01*
X198803026Y-94987950D01*
X198707716Y-94757851D01*
X198707711Y-94757840D01*
X198583186Y-94542158D01*
X198583180Y-94542150D01*
X198508598Y-94444953D01*
X197601041Y-95352510D01*
X197576022Y-95292110D01*
X197504888Y-95185649D01*
X197414351Y-95095112D01*
X197307890Y-95023978D01*
X197247487Y-94998957D01*
X198155045Y-94091400D01*
X198057849Y-94016819D01*
X198057841Y-94016813D01*
X197842159Y-93892288D01*
X197842148Y-93892283D01*
X197612049Y-93796973D01*
X197371463Y-93732508D01*
X197124534Y-93700000D01*
X196875466Y-93700000D01*
X196628536Y-93732508D01*
X196387950Y-93796973D01*
X196157851Y-93892283D01*
X196157847Y-93892285D01*
X195942143Y-94016823D01*
X195844953Y-94091399D01*
X195844953Y-94091400D01*
X196752511Y-94998958D01*
X196692110Y-95023978D01*
X196585649Y-95095112D01*
X196495112Y-95185649D01*
X196423978Y-95292110D01*
X196398958Y-95352511D01*
X195491400Y-94444953D01*
X195491399Y-94444953D01*
X195416823Y-94542143D01*
X195292285Y-94757847D01*
X195292283Y-94757851D01*
X195196973Y-94987950D01*
X195132508Y-95228536D01*
X195100000Y-95475466D01*
X188249043Y-95475466D01*
X188312547Y-95350832D01*
X188370940Y-95171118D01*
X188382978Y-95095112D01*
X188400500Y-94984486D01*
X188400500Y-94795513D01*
X188370940Y-94608881D01*
X188312545Y-94429163D01*
X188226759Y-94260800D01*
X188191477Y-94212239D01*
X188115690Y-94107927D01*
X187982073Y-93974310D01*
X187829199Y-93863240D01*
X187800221Y-93848475D01*
X187660836Y-93777454D01*
X187481118Y-93719059D01*
X187294486Y-93689500D01*
X187294481Y-93689500D01*
X187105519Y-93689500D01*
X187105514Y-93689500D01*
X186918881Y-93719059D01*
X186739163Y-93777454D01*
X186570800Y-93863240D01*
X186530824Y-93892285D01*
X186417927Y-93974310D01*
X186417925Y-93974312D01*
X186417924Y-93974312D01*
X186284312Y-94107924D01*
X186284312Y-94107925D01*
X186284310Y-94107927D01*
X186238528Y-94170940D01*
X186173240Y-94260800D01*
X186087454Y-94429163D01*
X186029059Y-94608881D01*
X185999500Y-94795513D01*
X184350500Y-94795513D01*
X184320940Y-94608881D01*
X184262545Y-94429163D01*
X184176759Y-94260800D01*
X184141477Y-94212239D01*
X184065690Y-94107927D01*
X183932073Y-93974310D01*
X183851386Y-93915687D01*
X183801614Y-93879525D01*
X183758948Y-93824194D01*
X183750500Y-93779207D01*
X183750500Y-92714796D01*
X183770185Y-92647757D01*
X183786814Y-92627120D01*
X185596050Y-90817883D01*
X186545669Y-90817883D01*
X186545670Y-90817884D01*
X186571059Y-90836330D01*
X186739362Y-90922086D01*
X186918997Y-90980452D01*
X187105553Y-91010001D01*
X187294447Y-91010001D01*
X187481002Y-90980452D01*
X187660637Y-90922086D01*
X187828937Y-90836332D01*
X187854328Y-90817884D01*
X187854328Y-90817883D01*
X187200001Y-90163555D01*
X187200000Y-90163555D01*
X186545669Y-90817883D01*
X185596050Y-90817883D01*
X185987406Y-90426527D01*
X186048726Y-90393045D01*
X186118418Y-90398029D01*
X186174351Y-90439901D01*
X186175402Y-90441325D01*
X186192116Y-90464329D01*
X186850000Y-89806446D01*
X186850000Y-89856079D01*
X186873852Y-89945096D01*
X186919930Y-90024906D01*
X186985095Y-90090071D01*
X187064905Y-90136149D01*
X187153922Y-90160001D01*
X187246078Y-90160001D01*
X187335095Y-90136149D01*
X187414905Y-90090071D01*
X187480070Y-90024906D01*
X187526148Y-89945096D01*
X187550000Y-89856079D01*
X187550000Y-89810000D01*
X187553554Y-89810000D01*
X187553554Y-89810001D01*
X188207882Y-90464329D01*
X188207883Y-90464329D01*
X188226331Y-90438938D01*
X188312085Y-90270638D01*
X188370451Y-90091003D01*
X188400000Y-89904448D01*
X188400000Y-89715553D01*
X188370451Y-89528998D01*
X188312085Y-89349363D01*
X188226329Y-89181060D01*
X188207883Y-89155671D01*
X188207882Y-89155670D01*
X187553554Y-89810000D01*
X187550000Y-89810000D01*
X187550000Y-89763923D01*
X187526148Y-89674906D01*
X187480070Y-89595096D01*
X187414905Y-89529931D01*
X187335095Y-89483853D01*
X187246078Y-89460001D01*
X187196446Y-89460001D01*
X187854328Y-88802117D01*
X187854328Y-88802116D01*
X187831324Y-88785403D01*
X187788659Y-88730073D01*
X187782680Y-88660460D01*
X187815286Y-88598665D01*
X187816414Y-88597519D01*
X195408506Y-81005427D01*
X195408511Y-81005424D01*
X195418714Y-80995220D01*
X195418716Y-80995220D01*
X195530520Y-80883416D01*
X195609577Y-80746484D01*
X195650500Y-80593757D01*
X195650500Y-77824500D01*
X195670185Y-77757461D01*
X195722989Y-77711706D01*
X195774500Y-77700500D01*
X196200003Y-77700500D01*
X196200008Y-77700500D01*
X196302797Y-77689999D01*
X196469334Y-77634814D01*
X196618655Y-77542711D01*
X196742711Y-77418655D01*
X196834814Y-77269334D01*
X196889999Y-77102797D01*
X196900500Y-77000008D01*
X196900500Y-74599992D01*
X196889999Y-74497203D01*
X196834814Y-74330666D01*
X196810594Y-74291400D01*
X196742713Y-74181348D01*
X196742710Y-74181344D01*
X196618655Y-74057289D01*
X196618651Y-74057286D01*
X196469337Y-73965187D01*
X196469335Y-73965186D01*
X196386065Y-73937593D01*
X196302797Y-73910001D01*
X196302795Y-73910000D01*
X196200015Y-73899500D01*
X196200008Y-73899500D01*
X193799992Y-73899500D01*
X193799984Y-73899500D01*
X193697204Y-73910000D01*
X193697203Y-73910001D01*
X193530664Y-73965186D01*
X193530662Y-73965187D01*
X193381348Y-74057286D01*
X193381344Y-74057289D01*
X193257289Y-74181344D01*
X193257286Y-74181348D01*
X193165187Y-74330662D01*
X193165186Y-74330664D01*
X193110001Y-74497203D01*
X193110000Y-74497204D01*
X193099500Y-74599984D01*
X193099500Y-77000015D01*
X193110000Y-77102795D01*
X193110001Y-77102796D01*
X193165186Y-77269335D01*
X193165187Y-77269337D01*
X193257286Y-77418651D01*
X193257289Y-77418655D01*
X193381344Y-77542710D01*
X193381348Y-77542713D01*
X193530662Y-77634812D01*
X193530664Y-77634813D01*
X193530666Y-77634814D01*
X193697203Y-77689999D01*
X193799992Y-77700500D01*
X194325500Y-77700500D01*
X194392539Y-77720185D01*
X194438294Y-77772989D01*
X194449500Y-77824500D01*
X194449500Y-80214602D01*
X194429815Y-80281641D01*
X194413181Y-80302283D01*
X184533696Y-90181767D01*
X184472373Y-90215252D01*
X184402681Y-90210268D01*
X184346748Y-90168396D01*
X184322331Y-90102932D01*
X184323542Y-90074688D01*
X184350500Y-89904487D01*
X184350500Y-89715514D01*
X184320940Y-89528882D01*
X184265543Y-89358390D01*
X184262547Y-89349169D01*
X184262545Y-89349166D01*
X184262545Y-89349164D01*
X184182866Y-89192786D01*
X184176760Y-89180802D01*
X184065690Y-89027928D01*
X183932073Y-88894311D01*
X183860046Y-88841980D01*
X183817382Y-88786650D01*
X183811403Y-88717037D01*
X183844009Y-88655242D01*
X183845178Y-88654056D01*
X184755159Y-87744075D01*
X184816480Y-87710592D01*
X184881154Y-87713826D01*
X184895466Y-87718477D01*
X185097648Y-87750500D01*
X185097649Y-87750500D01*
X185302351Y-87750500D01*
X185302352Y-87750500D01*
X185504534Y-87718477D01*
X185699219Y-87655220D01*
X185881610Y-87562287D01*
X185974590Y-87494732D01*
X186047213Y-87441971D01*
X186047215Y-87441968D01*
X186047219Y-87441966D01*
X186191966Y-87297219D01*
X186191968Y-87297215D01*
X186191971Y-87297213D01*
X186265894Y-87195465D01*
X186312287Y-87131610D01*
X186405220Y-86949219D01*
X186468477Y-86754534D01*
X186500500Y-86552352D01*
X186500500Y-86347648D01*
X186468477Y-86145466D01*
X186454585Y-86102712D01*
X186414277Y-85978656D01*
X186405220Y-85950781D01*
X186405218Y-85950778D01*
X186405218Y-85950776D01*
X186371503Y-85884607D01*
X186312287Y-85768390D01*
X186304556Y-85757749D01*
X186191971Y-85602786D01*
X186047213Y-85458028D01*
X185881611Y-85337713D01*
X185827621Y-85310203D01*
X185776825Y-85262228D01*
X185760031Y-85194407D01*
X185782569Y-85128272D01*
X185827624Y-85089233D01*
X185881349Y-85061859D01*
X185925921Y-85029474D01*
X185246447Y-84350000D01*
X185252661Y-84350000D01*
X185354394Y-84322741D01*
X185445606Y-84270080D01*
X185520080Y-84195606D01*
X185572741Y-84104394D01*
X185600000Y-84002661D01*
X185600000Y-83996448D01*
X186279474Y-84675922D01*
X186279474Y-84675921D01*
X186311859Y-84631349D01*
X186404755Y-84449031D01*
X186467990Y-84254417D01*
X186500000Y-84052317D01*
X186500000Y-83847682D01*
X186467990Y-83645582D01*
X186404755Y-83450968D01*
X186311859Y-83268650D01*
X186279474Y-83224077D01*
X186279474Y-83224076D01*
X185600000Y-83903551D01*
X185600000Y-83897339D01*
X185572741Y-83795606D01*
X185520080Y-83704394D01*
X185445606Y-83629920D01*
X185354394Y-83577259D01*
X185252661Y-83550000D01*
X185246446Y-83550000D01*
X185925922Y-82870524D01*
X185925921Y-82870523D01*
X185881359Y-82838147D01*
X185881350Y-82838141D01*
X185699031Y-82745244D01*
X185504417Y-82682009D01*
X185302317Y-82650000D01*
X185097683Y-82650000D01*
X184895582Y-82682009D01*
X184700968Y-82745244D01*
X184518644Y-82838143D01*
X184474077Y-82870523D01*
X184474077Y-82870524D01*
X185153554Y-83550000D01*
X185147339Y-83550000D01*
X185045606Y-83577259D01*
X184954394Y-83629920D01*
X184879920Y-83704394D01*
X184827259Y-83795606D01*
X184800000Y-83897339D01*
X184800000Y-83903553D01*
X184120524Y-83224077D01*
X184120523Y-83224077D01*
X184088143Y-83268644D01*
X183995244Y-83450968D01*
X183932009Y-83645582D01*
X183900000Y-83847682D01*
X183900000Y-84052317D01*
X183932009Y-84254417D01*
X183995244Y-84449031D01*
X184088141Y-84631350D01*
X184088147Y-84631359D01*
X184120523Y-84675921D01*
X184120524Y-84675922D01*
X184800000Y-83996446D01*
X184800000Y-84002661D01*
X184827259Y-84104394D01*
X184879920Y-84195606D01*
X184954394Y-84270080D01*
X185045606Y-84322741D01*
X185147339Y-84350000D01*
X185153553Y-84350000D01*
X184474076Y-85029474D01*
X184518652Y-85061861D01*
X184572376Y-85089234D01*
X184623172Y-85137208D01*
X184639968Y-85205028D01*
X184617431Y-85271164D01*
X184572379Y-85310203D01*
X184518386Y-85337714D01*
X184352786Y-85458028D01*
X184208028Y-85602786D01*
X184087715Y-85768386D01*
X183994781Y-85950776D01*
X183931522Y-86145465D01*
X183899500Y-86347648D01*
X183899500Y-86552352D01*
X183908470Y-86608986D01*
X183931523Y-86754535D01*
X183936172Y-86768845D01*
X183938165Y-86838687D01*
X183905921Y-86894841D01*
X182784714Y-88016049D01*
X182784708Y-88016055D01*
X182781286Y-88019478D01*
X182781284Y-88019480D01*
X182669480Y-88131284D01*
X182640425Y-88181610D01*
X182634713Y-88191502D01*
X182634713Y-88191503D01*
X182590423Y-88268214D01*
X182590423Y-88268215D01*
X182549499Y-88420943D01*
X182549499Y-88420945D01*
X182549499Y-88589046D01*
X182549500Y-88589059D01*
X182549500Y-88699208D01*
X182529815Y-88766247D01*
X182498386Y-88799526D01*
X182367925Y-88894312D01*
X182234312Y-89027925D01*
X182234312Y-89027926D01*
X182234310Y-89027928D01*
X182219702Y-89048034D01*
X182123240Y-89180801D01*
X182037454Y-89349164D01*
X181979059Y-89528882D01*
X181949500Y-89715514D01*
X180364749Y-89715514D01*
X180327590Y-89678355D01*
X180327588Y-89678352D01*
X180208717Y-89559481D01*
X180208716Y-89559480D01*
X180121904Y-89509360D01*
X180071785Y-89480423D01*
X179919057Y-89439499D01*
X179918090Y-89439499D01*
X179910509Y-89436818D01*
X179885956Y-89419084D01*
X179860096Y-89403322D01*
X179856077Y-89397504D01*
X179853868Y-89395909D01*
X179852410Y-89392196D01*
X179841365Y-89376207D01*
X179832284Y-89358385D01*
X179711971Y-89192786D01*
X179567213Y-89048028D01*
X179401614Y-88927715D01*
X179395006Y-88924348D01*
X179308917Y-88880483D01*
X179258123Y-88832511D01*
X179241328Y-88764690D01*
X179263865Y-88698555D01*
X179308917Y-88659516D01*
X179401610Y-88612287D01*
X179433599Y-88589046D01*
X179567213Y-88491971D01*
X179567215Y-88491968D01*
X179567219Y-88491966D01*
X179711966Y-88347219D01*
X179711968Y-88347215D01*
X179711971Y-88347213D01*
X179769366Y-88268214D01*
X179832287Y-88181610D01*
X179925220Y-87999219D01*
X179988477Y-87804534D01*
X180020500Y-87602352D01*
X180020500Y-87397648D01*
X179988477Y-87195465D01*
X179947808Y-87070299D01*
X179925220Y-87000781D01*
X179925218Y-87000778D01*
X179925218Y-87000776D01*
X179876556Y-86905273D01*
X179832287Y-86818390D01*
X179815874Y-86795799D01*
X179711971Y-86652786D01*
X179567213Y-86508028D01*
X179401614Y-86387715D01*
X179395006Y-86384348D01*
X179308917Y-86340483D01*
X179258123Y-86292511D01*
X179241328Y-86224690D01*
X179263865Y-86158555D01*
X179308917Y-86119516D01*
X179401610Y-86072287D01*
X179422770Y-86056913D01*
X179567213Y-85951971D01*
X179567215Y-85951968D01*
X179567219Y-85951966D01*
X179711966Y-85807219D01*
X179711968Y-85807215D01*
X179711971Y-85807213D01*
X179832286Y-85641611D01*
X179844211Y-85618208D01*
X179863916Y-85597342D01*
X179881342Y-85574526D01*
X179888884Y-85570906D01*
X179892185Y-85567412D01*
X179912479Y-85557910D01*
X179917467Y-85556103D01*
X180053785Y-85519577D01*
X180103904Y-85490639D01*
X180190716Y-85440520D01*
X180302520Y-85328716D01*
X180302520Y-85328714D01*
X180312728Y-85318507D01*
X180312729Y-85318504D01*
X181480520Y-84150716D01*
X181559577Y-84013784D01*
X181600501Y-83861057D01*
X181600501Y-83702942D01*
X181600500Y-83702938D01*
X181600500Y-77824500D01*
X181620185Y-77757461D01*
X181672989Y-77711706D01*
X181724500Y-77700500D01*
X182200003Y-77700500D01*
X182200008Y-77700500D01*
X182302797Y-77689999D01*
X182469334Y-77634814D01*
X182618655Y-77542711D01*
X182742711Y-77418655D01*
X182834814Y-77269334D01*
X182889999Y-77102797D01*
X182900500Y-77000008D01*
X182900500Y-75675466D01*
X188100000Y-75675466D01*
X188100000Y-75924533D01*
X188132508Y-76171463D01*
X188196973Y-76412049D01*
X188292283Y-76642148D01*
X188292288Y-76642159D01*
X188416813Y-76857841D01*
X188416819Y-76857849D01*
X188491400Y-76955045D01*
X189398958Y-76047487D01*
X189423978Y-76107890D01*
X189495112Y-76214351D01*
X189585649Y-76304888D01*
X189692110Y-76376022D01*
X189752511Y-76401041D01*
X188844953Y-77308598D01*
X188942150Y-77383180D01*
X188942158Y-77383186D01*
X189157840Y-77507711D01*
X189157851Y-77507716D01*
X189387950Y-77603026D01*
X189628536Y-77667491D01*
X189875466Y-77700000D01*
X190124534Y-77700000D01*
X190371463Y-77667491D01*
X190612049Y-77603026D01*
X190842148Y-77507716D01*
X190842159Y-77507711D01*
X191057855Y-77383178D01*
X191155045Y-77308600D01*
X191155045Y-77308597D01*
X190247488Y-76401041D01*
X190307890Y-76376022D01*
X190414351Y-76304888D01*
X190504888Y-76214351D01*
X190576022Y-76107890D01*
X190601041Y-76047489D01*
X191508597Y-76955045D01*
X191508600Y-76955045D01*
X191583178Y-76857855D01*
X191707711Y-76642159D01*
X191707716Y-76642148D01*
X191803026Y-76412049D01*
X191867491Y-76171463D01*
X191900000Y-75924533D01*
X191900000Y-75675466D01*
X191867491Y-75428536D01*
X191803026Y-75187950D01*
X191707716Y-74957851D01*
X191707711Y-74957840D01*
X191583186Y-74742158D01*
X191583180Y-74742150D01*
X191508598Y-74644953D01*
X190601041Y-75552510D01*
X190576022Y-75492110D01*
X190504888Y-75385649D01*
X190414351Y-75295112D01*
X190307890Y-75223978D01*
X190247487Y-75198957D01*
X191155045Y-74291400D01*
X191057849Y-74216819D01*
X191057841Y-74216813D01*
X190842159Y-74092288D01*
X190842148Y-74092283D01*
X190612049Y-73996973D01*
X190371463Y-73932508D01*
X190124534Y-73900000D01*
X189875466Y-73900000D01*
X189628536Y-73932508D01*
X189387950Y-73996973D01*
X189157851Y-74092283D01*
X189157847Y-74092285D01*
X188942143Y-74216823D01*
X188844953Y-74291399D01*
X188844953Y-74291400D01*
X189752511Y-75198958D01*
X189692110Y-75223978D01*
X189585649Y-75295112D01*
X189495112Y-75385649D01*
X189423978Y-75492110D01*
X189398958Y-75552511D01*
X188491400Y-74644953D01*
X188491399Y-74644953D01*
X188416823Y-74742143D01*
X188292285Y-74957847D01*
X188292283Y-74957851D01*
X188196973Y-75187950D01*
X188132508Y-75428536D01*
X188100000Y-75675466D01*
X182900500Y-75675466D01*
X182900500Y-74599992D01*
X182889999Y-74497203D01*
X182834814Y-74330666D01*
X182810594Y-74291400D01*
X182742713Y-74181348D01*
X182742710Y-74181344D01*
X182618655Y-74057289D01*
X182618651Y-74057286D01*
X182469337Y-73965187D01*
X182469335Y-73965186D01*
X182386065Y-73937593D01*
X182302797Y-73910001D01*
X182302795Y-73910000D01*
X182200015Y-73899500D01*
X182200008Y-73899500D01*
X179799992Y-73899500D01*
X179799984Y-73899500D01*
X179697204Y-73910000D01*
X179697203Y-73910001D01*
X179530664Y-73965186D01*
X179530662Y-73965187D01*
X179381348Y-74057286D01*
X179381344Y-74057289D01*
X179257289Y-74181344D01*
X179257286Y-74181348D01*
X179165187Y-74330662D01*
X179165186Y-74330664D01*
X179110001Y-74497203D01*
X179110000Y-74497204D01*
X179099500Y-74599984D01*
X179099500Y-77000015D01*
X179110000Y-77102795D01*
X179110001Y-77102796D01*
X179165186Y-77269335D01*
X179165187Y-77269337D01*
X179257286Y-77418651D01*
X179257289Y-77418655D01*
X179381344Y-77542710D01*
X179381348Y-77542713D01*
X179530662Y-77634812D01*
X179530664Y-77634813D01*
X179530666Y-77634814D01*
X179697203Y-77689999D01*
X179799992Y-77700500D01*
X180275500Y-77700500D01*
X180342539Y-77720185D01*
X180388294Y-77772989D01*
X180399500Y-77824500D01*
X180399500Y-83481902D01*
X180379815Y-83548941D01*
X180363181Y-83569583D01*
X179853655Y-84079108D01*
X179792332Y-84112593D01*
X179722640Y-84107609D01*
X179678293Y-84079108D01*
X179567213Y-83968028D01*
X179401613Y-83847715D01*
X179401612Y-83847714D01*
X179401610Y-83847713D01*
X179341898Y-83817288D01*
X179219223Y-83754781D01*
X179024534Y-83691522D01*
X178849995Y-83663878D01*
X178822352Y-83659500D01*
X177817648Y-83659500D01*
X177793329Y-83663351D01*
X177615465Y-83691522D01*
X177420776Y-83754781D01*
X177238386Y-83847715D01*
X177072786Y-83968028D01*
X176928028Y-84112786D01*
X176807715Y-84278386D01*
X176714781Y-84460776D01*
X176651522Y-84655465D01*
X176619500Y-84857648D01*
X176619500Y-85062351D01*
X176651522Y-85264534D01*
X176714781Y-85459223D01*
X176807715Y-85641613D01*
X176928028Y-85807213D01*
X177072786Y-85951971D01*
X177227749Y-86064556D01*
X177238390Y-86072287D01*
X177329840Y-86118883D01*
X177331080Y-86119515D01*
X177381876Y-86167490D01*
X177398671Y-86235311D01*
X177376134Y-86301446D01*
X177331080Y-86340485D01*
X177238386Y-86387715D01*
X177072786Y-86508028D01*
X176928028Y-86652786D01*
X176807714Y-86818386D01*
X176795787Y-86841795D01*
X176747811Y-86892590D01*
X176717397Y-86905273D01*
X176586214Y-86940423D01*
X176586209Y-86940426D01*
X176449290Y-87019475D01*
X176449282Y-87019481D01*
X176337481Y-87131282D01*
X176337475Y-87131290D01*
X176258426Y-87268209D01*
X176258423Y-87268216D01*
X176217500Y-87420943D01*
X176217500Y-99250685D01*
X176197815Y-99317724D01*
X176168988Y-99349059D01*
X176144226Y-99368060D01*
X176144215Y-99368070D01*
X175968066Y-99544218D01*
X175968060Y-99544225D01*
X175816400Y-99741873D01*
X175691837Y-99957623D01*
X175691830Y-99957638D01*
X175596498Y-100187792D01*
X175532017Y-100428438D01*
X175499501Y-100675424D01*
X175499500Y-100675441D01*
X175499500Y-100924558D01*
X175499501Y-100924575D01*
X175532017Y-101171561D01*
X175596498Y-101412207D01*
X175691830Y-101642361D01*
X175691837Y-101642376D01*
X175816400Y-101858126D01*
X175968060Y-102055774D01*
X175968066Y-102055781D01*
X176144218Y-102231933D01*
X176144225Y-102231939D01*
X176341873Y-102383599D01*
X176557623Y-102508162D01*
X176557638Y-102508169D01*
X176685037Y-102560939D01*
X176739441Y-102604780D01*
X176761506Y-102671074D01*
X176744227Y-102738773D01*
X176693090Y-102786384D01*
X176637585Y-102799500D01*
X175300097Y-102799500D01*
X175233058Y-102779815D01*
X175212416Y-102763181D01*
X174561998Y-102112763D01*
X174552521Y-102103286D01*
X174552520Y-102103284D01*
X174440716Y-101991480D01*
X174401108Y-101968612D01*
X174391517Y-101960019D01*
X174390471Y-101958331D01*
X174386581Y-101955346D01*
X174336819Y-101905584D01*
X174303334Y-101844261D01*
X174300500Y-101817903D01*
X174300500Y-99599997D01*
X174300499Y-99599984D01*
X174289999Y-99497204D01*
X174289999Y-99497203D01*
X174234814Y-99330666D01*
X174226831Y-99317724D01*
X174142713Y-99181348D01*
X174142710Y-99181344D01*
X174018655Y-99057289D01*
X174018651Y-99057286D01*
X173869337Y-98965187D01*
X173869335Y-98965186D01*
X173769237Y-98932017D01*
X173702797Y-98910001D01*
X173702795Y-98910000D01*
X173600015Y-98899500D01*
X173600008Y-98899500D01*
X171199992Y-98899500D01*
X171199984Y-98899500D01*
X171097204Y-98910000D01*
X171097203Y-98910001D01*
X170930664Y-98965186D01*
X170930662Y-98965187D01*
X170781348Y-99057286D01*
X170781344Y-99057289D01*
X170657289Y-99181344D01*
X170657286Y-99181348D01*
X170565187Y-99330662D01*
X170565186Y-99330664D01*
X170510001Y-99497203D01*
X170510000Y-99497204D01*
X170499500Y-99599984D01*
X159300500Y-99599984D01*
X159300500Y-92905513D01*
X159859501Y-92905513D01*
X159859501Y-93094486D01*
X159889060Y-93281118D01*
X159947455Y-93460836D01*
X160004079Y-93571966D01*
X160033241Y-93629199D01*
X160144311Y-93782073D01*
X160277928Y-93915690D01*
X160430802Y-94026760D01*
X160510348Y-94067290D01*
X160599164Y-94112545D01*
X160599166Y-94112545D01*
X160599169Y-94112547D01*
X160695498Y-94143846D01*
X160778882Y-94170940D01*
X160965515Y-94200500D01*
X160965520Y-94200500D01*
X161154487Y-94200500D01*
X161341119Y-94170940D01*
X161520833Y-94112547D01*
X161689200Y-94026760D01*
X161842074Y-93915690D01*
X161975691Y-93782073D01*
X162086761Y-93629199D01*
X162172548Y-93460832D01*
X162230941Y-93281118D01*
X162237737Y-93238209D01*
X162260501Y-93094486D01*
X162260501Y-92905513D01*
X162230941Y-92718881D01*
X162172546Y-92539163D01*
X162086760Y-92370800D01*
X161975691Y-92217927D01*
X161842074Y-92084310D01*
X161689200Y-91973240D01*
X161660501Y-91958617D01*
X161520837Y-91887454D01*
X161341119Y-91829059D01*
X161154487Y-91799500D01*
X161154482Y-91799500D01*
X160965520Y-91799500D01*
X160965515Y-91799500D01*
X160778882Y-91829059D01*
X160599164Y-91887454D01*
X160430801Y-91973240D01*
X160343580Y-92036610D01*
X160277928Y-92084310D01*
X160277926Y-92084312D01*
X160277925Y-92084312D01*
X160144313Y-92217924D01*
X160144313Y-92217925D01*
X160144311Y-92217927D01*
X160110285Y-92264760D01*
X160033241Y-92370800D01*
X159947455Y-92539163D01*
X159889060Y-92718881D01*
X159859501Y-92905513D01*
X159300500Y-92905513D01*
X159300500Y-87505513D01*
X159719500Y-87505513D01*
X159719500Y-87694486D01*
X159749059Y-87881118D01*
X159807454Y-88060836D01*
X159868992Y-88181610D01*
X159893240Y-88229199D01*
X160004310Y-88382073D01*
X160137927Y-88515690D01*
X160290801Y-88626760D01*
X160355087Y-88659515D01*
X160459163Y-88712545D01*
X160459165Y-88712545D01*
X160459168Y-88712547D01*
X160555497Y-88743846D01*
X160638881Y-88770940D01*
X160825514Y-88800500D01*
X160825519Y-88800500D01*
X161014485Y-88800500D01*
X161117150Y-88784239D01*
X161173682Y-88775285D01*
X161242975Y-88784239D01*
X161280766Y-88810081D01*
X163392084Y-90921614D01*
X163392083Y-90921614D01*
X163397473Y-90927004D01*
X163397480Y-90927016D01*
X163459902Y-90989438D01*
X163459904Y-90989440D01*
X163459905Y-90989442D01*
X163509257Y-91038799D01*
X163509280Y-91038816D01*
X163509284Y-91038820D01*
X163509289Y-91038823D01*
X163509385Y-91038894D01*
X163510387Y-91039457D01*
X163578977Y-91079057D01*
X163622599Y-91104245D01*
X163646187Y-91117865D01*
X163646214Y-91117876D01*
X163646216Y-91117877D01*
X163713917Y-91136017D01*
X163713924Y-91136021D01*
X163713925Y-91136019D01*
X163798912Y-91158797D01*
X163798919Y-91158797D01*
X163798937Y-91158800D01*
X163858205Y-91158800D01*
X163957027Y-91158805D01*
X163957031Y-91158803D01*
X163964970Y-91158804D01*
X163965049Y-91158800D01*
X165415500Y-91158800D01*
X165482539Y-91178485D01*
X165528294Y-91231289D01*
X165539500Y-91282800D01*
X165539500Y-91889207D01*
X165519815Y-91956246D01*
X165488386Y-91989525D01*
X165357925Y-92084311D01*
X165224312Y-92217924D01*
X165224312Y-92217925D01*
X165224310Y-92217927D01*
X165190284Y-92264760D01*
X165113240Y-92370800D01*
X165027454Y-92539163D01*
X164969059Y-92718881D01*
X164939500Y-92905513D01*
X164939500Y-93094486D01*
X164969059Y-93281118D01*
X165027454Y-93460836D01*
X165084078Y-93571966D01*
X165113240Y-93629199D01*
X165224310Y-93782073D01*
X165357927Y-93915690D01*
X165510801Y-94026760D01*
X165590347Y-94067290D01*
X165679163Y-94112545D01*
X165679165Y-94112545D01*
X165679168Y-94112547D01*
X165775497Y-94143846D01*
X165858881Y-94170940D01*
X166045514Y-94200500D01*
X166045519Y-94200500D01*
X166234486Y-94200500D01*
X166421118Y-94170940D01*
X166600832Y-94112547D01*
X166769199Y-94026760D01*
X166922073Y-93915690D01*
X167055690Y-93782073D01*
X167166760Y-93629199D01*
X167252547Y-93460832D01*
X167310940Y-93281118D01*
X167317736Y-93238209D01*
X167340500Y-93094486D01*
X167340500Y-92905513D01*
X167310940Y-92718881D01*
X167252545Y-92539163D01*
X167166759Y-92370800D01*
X167055690Y-92217927D01*
X166922073Y-92084310D01*
X166869319Y-92045982D01*
X166791614Y-91989525D01*
X166748948Y-91934194D01*
X166740500Y-91889207D01*
X166740500Y-90858376D01*
X166760185Y-90791337D01*
X166776814Y-90770699D01*
X166821821Y-90725688D01*
X169166362Y-88380916D01*
X169227683Y-88347429D01*
X169297375Y-88352410D01*
X169341728Y-88380913D01*
X169452786Y-88491971D01*
X169586401Y-88589046D01*
X169618390Y-88612287D01*
X169700221Y-88653982D01*
X169711080Y-88659515D01*
X169761876Y-88707490D01*
X169778671Y-88775311D01*
X169756134Y-88841446D01*
X169711080Y-88880485D01*
X169618386Y-88927715D01*
X169452786Y-89048028D01*
X169308028Y-89192786D01*
X169187715Y-89358386D01*
X169094781Y-89540776D01*
X169031522Y-89735465D01*
X168999500Y-89937648D01*
X168999500Y-90142351D01*
X169031522Y-90344534D01*
X169094781Y-90539223D01*
X169187715Y-90721613D01*
X169308028Y-90887213D01*
X169452786Y-91031971D01*
X169607749Y-91144556D01*
X169618390Y-91152287D01*
X169699662Y-91193697D01*
X169711080Y-91199515D01*
X169761876Y-91247490D01*
X169778671Y-91315311D01*
X169756134Y-91381446D01*
X169711080Y-91420485D01*
X169618386Y-91467715D01*
X169452786Y-91588028D01*
X169308028Y-91732786D01*
X169187715Y-91898386D01*
X169094781Y-92080776D01*
X169031522Y-92275465D01*
X168999500Y-92477648D01*
X168999500Y-92682351D01*
X169031522Y-92884534D01*
X169094781Y-93079223D01*
X169187715Y-93261613D01*
X169308028Y-93427213D01*
X169452786Y-93571971D01*
X169607749Y-93684556D01*
X169618390Y-93692287D01*
X169734607Y-93751503D01*
X169800776Y-93785218D01*
X169800778Y-93785218D01*
X169800781Y-93785220D01*
X169905137Y-93819127D01*
X169995465Y-93848477D01*
X170088674Y-93863240D01*
X170197648Y-93880500D01*
X170197649Y-93880500D01*
X171202351Y-93880500D01*
X171202352Y-93880500D01*
X171404534Y-93848477D01*
X171599219Y-93785220D01*
X171781610Y-93692287D01*
X171874590Y-93624732D01*
X171947213Y-93571971D01*
X171947215Y-93571968D01*
X171947219Y-93571966D01*
X172091966Y-93427219D01*
X172091968Y-93427215D01*
X172091971Y-93427213D01*
X172212286Y-93261612D01*
X172212709Y-93260781D01*
X172224211Y-93238207D01*
X172272183Y-93187412D01*
X172302597Y-93174728D01*
X172433784Y-93139577D01*
X172570716Y-93060520D01*
X172682520Y-92948716D01*
X172761577Y-92811784D01*
X172802500Y-92659057D01*
X172802500Y-87039254D01*
X172802513Y-86957035D01*
X172802500Y-86956986D01*
X172802500Y-86956943D01*
X172787109Y-86899503D01*
X172782553Y-86882500D01*
X172782549Y-86882483D01*
X172761612Y-86804300D01*
X172761576Y-86804214D01*
X172720941Y-86733832D01*
X172720931Y-86733815D01*
X172704874Y-86705993D01*
X172682576Y-86667358D01*
X172682575Y-86667357D01*
X172682519Y-86667283D01*
X172624239Y-86609003D01*
X172624229Y-86608986D01*
X172624226Y-86608990D01*
X172206031Y-86190666D01*
X172172558Y-86129341D01*
X172177553Y-86059650D01*
X172206046Y-86015321D01*
X172242712Y-85978656D01*
X172334814Y-85829334D01*
X172389999Y-85662797D01*
X172400500Y-85560009D01*
X172400499Y-84359992D01*
X172389999Y-84257203D01*
X172334814Y-84090666D01*
X172242712Y-83941344D01*
X172118656Y-83817288D01*
X171969334Y-83725186D01*
X171802797Y-83670001D01*
X171802795Y-83670000D01*
X171700010Y-83659500D01*
X169699998Y-83659500D01*
X169699981Y-83659501D01*
X169597203Y-83670000D01*
X169597200Y-83670001D01*
X169430668Y-83725185D01*
X169430663Y-83725187D01*
X169281342Y-83817289D01*
X169157289Y-83941342D01*
X169065187Y-84090663D01*
X169065185Y-84090668D01*
X169057920Y-84112593D01*
X169010001Y-84257203D01*
X169010001Y-84257204D01*
X169010000Y-84257204D01*
X168999500Y-84359983D01*
X168999500Y-84461791D01*
X168979815Y-84528830D01*
X168927011Y-84574585D01*
X168857853Y-84584529D01*
X168794297Y-84555504D01*
X168787831Y-84549485D01*
X164036820Y-79798771D01*
X164003335Y-79737450D01*
X164000500Y-79711088D01*
X164000500Y-77691205D01*
X164020185Y-77624166D01*
X164072989Y-77578411D01*
X164077048Y-77576644D01*
X164242361Y-77508169D01*
X164242361Y-77508168D01*
X164242373Y-77508164D01*
X164458127Y-77383599D01*
X164655776Y-77231938D01*
X164831938Y-77055776D01*
X164983599Y-76858127D01*
X165108164Y-76642373D01*
X165203502Y-76412207D01*
X165267982Y-76171565D01*
X165300500Y-75924565D01*
X165300500Y-75675435D01*
X165267982Y-75428435D01*
X165203502Y-75187793D01*
X165108257Y-74957851D01*
X165108169Y-74957638D01*
X165108162Y-74957623D01*
X164983602Y-74741877D01*
X164983599Y-74741873D01*
X164874747Y-74600014D01*
X166500000Y-74600014D01*
X166500000Y-75550000D01*
X167799999Y-75550000D01*
X167774979Y-75610402D01*
X167750000Y-75735981D01*
X167750000Y-75864019D01*
X167774979Y-75989598D01*
X167799999Y-76050000D01*
X166500000Y-76050000D01*
X166500000Y-76999985D01*
X166510493Y-77102689D01*
X166510494Y-77102696D01*
X166565641Y-77269118D01*
X166565643Y-77269123D01*
X166657684Y-77418344D01*
X166781655Y-77542315D01*
X166930876Y-77634356D01*
X166930881Y-77634358D01*
X167097303Y-77689505D01*
X167097310Y-77689506D01*
X167200014Y-77699999D01*
X167200027Y-77700000D01*
X168150000Y-77700000D01*
X168150000Y-76400001D01*
X168210402Y-76425021D01*
X168335981Y-76450000D01*
X168464019Y-76450000D01*
X168589598Y-76425021D01*
X168650000Y-76400001D01*
X168650000Y-77700000D01*
X169599973Y-77700000D01*
X169599985Y-77699999D01*
X169702689Y-77689506D01*
X169702696Y-77689505D01*
X169869118Y-77634358D01*
X169869123Y-77634356D01*
X170018344Y-77542315D01*
X170142315Y-77418344D01*
X170234356Y-77269123D01*
X170234357Y-77269120D01*
X170250091Y-77221641D01*
X170250092Y-77221639D01*
X170289504Y-77102699D01*
X170289506Y-77102689D01*
X170299999Y-76999985D01*
X170300000Y-76999972D01*
X170300000Y-76050000D01*
X169000001Y-76050000D01*
X169025021Y-75989598D01*
X169050000Y-75864019D01*
X169050000Y-75735981D01*
X169037963Y-75675466D01*
X174100000Y-75675466D01*
X174100000Y-75924533D01*
X174132508Y-76171463D01*
X174196973Y-76412049D01*
X174292283Y-76642148D01*
X174292288Y-76642159D01*
X174416813Y-76857841D01*
X174416819Y-76857849D01*
X174491400Y-76955045D01*
X175398958Y-76047487D01*
X175423978Y-76107890D01*
X175495112Y-76214351D01*
X175585649Y-76304888D01*
X175692110Y-76376022D01*
X175752511Y-76401041D01*
X174844953Y-77308598D01*
X174942150Y-77383180D01*
X174942158Y-77383186D01*
X175157840Y-77507711D01*
X175157851Y-77507716D01*
X175387950Y-77603026D01*
X175628536Y-77667491D01*
X175875466Y-77700000D01*
X176124534Y-77700000D01*
X176371463Y-77667491D01*
X176612049Y-77603026D01*
X176842148Y-77507716D01*
X176842159Y-77507711D01*
X177057855Y-77383178D01*
X177155045Y-77308600D01*
X177155045Y-77308597D01*
X176247488Y-76401041D01*
X176307890Y-76376022D01*
X176414351Y-76304888D01*
X176504888Y-76214351D01*
X176576022Y-76107890D01*
X176601041Y-76047489D01*
X177508597Y-76955045D01*
X177508600Y-76955045D01*
X177583178Y-76857855D01*
X177707711Y-76642159D01*
X177707716Y-76642148D01*
X177803026Y-76412049D01*
X177867491Y-76171463D01*
X177900000Y-75924533D01*
X177900000Y-75675466D01*
X177867491Y-75428536D01*
X177803026Y-75187950D01*
X177707716Y-74957851D01*
X177707711Y-74957840D01*
X177583186Y-74742158D01*
X177583180Y-74742150D01*
X177508598Y-74644953D01*
X176601041Y-75552510D01*
X176576022Y-75492110D01*
X176504888Y-75385649D01*
X176414351Y-75295112D01*
X176307890Y-75223978D01*
X176247487Y-75198957D01*
X177155045Y-74291400D01*
X177057849Y-74216819D01*
X177057841Y-74216813D01*
X176842159Y-74092288D01*
X176842148Y-74092283D01*
X176612049Y-73996973D01*
X176371463Y-73932508D01*
X176124534Y-73900000D01*
X175875466Y-73900000D01*
X175628536Y-73932508D01*
X175387950Y-73996973D01*
X175157851Y-74092283D01*
X175157847Y-74092285D01*
X174942143Y-74216823D01*
X174844953Y-74291399D01*
X174844953Y-74291400D01*
X175752511Y-75198958D01*
X175692110Y-75223978D01*
X175585649Y-75295112D01*
X175495112Y-75385649D01*
X175423978Y-75492110D01*
X175398958Y-75552511D01*
X174491400Y-74644953D01*
X174491399Y-74644953D01*
X174416823Y-74742143D01*
X174292285Y-74957847D01*
X174292283Y-74957851D01*
X174196973Y-75187950D01*
X174132508Y-75428536D01*
X174100000Y-75675466D01*
X169037963Y-75675466D01*
X169025021Y-75610402D01*
X169000001Y-75550000D01*
X170300000Y-75550000D01*
X170300000Y-74600027D01*
X170299999Y-74600014D01*
X170289506Y-74497310D01*
X170289505Y-74497303D01*
X170250090Y-74378357D01*
X170234358Y-74330881D01*
X170234356Y-74330876D01*
X170142315Y-74181655D01*
X170018344Y-74057684D01*
X169869123Y-73965643D01*
X169869118Y-73965641D01*
X169702696Y-73910494D01*
X169702689Y-73910493D01*
X169599985Y-73900000D01*
X168650000Y-73900000D01*
X168650000Y-75199998D01*
X168589598Y-75174979D01*
X168464019Y-75150000D01*
X168335981Y-75150000D01*
X168210402Y-75174979D01*
X168150000Y-75199998D01*
X168150000Y-73900000D01*
X167200014Y-73900000D01*
X167097310Y-73910493D01*
X167097303Y-73910494D01*
X166930881Y-73965641D01*
X166930876Y-73965643D01*
X166781655Y-74057684D01*
X166657684Y-74181655D01*
X166565643Y-74330876D01*
X166565641Y-74330881D01*
X166510494Y-74497303D01*
X166510493Y-74497310D01*
X166500000Y-74600014D01*
X164874747Y-74600014D01*
X164874730Y-74599992D01*
X164831939Y-74544225D01*
X164831933Y-74544218D01*
X164655781Y-74368066D01*
X164655774Y-74368060D01*
X164458126Y-74216400D01*
X164242376Y-74091837D01*
X164242361Y-74091830D01*
X164012207Y-73996498D01*
X163895349Y-73965186D01*
X163771565Y-73932018D01*
X163771564Y-73932017D01*
X163771561Y-73932017D01*
X163524575Y-73899501D01*
X163524570Y-73899500D01*
X163524565Y-73899500D01*
X163275435Y-73899500D01*
X163275429Y-73899500D01*
X163275424Y-73899501D01*
X163028438Y-73932017D01*
X162787792Y-73996498D01*
X162557638Y-74091830D01*
X162557623Y-74091837D01*
X162341873Y-74216400D01*
X162144225Y-74368060D01*
X162144218Y-74368066D01*
X161968066Y-74544218D01*
X161968060Y-74544225D01*
X161816400Y-74741873D01*
X161691837Y-74957623D01*
X161691830Y-74957638D01*
X161596498Y-75187792D01*
X161532017Y-75428438D01*
X161499501Y-75675424D01*
X161499500Y-75675441D01*
X161499500Y-75924558D01*
X161499501Y-75924575D01*
X161532017Y-76171561D01*
X161596498Y-76412207D01*
X161691830Y-76642361D01*
X161691837Y-76642376D01*
X161816400Y-76858126D01*
X161968060Y-77055774D01*
X161968066Y-77055781D01*
X162144218Y-77231933D01*
X162144225Y-77231939D01*
X162341873Y-77383599D01*
X162557623Y-77508162D01*
X162557638Y-77508169D01*
X162722952Y-77576644D01*
X162777356Y-77620485D01*
X162799421Y-77686779D01*
X162799500Y-77691205D01*
X162799500Y-79932149D01*
X162799497Y-79932161D01*
X162799500Y-80027030D01*
X162799500Y-80090262D01*
X162799503Y-80090279D01*
X162819580Y-80165199D01*
X162819605Y-80165291D01*
X162819686Y-80165592D01*
X162840423Y-80242984D01*
X162840428Y-80242994D01*
X162840431Y-80243002D01*
X162841527Y-80244900D01*
X162841528Y-80244903D01*
X162873423Y-80300141D01*
X162873425Y-80300147D01*
X162919475Y-80379909D01*
X162919489Y-80379928D01*
X162919491Y-80379930D01*
X162919492Y-80379931D01*
X162967306Y-80427742D01*
X163031284Y-80491720D01*
X163037380Y-80497816D01*
X163037412Y-80497844D01*
X165212413Y-82672708D01*
X169184626Y-86644672D01*
X169198358Y-86669818D01*
X169214665Y-86693384D01*
X169214894Y-86700098D01*
X169218113Y-86705993D01*
X169216070Y-86734572D01*
X169217047Y-86763213D01*
X169213480Y-86770789D01*
X169213131Y-86775685D01*
X169203489Y-86795799D01*
X169200594Y-86800659D01*
X169187713Y-86818390D01*
X169173940Y-86845419D01*
X169171846Y-86848937D01*
X169149109Y-86870037D01*
X169127812Y-86892586D01*
X169122365Y-86894857D01*
X169120633Y-86896465D01*
X169116918Y-86897129D01*
X169097407Y-86905266D01*
X169047207Y-86918720D01*
X169038218Y-86921130D01*
X168966216Y-86940423D01*
X168966214Y-86940423D01*
X168966206Y-86940426D01*
X168966193Y-86940431D01*
X168904918Y-86975811D01*
X168904916Y-86975812D01*
X168829282Y-87019480D01*
X168829266Y-87019492D01*
X168778463Y-87070299D01*
X168778461Y-87070302D01*
X168712812Y-87135951D01*
X168712764Y-87136005D01*
X165927567Y-89921477D01*
X165866245Y-89954965D01*
X165839881Y-89957800D01*
X164178120Y-89957800D01*
X164111081Y-89938115D01*
X164090434Y-89921477D01*
X162130050Y-87960894D01*
X162096568Y-87899569D01*
X162095263Y-87853822D01*
X162112645Y-87744077D01*
X162120500Y-87694485D01*
X162120500Y-87505513D01*
X164799500Y-87505513D01*
X164799500Y-87694486D01*
X164829059Y-87881118D01*
X164887454Y-88060836D01*
X164948992Y-88181610D01*
X164973240Y-88229199D01*
X165084310Y-88382073D01*
X165217927Y-88515690D01*
X165370801Y-88626760D01*
X165435087Y-88659515D01*
X165539163Y-88712545D01*
X165539165Y-88712545D01*
X165539168Y-88712547D01*
X165635497Y-88743846D01*
X165718881Y-88770940D01*
X165905514Y-88800500D01*
X165905519Y-88800500D01*
X166094486Y-88800500D01*
X166281118Y-88770940D01*
X166300353Y-88764690D01*
X166460832Y-88712547D01*
X166629199Y-88626760D01*
X166782073Y-88515690D01*
X166915690Y-88382073D01*
X167026760Y-88229199D01*
X167112547Y-88060832D01*
X167170940Y-87881118D01*
X167192645Y-87744077D01*
X167200500Y-87694486D01*
X167200500Y-87505513D01*
X167170940Y-87318881D01*
X167112545Y-87139163D01*
X167051569Y-87019492D01*
X167026760Y-86970801D01*
X166915690Y-86817927D01*
X166782073Y-86684310D01*
X166629199Y-86573240D01*
X166588202Y-86552351D01*
X166460836Y-86487454D01*
X166281118Y-86429059D01*
X166094486Y-86399500D01*
X166094481Y-86399500D01*
X165905519Y-86399500D01*
X165905514Y-86399500D01*
X165718881Y-86429059D01*
X165539163Y-86487454D01*
X165370800Y-86573240D01*
X165283579Y-86636610D01*
X165217927Y-86684310D01*
X165217925Y-86684312D01*
X165217924Y-86684312D01*
X165084312Y-86817924D01*
X165084312Y-86817925D01*
X165084310Y-86817927D01*
X165066969Y-86841795D01*
X164973240Y-86970800D01*
X164887454Y-87139163D01*
X164829059Y-87318881D01*
X164799500Y-87505513D01*
X162120500Y-87505513D01*
X162090940Y-87318881D01*
X162032545Y-87139163D01*
X161971569Y-87019492D01*
X161946760Y-86970801D01*
X161835690Y-86817927D01*
X161702073Y-86684310D01*
X161549199Y-86573240D01*
X161508202Y-86552351D01*
X161380836Y-86487454D01*
X161201118Y-86429059D01*
X161014486Y-86399500D01*
X161014481Y-86399500D01*
X160825519Y-86399500D01*
X160825514Y-86399500D01*
X160638881Y-86429059D01*
X160459163Y-86487454D01*
X160290800Y-86573240D01*
X160203579Y-86636610D01*
X160137927Y-86684310D01*
X160137925Y-86684312D01*
X160137924Y-86684312D01*
X160004312Y-86817924D01*
X160004312Y-86817925D01*
X160004310Y-86817927D01*
X159986969Y-86841795D01*
X159893240Y-86970800D01*
X159807454Y-87139163D01*
X159749059Y-87318881D01*
X159719500Y-87505513D01*
X159300500Y-87505513D01*
X159300500Y-70204427D01*
X159300816Y-70195581D01*
X159315130Y-69995443D01*
X159315131Y-69995442D01*
X159315130Y-69995436D01*
X159317646Y-69977938D01*
X159359356Y-69786199D01*
X159364333Y-69769248D01*
X159432911Y-69585385D01*
X159440259Y-69569298D01*
X159502815Y-69454734D01*
X159534291Y-69397089D01*
X159543845Y-69382221D01*
X159661448Y-69225123D01*
X159673020Y-69211769D01*
X159811769Y-69073020D01*
X159825123Y-69061448D01*
X159982221Y-68943845D01*
X159997089Y-68934291D01*
X160169298Y-68840258D01*
X160185385Y-68832911D01*
X160369248Y-68764333D01*
X160386199Y-68759356D01*
X160577938Y-68717646D01*
X160595436Y-68715130D01*
X160795582Y-68700816D01*
X160804428Y-68700500D01*
X160865892Y-68700500D01*
X199934108Y-68700500D01*
X199995572Y-68700500D01*
X200004418Y-68700816D01*
G37*
%TD.AperFunction*%
%TD*%
M02*
